%TF.GenerationSoftware,KiCad,Pcbnew,8.0.3*%
%TF.CreationDate,2024-08-19T15:25:54-04:00*%
%TF.ProjectId,vibrometer_h7,76696272-6f6d-4657-9465-725f68372e6b,rev?*%
%TF.SameCoordinates,Original*%
%TF.FileFunction,Legend,Bot*%
%TF.FilePolarity,Positive*%
%FSLAX46Y46*%
G04 Gerber Fmt 4.6, Leading zero omitted, Abs format (unit mm)*
G04 Created by KiCad (PCBNEW 8.0.3) date 2024-08-19 15:25:54*
%MOMM*%
%LPD*%
G01*
G04 APERTURE LIST*
G04 Aperture macros list*
%AMHorizOval*
0 Thick line with rounded ends*
0 $1 width*
0 $2 $3 position (X,Y) of the first rounded end (center of the circle)*
0 $4 $5 position (X,Y) of the second rounded end (center of the circle)*
0 Add line between two ends*
20,1,$1,$2,$3,$4,$5,0*
0 Add two circle primitives to create the rounded ends*
1,1,$1,$2,$3*
1,1,$1,$4,$5*%
G04 Aperture macros list end*
%ADD10C,0.150000*%
%ADD11C,0.120000*%
%ADD12C,0.990600*%
%ADD13C,1.600000*%
%ADD14C,0.650000*%
%ADD15HorizOval,1.000000X-0.476314X-0.275000X0.476314X0.275000X0*%
%ADD16HorizOval,1.000000X-0.346410X-0.200000X0.346410X0.200000X0*%
%ADD17C,1.000000*%
G04 APERTURE END LIST*
D10*
X168414285Y-105306819D02*
X167842857Y-105306819D01*
X168128571Y-106306819D02*
X168128571Y-105306819D01*
X167509523Y-106306819D02*
X167509523Y-105306819D01*
X167509523Y-105306819D02*
X167128571Y-105306819D01*
X167128571Y-105306819D02*
X167033333Y-105354438D01*
X167033333Y-105354438D02*
X166985714Y-105402057D01*
X166985714Y-105402057D02*
X166938095Y-105497295D01*
X166938095Y-105497295D02*
X166938095Y-105640152D01*
X166938095Y-105640152D02*
X166985714Y-105735390D01*
X166985714Y-105735390D02*
X167033333Y-105783009D01*
X167033333Y-105783009D02*
X167128571Y-105830628D01*
X167128571Y-105830628D02*
X167509523Y-105830628D01*
X166080952Y-105640152D02*
X166080952Y-106306819D01*
X166319047Y-105259200D02*
X166557142Y-105973485D01*
X166557142Y-105973485D02*
X165938095Y-105973485D01*
X165033333Y-106306819D02*
X165604761Y-106306819D01*
X165319047Y-106306819D02*
X165319047Y-105306819D01*
X165319047Y-105306819D02*
X165414285Y-105449676D01*
X165414285Y-105449676D02*
X165509523Y-105544914D01*
X165509523Y-105544914D02*
X165604761Y-105592533D01*
X164128571Y-105306819D02*
X164604761Y-105306819D01*
X164604761Y-105306819D02*
X164652380Y-105783009D01*
X164652380Y-105783009D02*
X164604761Y-105735390D01*
X164604761Y-105735390D02*
X164509523Y-105687771D01*
X164509523Y-105687771D02*
X164271428Y-105687771D01*
X164271428Y-105687771D02*
X164176190Y-105735390D01*
X164176190Y-105735390D02*
X164128571Y-105783009D01*
X164128571Y-105783009D02*
X164080952Y-105878247D01*
X164080952Y-105878247D02*
X164080952Y-106116342D01*
X164080952Y-106116342D02*
X164128571Y-106211580D01*
X164128571Y-106211580D02*
X164176190Y-106259200D01*
X164176190Y-106259200D02*
X164271428Y-106306819D01*
X164271428Y-106306819D02*
X164509523Y-106306819D01*
X164509523Y-106306819D02*
X164604761Y-106259200D01*
X164604761Y-106259200D02*
X164652380Y-106211580D01*
X176214285Y-88206819D02*
X175642857Y-88206819D01*
X175928571Y-89206819D02*
X175928571Y-88206819D01*
X175309523Y-89206819D02*
X175309523Y-88206819D01*
X175309523Y-88206819D02*
X174928571Y-88206819D01*
X174928571Y-88206819D02*
X174833333Y-88254438D01*
X174833333Y-88254438D02*
X174785714Y-88302057D01*
X174785714Y-88302057D02*
X174738095Y-88397295D01*
X174738095Y-88397295D02*
X174738095Y-88540152D01*
X174738095Y-88540152D02*
X174785714Y-88635390D01*
X174785714Y-88635390D02*
X174833333Y-88683009D01*
X174833333Y-88683009D02*
X174928571Y-88730628D01*
X174928571Y-88730628D02*
X175309523Y-88730628D01*
X173833333Y-88206819D02*
X174309523Y-88206819D01*
X174309523Y-88206819D02*
X174357142Y-88683009D01*
X174357142Y-88683009D02*
X174309523Y-88635390D01*
X174309523Y-88635390D02*
X174214285Y-88587771D01*
X174214285Y-88587771D02*
X173976190Y-88587771D01*
X173976190Y-88587771D02*
X173880952Y-88635390D01*
X173880952Y-88635390D02*
X173833333Y-88683009D01*
X173833333Y-88683009D02*
X173785714Y-88778247D01*
X173785714Y-88778247D02*
X173785714Y-89016342D01*
X173785714Y-89016342D02*
X173833333Y-89111580D01*
X173833333Y-89111580D02*
X173880952Y-89159200D01*
X173880952Y-89159200D02*
X173976190Y-89206819D01*
X173976190Y-89206819D02*
X174214285Y-89206819D01*
X174214285Y-89206819D02*
X174309523Y-89159200D01*
X174309523Y-89159200D02*
X174357142Y-89111580D01*
X173166666Y-88206819D02*
X173071428Y-88206819D01*
X173071428Y-88206819D02*
X172976190Y-88254438D01*
X172976190Y-88254438D02*
X172928571Y-88302057D01*
X172928571Y-88302057D02*
X172880952Y-88397295D01*
X172880952Y-88397295D02*
X172833333Y-88587771D01*
X172833333Y-88587771D02*
X172833333Y-88825866D01*
X172833333Y-88825866D02*
X172880952Y-89016342D01*
X172880952Y-89016342D02*
X172928571Y-89111580D01*
X172928571Y-89111580D02*
X172976190Y-89159200D01*
X172976190Y-89159200D02*
X173071428Y-89206819D01*
X173071428Y-89206819D02*
X173166666Y-89206819D01*
X173166666Y-89206819D02*
X173261904Y-89159200D01*
X173261904Y-89159200D02*
X173309523Y-89111580D01*
X173309523Y-89111580D02*
X173357142Y-89016342D01*
X173357142Y-89016342D02*
X173404761Y-88825866D01*
X173404761Y-88825866D02*
X173404761Y-88587771D01*
X173404761Y-88587771D02*
X173357142Y-88397295D01*
X173357142Y-88397295D02*
X173309523Y-88302057D01*
X173309523Y-88302057D02*
X173261904Y-88254438D01*
X173261904Y-88254438D02*
X173166666Y-88206819D01*
X172357142Y-89206819D02*
X172166666Y-89206819D01*
X172166666Y-89206819D02*
X172071428Y-89159200D01*
X172071428Y-89159200D02*
X172023809Y-89111580D01*
X172023809Y-89111580D02*
X171928571Y-88968723D01*
X171928571Y-88968723D02*
X171880952Y-88778247D01*
X171880952Y-88778247D02*
X171880952Y-88397295D01*
X171880952Y-88397295D02*
X171928571Y-88302057D01*
X171928571Y-88302057D02*
X171976190Y-88254438D01*
X171976190Y-88254438D02*
X172071428Y-88206819D01*
X172071428Y-88206819D02*
X172261904Y-88206819D01*
X172261904Y-88206819D02*
X172357142Y-88254438D01*
X172357142Y-88254438D02*
X172404761Y-88302057D01*
X172404761Y-88302057D02*
X172452380Y-88397295D01*
X172452380Y-88397295D02*
X172452380Y-88635390D01*
X172452380Y-88635390D02*
X172404761Y-88730628D01*
X172404761Y-88730628D02*
X172357142Y-88778247D01*
X172357142Y-88778247D02*
X172261904Y-88825866D01*
X172261904Y-88825866D02*
X172071428Y-88825866D01*
X172071428Y-88825866D02*
X171976190Y-88778247D01*
X171976190Y-88778247D02*
X171928571Y-88730628D01*
X171928571Y-88730628D02*
X171880952Y-88635390D01*
X144274285Y-116456819D02*
X143702857Y-116456819D01*
X143988571Y-117456819D02*
X143988571Y-116456819D01*
X143369523Y-117456819D02*
X143369523Y-116456819D01*
X143369523Y-116456819D02*
X142988571Y-116456819D01*
X142988571Y-116456819D02*
X142893333Y-116504438D01*
X142893333Y-116504438D02*
X142845714Y-116552057D01*
X142845714Y-116552057D02*
X142798095Y-116647295D01*
X142798095Y-116647295D02*
X142798095Y-116790152D01*
X142798095Y-116790152D02*
X142845714Y-116885390D01*
X142845714Y-116885390D02*
X142893333Y-116933009D01*
X142893333Y-116933009D02*
X142988571Y-116980628D01*
X142988571Y-116980628D02*
X143369523Y-116980628D01*
X141940952Y-116790152D02*
X141940952Y-117456819D01*
X142179047Y-116409200D02*
X142417142Y-117123485D01*
X142417142Y-117123485D02*
X141798095Y-117123485D01*
X141226666Y-116456819D02*
X141131428Y-116456819D01*
X141131428Y-116456819D02*
X141036190Y-116504438D01*
X141036190Y-116504438D02*
X140988571Y-116552057D01*
X140988571Y-116552057D02*
X140940952Y-116647295D01*
X140940952Y-116647295D02*
X140893333Y-116837771D01*
X140893333Y-116837771D02*
X140893333Y-117075866D01*
X140893333Y-117075866D02*
X140940952Y-117266342D01*
X140940952Y-117266342D02*
X140988571Y-117361580D01*
X140988571Y-117361580D02*
X141036190Y-117409200D01*
X141036190Y-117409200D02*
X141131428Y-117456819D01*
X141131428Y-117456819D02*
X141226666Y-117456819D01*
X141226666Y-117456819D02*
X141321904Y-117409200D01*
X141321904Y-117409200D02*
X141369523Y-117361580D01*
X141369523Y-117361580D02*
X141417142Y-117266342D01*
X141417142Y-117266342D02*
X141464761Y-117075866D01*
X141464761Y-117075866D02*
X141464761Y-116837771D01*
X141464761Y-116837771D02*
X141417142Y-116647295D01*
X141417142Y-116647295D02*
X141369523Y-116552057D01*
X141369523Y-116552057D02*
X141321904Y-116504438D01*
X141321904Y-116504438D02*
X141226666Y-116456819D01*
X140559999Y-116456819D02*
X139893333Y-116456819D01*
X139893333Y-116456819D02*
X140321904Y-117456819D01*
X166714285Y-107106819D02*
X166142857Y-107106819D01*
X166428571Y-108106819D02*
X166428571Y-107106819D01*
X165809523Y-108106819D02*
X165809523Y-107106819D01*
X165809523Y-107106819D02*
X165428571Y-107106819D01*
X165428571Y-107106819D02*
X165333333Y-107154438D01*
X165333333Y-107154438D02*
X165285714Y-107202057D01*
X165285714Y-107202057D02*
X165238095Y-107297295D01*
X165238095Y-107297295D02*
X165238095Y-107440152D01*
X165238095Y-107440152D02*
X165285714Y-107535390D01*
X165285714Y-107535390D02*
X165333333Y-107583009D01*
X165333333Y-107583009D02*
X165428571Y-107630628D01*
X165428571Y-107630628D02*
X165809523Y-107630628D01*
X164380952Y-107440152D02*
X164380952Y-108106819D01*
X164619047Y-107059200D02*
X164857142Y-107773485D01*
X164857142Y-107773485D02*
X164238095Y-107773485D01*
X163333333Y-108106819D02*
X163904761Y-108106819D01*
X163619047Y-108106819D02*
X163619047Y-107106819D01*
X163619047Y-107106819D02*
X163714285Y-107249676D01*
X163714285Y-107249676D02*
X163809523Y-107344914D01*
X163809523Y-107344914D02*
X163904761Y-107392533D01*
X162999999Y-107106819D02*
X162333333Y-107106819D01*
X162333333Y-107106819D02*
X162761904Y-108106819D01*
X173214285Y-82906819D02*
X172642857Y-82906819D01*
X172928571Y-83906819D02*
X172928571Y-82906819D01*
X172309523Y-83906819D02*
X172309523Y-82906819D01*
X172309523Y-82906819D02*
X171928571Y-82906819D01*
X171928571Y-82906819D02*
X171833333Y-82954438D01*
X171833333Y-82954438D02*
X171785714Y-83002057D01*
X171785714Y-83002057D02*
X171738095Y-83097295D01*
X171738095Y-83097295D02*
X171738095Y-83240152D01*
X171738095Y-83240152D02*
X171785714Y-83335390D01*
X171785714Y-83335390D02*
X171833333Y-83383009D01*
X171833333Y-83383009D02*
X171928571Y-83430628D01*
X171928571Y-83430628D02*
X172309523Y-83430628D01*
X170833333Y-82906819D02*
X171309523Y-82906819D01*
X171309523Y-82906819D02*
X171357142Y-83383009D01*
X171357142Y-83383009D02*
X171309523Y-83335390D01*
X171309523Y-83335390D02*
X171214285Y-83287771D01*
X171214285Y-83287771D02*
X170976190Y-83287771D01*
X170976190Y-83287771D02*
X170880952Y-83335390D01*
X170880952Y-83335390D02*
X170833333Y-83383009D01*
X170833333Y-83383009D02*
X170785714Y-83478247D01*
X170785714Y-83478247D02*
X170785714Y-83716342D01*
X170785714Y-83716342D02*
X170833333Y-83811580D01*
X170833333Y-83811580D02*
X170880952Y-83859200D01*
X170880952Y-83859200D02*
X170976190Y-83906819D01*
X170976190Y-83906819D02*
X171214285Y-83906819D01*
X171214285Y-83906819D02*
X171309523Y-83859200D01*
X171309523Y-83859200D02*
X171357142Y-83811580D01*
X169833333Y-83906819D02*
X170404761Y-83906819D01*
X170119047Y-83906819D02*
X170119047Y-82906819D01*
X170119047Y-82906819D02*
X170214285Y-83049676D01*
X170214285Y-83049676D02*
X170309523Y-83144914D01*
X170309523Y-83144914D02*
X170404761Y-83192533D01*
X168928571Y-82906819D02*
X169404761Y-82906819D01*
X169404761Y-82906819D02*
X169452380Y-83383009D01*
X169452380Y-83383009D02*
X169404761Y-83335390D01*
X169404761Y-83335390D02*
X169309523Y-83287771D01*
X169309523Y-83287771D02*
X169071428Y-83287771D01*
X169071428Y-83287771D02*
X168976190Y-83335390D01*
X168976190Y-83335390D02*
X168928571Y-83383009D01*
X168928571Y-83383009D02*
X168880952Y-83478247D01*
X168880952Y-83478247D02*
X168880952Y-83716342D01*
X168880952Y-83716342D02*
X168928571Y-83811580D01*
X168928571Y-83811580D02*
X168976190Y-83859200D01*
X168976190Y-83859200D02*
X169071428Y-83906819D01*
X169071428Y-83906819D02*
X169309523Y-83906819D01*
X169309523Y-83906819D02*
X169404761Y-83859200D01*
X169404761Y-83859200D02*
X169452380Y-83811580D01*
X163414285Y-71606819D02*
X162842857Y-71606819D01*
X163128571Y-72606819D02*
X163128571Y-71606819D01*
X162509523Y-72606819D02*
X162509523Y-71606819D01*
X162509523Y-71606819D02*
X162128571Y-71606819D01*
X162128571Y-71606819D02*
X162033333Y-71654438D01*
X162033333Y-71654438D02*
X161985714Y-71702057D01*
X161985714Y-71702057D02*
X161938095Y-71797295D01*
X161938095Y-71797295D02*
X161938095Y-71940152D01*
X161938095Y-71940152D02*
X161985714Y-72035390D01*
X161985714Y-72035390D02*
X162033333Y-72083009D01*
X162033333Y-72083009D02*
X162128571Y-72130628D01*
X162128571Y-72130628D02*
X162509523Y-72130628D01*
X161033333Y-71606819D02*
X161509523Y-71606819D01*
X161509523Y-71606819D02*
X161557142Y-72083009D01*
X161557142Y-72083009D02*
X161509523Y-72035390D01*
X161509523Y-72035390D02*
X161414285Y-71987771D01*
X161414285Y-71987771D02*
X161176190Y-71987771D01*
X161176190Y-71987771D02*
X161080952Y-72035390D01*
X161080952Y-72035390D02*
X161033333Y-72083009D01*
X161033333Y-72083009D02*
X160985714Y-72178247D01*
X160985714Y-72178247D02*
X160985714Y-72416342D01*
X160985714Y-72416342D02*
X161033333Y-72511580D01*
X161033333Y-72511580D02*
X161080952Y-72559200D01*
X161080952Y-72559200D02*
X161176190Y-72606819D01*
X161176190Y-72606819D02*
X161414285Y-72606819D01*
X161414285Y-72606819D02*
X161509523Y-72559200D01*
X161509523Y-72559200D02*
X161557142Y-72511580D01*
X160366666Y-71606819D02*
X160271428Y-71606819D01*
X160271428Y-71606819D02*
X160176190Y-71654438D01*
X160176190Y-71654438D02*
X160128571Y-71702057D01*
X160128571Y-71702057D02*
X160080952Y-71797295D01*
X160080952Y-71797295D02*
X160033333Y-71987771D01*
X160033333Y-71987771D02*
X160033333Y-72225866D01*
X160033333Y-72225866D02*
X160080952Y-72416342D01*
X160080952Y-72416342D02*
X160128571Y-72511580D01*
X160128571Y-72511580D02*
X160176190Y-72559200D01*
X160176190Y-72559200D02*
X160271428Y-72606819D01*
X160271428Y-72606819D02*
X160366666Y-72606819D01*
X160366666Y-72606819D02*
X160461904Y-72559200D01*
X160461904Y-72559200D02*
X160509523Y-72511580D01*
X160509523Y-72511580D02*
X160557142Y-72416342D01*
X160557142Y-72416342D02*
X160604761Y-72225866D01*
X160604761Y-72225866D02*
X160604761Y-71987771D01*
X160604761Y-71987771D02*
X160557142Y-71797295D01*
X160557142Y-71797295D02*
X160509523Y-71702057D01*
X160509523Y-71702057D02*
X160461904Y-71654438D01*
X160461904Y-71654438D02*
X160366666Y-71606819D01*
X159461904Y-72035390D02*
X159557142Y-71987771D01*
X159557142Y-71987771D02*
X159604761Y-71940152D01*
X159604761Y-71940152D02*
X159652380Y-71844914D01*
X159652380Y-71844914D02*
X159652380Y-71797295D01*
X159652380Y-71797295D02*
X159604761Y-71702057D01*
X159604761Y-71702057D02*
X159557142Y-71654438D01*
X159557142Y-71654438D02*
X159461904Y-71606819D01*
X159461904Y-71606819D02*
X159271428Y-71606819D01*
X159271428Y-71606819D02*
X159176190Y-71654438D01*
X159176190Y-71654438D02*
X159128571Y-71702057D01*
X159128571Y-71702057D02*
X159080952Y-71797295D01*
X159080952Y-71797295D02*
X159080952Y-71844914D01*
X159080952Y-71844914D02*
X159128571Y-71940152D01*
X159128571Y-71940152D02*
X159176190Y-71987771D01*
X159176190Y-71987771D02*
X159271428Y-72035390D01*
X159271428Y-72035390D02*
X159461904Y-72035390D01*
X159461904Y-72035390D02*
X159557142Y-72083009D01*
X159557142Y-72083009D02*
X159604761Y-72130628D01*
X159604761Y-72130628D02*
X159652380Y-72225866D01*
X159652380Y-72225866D02*
X159652380Y-72416342D01*
X159652380Y-72416342D02*
X159604761Y-72511580D01*
X159604761Y-72511580D02*
X159557142Y-72559200D01*
X159557142Y-72559200D02*
X159461904Y-72606819D01*
X159461904Y-72606819D02*
X159271428Y-72606819D01*
X159271428Y-72606819D02*
X159176190Y-72559200D01*
X159176190Y-72559200D02*
X159128571Y-72511580D01*
X159128571Y-72511580D02*
X159080952Y-72416342D01*
X159080952Y-72416342D02*
X159080952Y-72225866D01*
X159080952Y-72225866D02*
X159128571Y-72130628D01*
X159128571Y-72130628D02*
X159176190Y-72083009D01*
X159176190Y-72083009D02*
X159271428Y-72035390D01*
X142614285Y-117906819D02*
X142042857Y-117906819D01*
X142328571Y-118906819D02*
X142328571Y-117906819D01*
X141709523Y-118906819D02*
X141709523Y-117906819D01*
X141709523Y-117906819D02*
X141328571Y-117906819D01*
X141328571Y-117906819D02*
X141233333Y-117954438D01*
X141233333Y-117954438D02*
X141185714Y-118002057D01*
X141185714Y-118002057D02*
X141138095Y-118097295D01*
X141138095Y-118097295D02*
X141138095Y-118240152D01*
X141138095Y-118240152D02*
X141185714Y-118335390D01*
X141185714Y-118335390D02*
X141233333Y-118383009D01*
X141233333Y-118383009D02*
X141328571Y-118430628D01*
X141328571Y-118430628D02*
X141709523Y-118430628D01*
X140280952Y-118240152D02*
X140280952Y-118906819D01*
X140519047Y-117859200D02*
X140757142Y-118573485D01*
X140757142Y-118573485D02*
X140138095Y-118573485D01*
X139566666Y-117906819D02*
X139471428Y-117906819D01*
X139471428Y-117906819D02*
X139376190Y-117954438D01*
X139376190Y-117954438D02*
X139328571Y-118002057D01*
X139328571Y-118002057D02*
X139280952Y-118097295D01*
X139280952Y-118097295D02*
X139233333Y-118287771D01*
X139233333Y-118287771D02*
X139233333Y-118525866D01*
X139233333Y-118525866D02*
X139280952Y-118716342D01*
X139280952Y-118716342D02*
X139328571Y-118811580D01*
X139328571Y-118811580D02*
X139376190Y-118859200D01*
X139376190Y-118859200D02*
X139471428Y-118906819D01*
X139471428Y-118906819D02*
X139566666Y-118906819D01*
X139566666Y-118906819D02*
X139661904Y-118859200D01*
X139661904Y-118859200D02*
X139709523Y-118811580D01*
X139709523Y-118811580D02*
X139757142Y-118716342D01*
X139757142Y-118716342D02*
X139804761Y-118525866D01*
X139804761Y-118525866D02*
X139804761Y-118287771D01*
X139804761Y-118287771D02*
X139757142Y-118097295D01*
X139757142Y-118097295D02*
X139709523Y-118002057D01*
X139709523Y-118002057D02*
X139661904Y-117954438D01*
X139661904Y-117954438D02*
X139566666Y-117906819D01*
X138376190Y-117906819D02*
X138566666Y-117906819D01*
X138566666Y-117906819D02*
X138661904Y-117954438D01*
X138661904Y-117954438D02*
X138709523Y-118002057D01*
X138709523Y-118002057D02*
X138804761Y-118144914D01*
X138804761Y-118144914D02*
X138852380Y-118335390D01*
X138852380Y-118335390D02*
X138852380Y-118716342D01*
X138852380Y-118716342D02*
X138804761Y-118811580D01*
X138804761Y-118811580D02*
X138757142Y-118859200D01*
X138757142Y-118859200D02*
X138661904Y-118906819D01*
X138661904Y-118906819D02*
X138471428Y-118906819D01*
X138471428Y-118906819D02*
X138376190Y-118859200D01*
X138376190Y-118859200D02*
X138328571Y-118811580D01*
X138328571Y-118811580D02*
X138280952Y-118716342D01*
X138280952Y-118716342D02*
X138280952Y-118478247D01*
X138280952Y-118478247D02*
X138328571Y-118383009D01*
X138328571Y-118383009D02*
X138376190Y-118335390D01*
X138376190Y-118335390D02*
X138471428Y-118287771D01*
X138471428Y-118287771D02*
X138661904Y-118287771D01*
X138661904Y-118287771D02*
X138757142Y-118335390D01*
X138757142Y-118335390D02*
X138804761Y-118383009D01*
X138804761Y-118383009D02*
X138852380Y-118478247D01*
X165214285Y-72606819D02*
X164642857Y-72606819D01*
X164928571Y-73606819D02*
X164928571Y-72606819D01*
X164309523Y-73606819D02*
X164309523Y-72606819D01*
X164309523Y-72606819D02*
X163928571Y-72606819D01*
X163928571Y-72606819D02*
X163833333Y-72654438D01*
X163833333Y-72654438D02*
X163785714Y-72702057D01*
X163785714Y-72702057D02*
X163738095Y-72797295D01*
X163738095Y-72797295D02*
X163738095Y-72940152D01*
X163738095Y-72940152D02*
X163785714Y-73035390D01*
X163785714Y-73035390D02*
X163833333Y-73083009D01*
X163833333Y-73083009D02*
X163928571Y-73130628D01*
X163928571Y-73130628D02*
X164309523Y-73130628D01*
X162833333Y-72606819D02*
X163309523Y-72606819D01*
X163309523Y-72606819D02*
X163357142Y-73083009D01*
X163357142Y-73083009D02*
X163309523Y-73035390D01*
X163309523Y-73035390D02*
X163214285Y-72987771D01*
X163214285Y-72987771D02*
X162976190Y-72987771D01*
X162976190Y-72987771D02*
X162880952Y-73035390D01*
X162880952Y-73035390D02*
X162833333Y-73083009D01*
X162833333Y-73083009D02*
X162785714Y-73178247D01*
X162785714Y-73178247D02*
X162785714Y-73416342D01*
X162785714Y-73416342D02*
X162833333Y-73511580D01*
X162833333Y-73511580D02*
X162880952Y-73559200D01*
X162880952Y-73559200D02*
X162976190Y-73606819D01*
X162976190Y-73606819D02*
X163214285Y-73606819D01*
X163214285Y-73606819D02*
X163309523Y-73559200D01*
X163309523Y-73559200D02*
X163357142Y-73511580D01*
X162166666Y-72606819D02*
X162071428Y-72606819D01*
X162071428Y-72606819D02*
X161976190Y-72654438D01*
X161976190Y-72654438D02*
X161928571Y-72702057D01*
X161928571Y-72702057D02*
X161880952Y-72797295D01*
X161880952Y-72797295D02*
X161833333Y-72987771D01*
X161833333Y-72987771D02*
X161833333Y-73225866D01*
X161833333Y-73225866D02*
X161880952Y-73416342D01*
X161880952Y-73416342D02*
X161928571Y-73511580D01*
X161928571Y-73511580D02*
X161976190Y-73559200D01*
X161976190Y-73559200D02*
X162071428Y-73606819D01*
X162071428Y-73606819D02*
X162166666Y-73606819D01*
X162166666Y-73606819D02*
X162261904Y-73559200D01*
X162261904Y-73559200D02*
X162309523Y-73511580D01*
X162309523Y-73511580D02*
X162357142Y-73416342D01*
X162357142Y-73416342D02*
X162404761Y-73225866D01*
X162404761Y-73225866D02*
X162404761Y-72987771D01*
X162404761Y-72987771D02*
X162357142Y-72797295D01*
X162357142Y-72797295D02*
X162309523Y-72702057D01*
X162309523Y-72702057D02*
X162261904Y-72654438D01*
X162261904Y-72654438D02*
X162166666Y-72606819D01*
X160976190Y-72606819D02*
X161166666Y-72606819D01*
X161166666Y-72606819D02*
X161261904Y-72654438D01*
X161261904Y-72654438D02*
X161309523Y-72702057D01*
X161309523Y-72702057D02*
X161404761Y-72844914D01*
X161404761Y-72844914D02*
X161452380Y-73035390D01*
X161452380Y-73035390D02*
X161452380Y-73416342D01*
X161452380Y-73416342D02*
X161404761Y-73511580D01*
X161404761Y-73511580D02*
X161357142Y-73559200D01*
X161357142Y-73559200D02*
X161261904Y-73606819D01*
X161261904Y-73606819D02*
X161071428Y-73606819D01*
X161071428Y-73606819D02*
X160976190Y-73559200D01*
X160976190Y-73559200D02*
X160928571Y-73511580D01*
X160928571Y-73511580D02*
X160880952Y-73416342D01*
X160880952Y-73416342D02*
X160880952Y-73178247D01*
X160880952Y-73178247D02*
X160928571Y-73083009D01*
X160928571Y-73083009D02*
X160976190Y-73035390D01*
X160976190Y-73035390D02*
X161071428Y-72987771D01*
X161071428Y-72987771D02*
X161261904Y-72987771D01*
X161261904Y-72987771D02*
X161357142Y-73035390D01*
X161357142Y-73035390D02*
X161404761Y-73083009D01*
X161404761Y-73083009D02*
X161452380Y-73178247D01*
X164714285Y-94306819D02*
X164142857Y-94306819D01*
X164428571Y-95306819D02*
X164428571Y-94306819D01*
X163809523Y-95306819D02*
X163809523Y-94306819D01*
X163809523Y-94306819D02*
X163428571Y-94306819D01*
X163428571Y-94306819D02*
X163333333Y-94354438D01*
X163333333Y-94354438D02*
X163285714Y-94402057D01*
X163285714Y-94402057D02*
X163238095Y-94497295D01*
X163238095Y-94497295D02*
X163238095Y-94640152D01*
X163238095Y-94640152D02*
X163285714Y-94735390D01*
X163285714Y-94735390D02*
X163333333Y-94783009D01*
X163333333Y-94783009D02*
X163428571Y-94830628D01*
X163428571Y-94830628D02*
X163809523Y-94830628D01*
X162904761Y-94306819D02*
X162285714Y-94306819D01*
X162285714Y-94306819D02*
X162619047Y-94687771D01*
X162619047Y-94687771D02*
X162476190Y-94687771D01*
X162476190Y-94687771D02*
X162380952Y-94735390D01*
X162380952Y-94735390D02*
X162333333Y-94783009D01*
X162333333Y-94783009D02*
X162285714Y-94878247D01*
X162285714Y-94878247D02*
X162285714Y-95116342D01*
X162285714Y-95116342D02*
X162333333Y-95211580D01*
X162333333Y-95211580D02*
X162380952Y-95259200D01*
X162380952Y-95259200D02*
X162476190Y-95306819D01*
X162476190Y-95306819D02*
X162761904Y-95306819D01*
X162761904Y-95306819D02*
X162857142Y-95259200D01*
X162857142Y-95259200D02*
X162904761Y-95211580D01*
X161666666Y-94306819D02*
X161571428Y-94306819D01*
X161571428Y-94306819D02*
X161476190Y-94354438D01*
X161476190Y-94354438D02*
X161428571Y-94402057D01*
X161428571Y-94402057D02*
X161380952Y-94497295D01*
X161380952Y-94497295D02*
X161333333Y-94687771D01*
X161333333Y-94687771D02*
X161333333Y-94925866D01*
X161333333Y-94925866D02*
X161380952Y-95116342D01*
X161380952Y-95116342D02*
X161428571Y-95211580D01*
X161428571Y-95211580D02*
X161476190Y-95259200D01*
X161476190Y-95259200D02*
X161571428Y-95306819D01*
X161571428Y-95306819D02*
X161666666Y-95306819D01*
X161666666Y-95306819D02*
X161761904Y-95259200D01*
X161761904Y-95259200D02*
X161809523Y-95211580D01*
X161809523Y-95211580D02*
X161857142Y-95116342D01*
X161857142Y-95116342D02*
X161904761Y-94925866D01*
X161904761Y-94925866D02*
X161904761Y-94687771D01*
X161904761Y-94687771D02*
X161857142Y-94497295D01*
X161857142Y-94497295D02*
X161809523Y-94402057D01*
X161809523Y-94402057D02*
X161761904Y-94354438D01*
X161761904Y-94354438D02*
X161666666Y-94306819D01*
X160476190Y-94640152D02*
X160476190Y-95306819D01*
X160714285Y-94259200D02*
X160952380Y-94973485D01*
X160952380Y-94973485D02*
X160333333Y-94973485D01*
X149664285Y-114806819D02*
X149092857Y-114806819D01*
X149378571Y-115806819D02*
X149378571Y-114806819D01*
X148759523Y-115806819D02*
X148759523Y-114806819D01*
X148759523Y-114806819D02*
X148378571Y-114806819D01*
X148378571Y-114806819D02*
X148283333Y-114854438D01*
X148283333Y-114854438D02*
X148235714Y-114902057D01*
X148235714Y-114902057D02*
X148188095Y-114997295D01*
X148188095Y-114997295D02*
X148188095Y-115140152D01*
X148188095Y-115140152D02*
X148235714Y-115235390D01*
X148235714Y-115235390D02*
X148283333Y-115283009D01*
X148283333Y-115283009D02*
X148378571Y-115330628D01*
X148378571Y-115330628D02*
X148759523Y-115330628D01*
X147330952Y-115140152D02*
X147330952Y-115806819D01*
X147569047Y-114759200D02*
X147807142Y-115473485D01*
X147807142Y-115473485D02*
X147188095Y-115473485D01*
X146283333Y-115806819D02*
X146854761Y-115806819D01*
X146569047Y-115806819D02*
X146569047Y-114806819D01*
X146569047Y-114806819D02*
X146664285Y-114949676D01*
X146664285Y-114949676D02*
X146759523Y-115044914D01*
X146759523Y-115044914D02*
X146854761Y-115092533D01*
X145949999Y-114806819D02*
X145330952Y-114806819D01*
X145330952Y-114806819D02*
X145664285Y-115187771D01*
X145664285Y-115187771D02*
X145521428Y-115187771D01*
X145521428Y-115187771D02*
X145426190Y-115235390D01*
X145426190Y-115235390D02*
X145378571Y-115283009D01*
X145378571Y-115283009D02*
X145330952Y-115378247D01*
X145330952Y-115378247D02*
X145330952Y-115616342D01*
X145330952Y-115616342D02*
X145378571Y-115711580D01*
X145378571Y-115711580D02*
X145426190Y-115759200D01*
X145426190Y-115759200D02*
X145521428Y-115806819D01*
X145521428Y-115806819D02*
X145807142Y-115806819D01*
X145807142Y-115806819D02*
X145902380Y-115759200D01*
X145902380Y-115759200D02*
X145949999Y-115711580D01*
X155314285Y-115756819D02*
X154742857Y-115756819D01*
X155028571Y-116756819D02*
X155028571Y-115756819D01*
X154409523Y-116756819D02*
X154409523Y-115756819D01*
X154409523Y-115756819D02*
X154028571Y-115756819D01*
X154028571Y-115756819D02*
X153933333Y-115804438D01*
X153933333Y-115804438D02*
X153885714Y-115852057D01*
X153885714Y-115852057D02*
X153838095Y-115947295D01*
X153838095Y-115947295D02*
X153838095Y-116090152D01*
X153838095Y-116090152D02*
X153885714Y-116185390D01*
X153885714Y-116185390D02*
X153933333Y-116233009D01*
X153933333Y-116233009D02*
X154028571Y-116280628D01*
X154028571Y-116280628D02*
X154409523Y-116280628D01*
X152980952Y-116090152D02*
X152980952Y-116756819D01*
X153219047Y-115709200D02*
X153457142Y-116423485D01*
X153457142Y-116423485D02*
X152838095Y-116423485D01*
X151933333Y-116756819D02*
X152504761Y-116756819D01*
X152219047Y-116756819D02*
X152219047Y-115756819D01*
X152219047Y-115756819D02*
X152314285Y-115899676D01*
X152314285Y-115899676D02*
X152409523Y-115994914D01*
X152409523Y-115994914D02*
X152504761Y-116042533D01*
X151314285Y-115756819D02*
X151219047Y-115756819D01*
X151219047Y-115756819D02*
X151123809Y-115804438D01*
X151123809Y-115804438D02*
X151076190Y-115852057D01*
X151076190Y-115852057D02*
X151028571Y-115947295D01*
X151028571Y-115947295D02*
X150980952Y-116137771D01*
X150980952Y-116137771D02*
X150980952Y-116375866D01*
X150980952Y-116375866D02*
X151028571Y-116566342D01*
X151028571Y-116566342D02*
X151076190Y-116661580D01*
X151076190Y-116661580D02*
X151123809Y-116709200D01*
X151123809Y-116709200D02*
X151219047Y-116756819D01*
X151219047Y-116756819D02*
X151314285Y-116756819D01*
X151314285Y-116756819D02*
X151409523Y-116709200D01*
X151409523Y-116709200D02*
X151457142Y-116661580D01*
X151457142Y-116661580D02*
X151504761Y-116566342D01*
X151504761Y-116566342D02*
X151552380Y-116375866D01*
X151552380Y-116375866D02*
X151552380Y-116137771D01*
X151552380Y-116137771D02*
X151504761Y-115947295D01*
X151504761Y-115947295D02*
X151457142Y-115852057D01*
X151457142Y-115852057D02*
X151409523Y-115804438D01*
X151409523Y-115804438D02*
X151314285Y-115756819D01*
X154014285Y-112706819D02*
X153442857Y-112706819D01*
X153728571Y-113706819D02*
X153728571Y-112706819D01*
X153109523Y-113706819D02*
X153109523Y-112706819D01*
X153109523Y-112706819D02*
X152728571Y-112706819D01*
X152728571Y-112706819D02*
X152633333Y-112754438D01*
X152633333Y-112754438D02*
X152585714Y-112802057D01*
X152585714Y-112802057D02*
X152538095Y-112897295D01*
X152538095Y-112897295D02*
X152538095Y-113040152D01*
X152538095Y-113040152D02*
X152585714Y-113135390D01*
X152585714Y-113135390D02*
X152633333Y-113183009D01*
X152633333Y-113183009D02*
X152728571Y-113230628D01*
X152728571Y-113230628D02*
X153109523Y-113230628D01*
X151680952Y-113040152D02*
X151680952Y-113706819D01*
X151919047Y-112659200D02*
X152157142Y-113373485D01*
X152157142Y-113373485D02*
X151538095Y-113373485D01*
X150633333Y-113706819D02*
X151204761Y-113706819D01*
X150919047Y-113706819D02*
X150919047Y-112706819D01*
X150919047Y-112706819D02*
X151014285Y-112849676D01*
X151014285Y-112849676D02*
X151109523Y-112944914D01*
X151109523Y-112944914D02*
X151204761Y-112992533D01*
X150252380Y-112802057D02*
X150204761Y-112754438D01*
X150204761Y-112754438D02*
X150109523Y-112706819D01*
X150109523Y-112706819D02*
X149871428Y-112706819D01*
X149871428Y-112706819D02*
X149776190Y-112754438D01*
X149776190Y-112754438D02*
X149728571Y-112802057D01*
X149728571Y-112802057D02*
X149680952Y-112897295D01*
X149680952Y-112897295D02*
X149680952Y-112992533D01*
X149680952Y-112992533D02*
X149728571Y-113135390D01*
X149728571Y-113135390D02*
X150299999Y-113706819D01*
X150299999Y-113706819D02*
X149680952Y-113706819D01*
X177414285Y-84106819D02*
X176842857Y-84106819D01*
X177128571Y-85106819D02*
X177128571Y-84106819D01*
X176509523Y-85106819D02*
X176509523Y-84106819D01*
X176509523Y-84106819D02*
X176128571Y-84106819D01*
X176128571Y-84106819D02*
X176033333Y-84154438D01*
X176033333Y-84154438D02*
X175985714Y-84202057D01*
X175985714Y-84202057D02*
X175938095Y-84297295D01*
X175938095Y-84297295D02*
X175938095Y-84440152D01*
X175938095Y-84440152D02*
X175985714Y-84535390D01*
X175985714Y-84535390D02*
X176033333Y-84583009D01*
X176033333Y-84583009D02*
X176128571Y-84630628D01*
X176128571Y-84630628D02*
X176509523Y-84630628D01*
X175033333Y-84106819D02*
X175509523Y-84106819D01*
X175509523Y-84106819D02*
X175557142Y-84583009D01*
X175557142Y-84583009D02*
X175509523Y-84535390D01*
X175509523Y-84535390D02*
X175414285Y-84487771D01*
X175414285Y-84487771D02*
X175176190Y-84487771D01*
X175176190Y-84487771D02*
X175080952Y-84535390D01*
X175080952Y-84535390D02*
X175033333Y-84583009D01*
X175033333Y-84583009D02*
X174985714Y-84678247D01*
X174985714Y-84678247D02*
X174985714Y-84916342D01*
X174985714Y-84916342D02*
X175033333Y-85011580D01*
X175033333Y-85011580D02*
X175080952Y-85059200D01*
X175080952Y-85059200D02*
X175176190Y-85106819D01*
X175176190Y-85106819D02*
X175414285Y-85106819D01*
X175414285Y-85106819D02*
X175509523Y-85059200D01*
X175509523Y-85059200D02*
X175557142Y-85011580D01*
X174033333Y-85106819D02*
X174604761Y-85106819D01*
X174319047Y-85106819D02*
X174319047Y-84106819D01*
X174319047Y-84106819D02*
X174414285Y-84249676D01*
X174414285Y-84249676D02*
X174509523Y-84344914D01*
X174509523Y-84344914D02*
X174604761Y-84392533D01*
X173652380Y-84202057D02*
X173604761Y-84154438D01*
X173604761Y-84154438D02*
X173509523Y-84106819D01*
X173509523Y-84106819D02*
X173271428Y-84106819D01*
X173271428Y-84106819D02*
X173176190Y-84154438D01*
X173176190Y-84154438D02*
X173128571Y-84202057D01*
X173128571Y-84202057D02*
X173080952Y-84297295D01*
X173080952Y-84297295D02*
X173080952Y-84392533D01*
X173080952Y-84392533D02*
X173128571Y-84535390D01*
X173128571Y-84535390D02*
X173699999Y-85106819D01*
X173699999Y-85106819D02*
X173080952Y-85106819D01*
X175114285Y-80706819D02*
X174542857Y-80706819D01*
X174828571Y-81706819D02*
X174828571Y-80706819D01*
X174209523Y-81706819D02*
X174209523Y-80706819D01*
X174209523Y-80706819D02*
X173828571Y-80706819D01*
X173828571Y-80706819D02*
X173733333Y-80754438D01*
X173733333Y-80754438D02*
X173685714Y-80802057D01*
X173685714Y-80802057D02*
X173638095Y-80897295D01*
X173638095Y-80897295D02*
X173638095Y-81040152D01*
X173638095Y-81040152D02*
X173685714Y-81135390D01*
X173685714Y-81135390D02*
X173733333Y-81183009D01*
X173733333Y-81183009D02*
X173828571Y-81230628D01*
X173828571Y-81230628D02*
X174209523Y-81230628D01*
X172733333Y-80706819D02*
X173209523Y-80706819D01*
X173209523Y-80706819D02*
X173257142Y-81183009D01*
X173257142Y-81183009D02*
X173209523Y-81135390D01*
X173209523Y-81135390D02*
X173114285Y-81087771D01*
X173114285Y-81087771D02*
X172876190Y-81087771D01*
X172876190Y-81087771D02*
X172780952Y-81135390D01*
X172780952Y-81135390D02*
X172733333Y-81183009D01*
X172733333Y-81183009D02*
X172685714Y-81278247D01*
X172685714Y-81278247D02*
X172685714Y-81516342D01*
X172685714Y-81516342D02*
X172733333Y-81611580D01*
X172733333Y-81611580D02*
X172780952Y-81659200D01*
X172780952Y-81659200D02*
X172876190Y-81706819D01*
X172876190Y-81706819D02*
X173114285Y-81706819D01*
X173114285Y-81706819D02*
X173209523Y-81659200D01*
X173209523Y-81659200D02*
X173257142Y-81611580D01*
X171733333Y-81706819D02*
X172304761Y-81706819D01*
X172019047Y-81706819D02*
X172019047Y-80706819D01*
X172019047Y-80706819D02*
X172114285Y-80849676D01*
X172114285Y-80849676D02*
X172209523Y-80944914D01*
X172209523Y-80944914D02*
X172304761Y-80992533D01*
X170876190Y-80706819D02*
X171066666Y-80706819D01*
X171066666Y-80706819D02*
X171161904Y-80754438D01*
X171161904Y-80754438D02*
X171209523Y-80802057D01*
X171209523Y-80802057D02*
X171304761Y-80944914D01*
X171304761Y-80944914D02*
X171352380Y-81135390D01*
X171352380Y-81135390D02*
X171352380Y-81516342D01*
X171352380Y-81516342D02*
X171304761Y-81611580D01*
X171304761Y-81611580D02*
X171257142Y-81659200D01*
X171257142Y-81659200D02*
X171161904Y-81706819D01*
X171161904Y-81706819D02*
X170971428Y-81706819D01*
X170971428Y-81706819D02*
X170876190Y-81659200D01*
X170876190Y-81659200D02*
X170828571Y-81611580D01*
X170828571Y-81611580D02*
X170780952Y-81516342D01*
X170780952Y-81516342D02*
X170780952Y-81278247D01*
X170780952Y-81278247D02*
X170828571Y-81183009D01*
X170828571Y-81183009D02*
X170876190Y-81135390D01*
X170876190Y-81135390D02*
X170971428Y-81087771D01*
X170971428Y-81087771D02*
X171161904Y-81087771D01*
X171161904Y-81087771D02*
X171257142Y-81135390D01*
X171257142Y-81135390D02*
X171304761Y-81183009D01*
X171304761Y-81183009D02*
X171352380Y-81278247D01*
X145914285Y-121706819D02*
X145342857Y-121706819D01*
X145628571Y-122706819D02*
X145628571Y-121706819D01*
X145009523Y-122706819D02*
X145009523Y-121706819D01*
X145009523Y-121706819D02*
X144628571Y-121706819D01*
X144628571Y-121706819D02*
X144533333Y-121754438D01*
X144533333Y-121754438D02*
X144485714Y-121802057D01*
X144485714Y-121802057D02*
X144438095Y-121897295D01*
X144438095Y-121897295D02*
X144438095Y-122040152D01*
X144438095Y-122040152D02*
X144485714Y-122135390D01*
X144485714Y-122135390D02*
X144533333Y-122183009D01*
X144533333Y-122183009D02*
X144628571Y-122230628D01*
X144628571Y-122230628D02*
X145009523Y-122230628D01*
X143580952Y-122040152D02*
X143580952Y-122706819D01*
X143819047Y-121659200D02*
X144057142Y-122373485D01*
X144057142Y-122373485D02*
X143438095Y-122373485D01*
X142866666Y-121706819D02*
X142771428Y-121706819D01*
X142771428Y-121706819D02*
X142676190Y-121754438D01*
X142676190Y-121754438D02*
X142628571Y-121802057D01*
X142628571Y-121802057D02*
X142580952Y-121897295D01*
X142580952Y-121897295D02*
X142533333Y-122087771D01*
X142533333Y-122087771D02*
X142533333Y-122325866D01*
X142533333Y-122325866D02*
X142580952Y-122516342D01*
X142580952Y-122516342D02*
X142628571Y-122611580D01*
X142628571Y-122611580D02*
X142676190Y-122659200D01*
X142676190Y-122659200D02*
X142771428Y-122706819D01*
X142771428Y-122706819D02*
X142866666Y-122706819D01*
X142866666Y-122706819D02*
X142961904Y-122659200D01*
X142961904Y-122659200D02*
X143009523Y-122611580D01*
X143009523Y-122611580D02*
X143057142Y-122516342D01*
X143057142Y-122516342D02*
X143104761Y-122325866D01*
X143104761Y-122325866D02*
X143104761Y-122087771D01*
X143104761Y-122087771D02*
X143057142Y-121897295D01*
X143057142Y-121897295D02*
X143009523Y-121802057D01*
X143009523Y-121802057D02*
X142961904Y-121754438D01*
X142961904Y-121754438D02*
X142866666Y-121706819D01*
X141676190Y-122040152D02*
X141676190Y-122706819D01*
X141914285Y-121659200D02*
X142152380Y-122373485D01*
X142152380Y-122373485D02*
X141533333Y-122373485D01*
X143090475Y-90306819D02*
X142519047Y-90306819D01*
X142804761Y-91306819D02*
X142804761Y-90306819D01*
X142185713Y-91306819D02*
X142185713Y-90306819D01*
X142185713Y-90306819D02*
X141804761Y-90306819D01*
X141804761Y-90306819D02*
X141709523Y-90354438D01*
X141709523Y-90354438D02*
X141661904Y-90402057D01*
X141661904Y-90402057D02*
X141614285Y-90497295D01*
X141614285Y-90497295D02*
X141614285Y-90640152D01*
X141614285Y-90640152D02*
X141661904Y-90735390D01*
X141661904Y-90735390D02*
X141709523Y-90783009D01*
X141709523Y-90783009D02*
X141804761Y-90830628D01*
X141804761Y-90830628D02*
X142185713Y-90830628D01*
X140661904Y-91306819D02*
X141233332Y-91306819D01*
X140947618Y-91306819D02*
X140947618Y-90306819D01*
X140947618Y-90306819D02*
X141042856Y-90449676D01*
X141042856Y-90449676D02*
X141138094Y-90544914D01*
X141138094Y-90544914D02*
X141233332Y-90592533D01*
X140042856Y-90306819D02*
X139947618Y-90306819D01*
X139947618Y-90306819D02*
X139852380Y-90354438D01*
X139852380Y-90354438D02*
X139804761Y-90402057D01*
X139804761Y-90402057D02*
X139757142Y-90497295D01*
X139757142Y-90497295D02*
X139709523Y-90687771D01*
X139709523Y-90687771D02*
X139709523Y-90925866D01*
X139709523Y-90925866D02*
X139757142Y-91116342D01*
X139757142Y-91116342D02*
X139804761Y-91211580D01*
X139804761Y-91211580D02*
X139852380Y-91259200D01*
X139852380Y-91259200D02*
X139947618Y-91306819D01*
X139947618Y-91306819D02*
X140042856Y-91306819D01*
X140042856Y-91306819D02*
X140138094Y-91259200D01*
X140138094Y-91259200D02*
X140185713Y-91211580D01*
X140185713Y-91211580D02*
X140233332Y-91116342D01*
X140233332Y-91116342D02*
X140280951Y-90925866D01*
X140280951Y-90925866D02*
X140280951Y-90687771D01*
X140280951Y-90687771D02*
X140233332Y-90497295D01*
X140233332Y-90497295D02*
X140185713Y-90402057D01*
X140185713Y-90402057D02*
X140138094Y-90354438D01*
X140138094Y-90354438D02*
X140042856Y-90306819D01*
X139090475Y-90306819D02*
X138995237Y-90306819D01*
X138995237Y-90306819D02*
X138899999Y-90354438D01*
X138899999Y-90354438D02*
X138852380Y-90402057D01*
X138852380Y-90402057D02*
X138804761Y-90497295D01*
X138804761Y-90497295D02*
X138757142Y-90687771D01*
X138757142Y-90687771D02*
X138757142Y-90925866D01*
X138757142Y-90925866D02*
X138804761Y-91116342D01*
X138804761Y-91116342D02*
X138852380Y-91211580D01*
X138852380Y-91211580D02*
X138899999Y-91259200D01*
X138899999Y-91259200D02*
X138995237Y-91306819D01*
X138995237Y-91306819D02*
X139090475Y-91306819D01*
X139090475Y-91306819D02*
X139185713Y-91259200D01*
X139185713Y-91259200D02*
X139233332Y-91211580D01*
X139233332Y-91211580D02*
X139280951Y-91116342D01*
X139280951Y-91116342D02*
X139328570Y-90925866D01*
X139328570Y-90925866D02*
X139328570Y-90687771D01*
X139328570Y-90687771D02*
X139280951Y-90497295D01*
X139280951Y-90497295D02*
X139233332Y-90402057D01*
X139233332Y-90402057D02*
X139185713Y-90354438D01*
X139185713Y-90354438D02*
X139090475Y-90306819D01*
X138423808Y-90306819D02*
X137804761Y-90306819D01*
X137804761Y-90306819D02*
X138138094Y-90687771D01*
X138138094Y-90687771D02*
X137995237Y-90687771D01*
X137995237Y-90687771D02*
X137899999Y-90735390D01*
X137899999Y-90735390D02*
X137852380Y-90783009D01*
X137852380Y-90783009D02*
X137804761Y-90878247D01*
X137804761Y-90878247D02*
X137804761Y-91116342D01*
X137804761Y-91116342D02*
X137852380Y-91211580D01*
X137852380Y-91211580D02*
X137899999Y-91259200D01*
X137899999Y-91259200D02*
X137995237Y-91306819D01*
X137995237Y-91306819D02*
X138280951Y-91306819D01*
X138280951Y-91306819D02*
X138376189Y-91259200D01*
X138376189Y-91259200D02*
X138423808Y-91211580D01*
X164614285Y-75406819D02*
X164042857Y-75406819D01*
X164328571Y-76406819D02*
X164328571Y-75406819D01*
X163709523Y-76406819D02*
X163709523Y-75406819D01*
X163709523Y-75406819D02*
X163328571Y-75406819D01*
X163328571Y-75406819D02*
X163233333Y-75454438D01*
X163233333Y-75454438D02*
X163185714Y-75502057D01*
X163185714Y-75502057D02*
X163138095Y-75597295D01*
X163138095Y-75597295D02*
X163138095Y-75740152D01*
X163138095Y-75740152D02*
X163185714Y-75835390D01*
X163185714Y-75835390D02*
X163233333Y-75883009D01*
X163233333Y-75883009D02*
X163328571Y-75930628D01*
X163328571Y-75930628D02*
X163709523Y-75930628D01*
X162233333Y-75406819D02*
X162709523Y-75406819D01*
X162709523Y-75406819D02*
X162757142Y-75883009D01*
X162757142Y-75883009D02*
X162709523Y-75835390D01*
X162709523Y-75835390D02*
X162614285Y-75787771D01*
X162614285Y-75787771D02*
X162376190Y-75787771D01*
X162376190Y-75787771D02*
X162280952Y-75835390D01*
X162280952Y-75835390D02*
X162233333Y-75883009D01*
X162233333Y-75883009D02*
X162185714Y-75978247D01*
X162185714Y-75978247D02*
X162185714Y-76216342D01*
X162185714Y-76216342D02*
X162233333Y-76311580D01*
X162233333Y-76311580D02*
X162280952Y-76359200D01*
X162280952Y-76359200D02*
X162376190Y-76406819D01*
X162376190Y-76406819D02*
X162614285Y-76406819D01*
X162614285Y-76406819D02*
X162709523Y-76359200D01*
X162709523Y-76359200D02*
X162757142Y-76311580D01*
X161566666Y-75406819D02*
X161471428Y-75406819D01*
X161471428Y-75406819D02*
X161376190Y-75454438D01*
X161376190Y-75454438D02*
X161328571Y-75502057D01*
X161328571Y-75502057D02*
X161280952Y-75597295D01*
X161280952Y-75597295D02*
X161233333Y-75787771D01*
X161233333Y-75787771D02*
X161233333Y-76025866D01*
X161233333Y-76025866D02*
X161280952Y-76216342D01*
X161280952Y-76216342D02*
X161328571Y-76311580D01*
X161328571Y-76311580D02*
X161376190Y-76359200D01*
X161376190Y-76359200D02*
X161471428Y-76406819D01*
X161471428Y-76406819D02*
X161566666Y-76406819D01*
X161566666Y-76406819D02*
X161661904Y-76359200D01*
X161661904Y-76359200D02*
X161709523Y-76311580D01*
X161709523Y-76311580D02*
X161757142Y-76216342D01*
X161757142Y-76216342D02*
X161804761Y-76025866D01*
X161804761Y-76025866D02*
X161804761Y-75787771D01*
X161804761Y-75787771D02*
X161757142Y-75597295D01*
X161757142Y-75597295D02*
X161709523Y-75502057D01*
X161709523Y-75502057D02*
X161661904Y-75454438D01*
X161661904Y-75454438D02*
X161566666Y-75406819D01*
X160328571Y-75406819D02*
X160804761Y-75406819D01*
X160804761Y-75406819D02*
X160852380Y-75883009D01*
X160852380Y-75883009D02*
X160804761Y-75835390D01*
X160804761Y-75835390D02*
X160709523Y-75787771D01*
X160709523Y-75787771D02*
X160471428Y-75787771D01*
X160471428Y-75787771D02*
X160376190Y-75835390D01*
X160376190Y-75835390D02*
X160328571Y-75883009D01*
X160328571Y-75883009D02*
X160280952Y-75978247D01*
X160280952Y-75978247D02*
X160280952Y-76216342D01*
X160280952Y-76216342D02*
X160328571Y-76311580D01*
X160328571Y-76311580D02*
X160376190Y-76359200D01*
X160376190Y-76359200D02*
X160471428Y-76406819D01*
X160471428Y-76406819D02*
X160709523Y-76406819D01*
X160709523Y-76406819D02*
X160804761Y-76359200D01*
X160804761Y-76359200D02*
X160852380Y-76311580D01*
X176314285Y-82406819D02*
X175742857Y-82406819D01*
X176028571Y-83406819D02*
X176028571Y-82406819D01*
X175409523Y-83406819D02*
X175409523Y-82406819D01*
X175409523Y-82406819D02*
X175028571Y-82406819D01*
X175028571Y-82406819D02*
X174933333Y-82454438D01*
X174933333Y-82454438D02*
X174885714Y-82502057D01*
X174885714Y-82502057D02*
X174838095Y-82597295D01*
X174838095Y-82597295D02*
X174838095Y-82740152D01*
X174838095Y-82740152D02*
X174885714Y-82835390D01*
X174885714Y-82835390D02*
X174933333Y-82883009D01*
X174933333Y-82883009D02*
X175028571Y-82930628D01*
X175028571Y-82930628D02*
X175409523Y-82930628D01*
X173933333Y-82406819D02*
X174409523Y-82406819D01*
X174409523Y-82406819D02*
X174457142Y-82883009D01*
X174457142Y-82883009D02*
X174409523Y-82835390D01*
X174409523Y-82835390D02*
X174314285Y-82787771D01*
X174314285Y-82787771D02*
X174076190Y-82787771D01*
X174076190Y-82787771D02*
X173980952Y-82835390D01*
X173980952Y-82835390D02*
X173933333Y-82883009D01*
X173933333Y-82883009D02*
X173885714Y-82978247D01*
X173885714Y-82978247D02*
X173885714Y-83216342D01*
X173885714Y-83216342D02*
X173933333Y-83311580D01*
X173933333Y-83311580D02*
X173980952Y-83359200D01*
X173980952Y-83359200D02*
X174076190Y-83406819D01*
X174076190Y-83406819D02*
X174314285Y-83406819D01*
X174314285Y-83406819D02*
X174409523Y-83359200D01*
X174409523Y-83359200D02*
X174457142Y-83311580D01*
X172933333Y-83406819D02*
X173504761Y-83406819D01*
X173219047Y-83406819D02*
X173219047Y-82406819D01*
X173219047Y-82406819D02*
X173314285Y-82549676D01*
X173314285Y-82549676D02*
X173409523Y-82644914D01*
X173409523Y-82644914D02*
X173504761Y-82692533D01*
X172076190Y-82740152D02*
X172076190Y-83406819D01*
X172314285Y-82359200D02*
X172552380Y-83073485D01*
X172552380Y-83073485D02*
X171933333Y-83073485D01*
X171114285Y-105206819D02*
X170542857Y-105206819D01*
X170828571Y-106206819D02*
X170828571Y-105206819D01*
X170209523Y-106206819D02*
X170209523Y-105206819D01*
X170209523Y-105206819D02*
X169828571Y-105206819D01*
X169828571Y-105206819D02*
X169733333Y-105254438D01*
X169733333Y-105254438D02*
X169685714Y-105302057D01*
X169685714Y-105302057D02*
X169638095Y-105397295D01*
X169638095Y-105397295D02*
X169638095Y-105540152D01*
X169638095Y-105540152D02*
X169685714Y-105635390D01*
X169685714Y-105635390D02*
X169733333Y-105683009D01*
X169733333Y-105683009D02*
X169828571Y-105730628D01*
X169828571Y-105730628D02*
X170209523Y-105730628D01*
X168780952Y-105540152D02*
X168780952Y-106206819D01*
X169019047Y-105159200D02*
X169257142Y-105873485D01*
X169257142Y-105873485D02*
X168638095Y-105873485D01*
X167733333Y-106206819D02*
X168304761Y-106206819D01*
X168019047Y-106206819D02*
X168019047Y-105206819D01*
X168019047Y-105206819D02*
X168114285Y-105349676D01*
X168114285Y-105349676D02*
X168209523Y-105444914D01*
X168209523Y-105444914D02*
X168304761Y-105492533D01*
X166876190Y-105540152D02*
X166876190Y-106206819D01*
X167114285Y-105159200D02*
X167352380Y-105873485D01*
X167352380Y-105873485D02*
X166733333Y-105873485D01*
X166914285Y-73706819D02*
X166342857Y-73706819D01*
X166628571Y-74706819D02*
X166628571Y-73706819D01*
X166009523Y-74706819D02*
X166009523Y-73706819D01*
X166009523Y-73706819D02*
X165628571Y-73706819D01*
X165628571Y-73706819D02*
X165533333Y-73754438D01*
X165533333Y-73754438D02*
X165485714Y-73802057D01*
X165485714Y-73802057D02*
X165438095Y-73897295D01*
X165438095Y-73897295D02*
X165438095Y-74040152D01*
X165438095Y-74040152D02*
X165485714Y-74135390D01*
X165485714Y-74135390D02*
X165533333Y-74183009D01*
X165533333Y-74183009D02*
X165628571Y-74230628D01*
X165628571Y-74230628D02*
X166009523Y-74230628D01*
X164533333Y-73706819D02*
X165009523Y-73706819D01*
X165009523Y-73706819D02*
X165057142Y-74183009D01*
X165057142Y-74183009D02*
X165009523Y-74135390D01*
X165009523Y-74135390D02*
X164914285Y-74087771D01*
X164914285Y-74087771D02*
X164676190Y-74087771D01*
X164676190Y-74087771D02*
X164580952Y-74135390D01*
X164580952Y-74135390D02*
X164533333Y-74183009D01*
X164533333Y-74183009D02*
X164485714Y-74278247D01*
X164485714Y-74278247D02*
X164485714Y-74516342D01*
X164485714Y-74516342D02*
X164533333Y-74611580D01*
X164533333Y-74611580D02*
X164580952Y-74659200D01*
X164580952Y-74659200D02*
X164676190Y-74706819D01*
X164676190Y-74706819D02*
X164914285Y-74706819D01*
X164914285Y-74706819D02*
X165009523Y-74659200D01*
X165009523Y-74659200D02*
X165057142Y-74611580D01*
X163866666Y-73706819D02*
X163771428Y-73706819D01*
X163771428Y-73706819D02*
X163676190Y-73754438D01*
X163676190Y-73754438D02*
X163628571Y-73802057D01*
X163628571Y-73802057D02*
X163580952Y-73897295D01*
X163580952Y-73897295D02*
X163533333Y-74087771D01*
X163533333Y-74087771D02*
X163533333Y-74325866D01*
X163533333Y-74325866D02*
X163580952Y-74516342D01*
X163580952Y-74516342D02*
X163628571Y-74611580D01*
X163628571Y-74611580D02*
X163676190Y-74659200D01*
X163676190Y-74659200D02*
X163771428Y-74706819D01*
X163771428Y-74706819D02*
X163866666Y-74706819D01*
X163866666Y-74706819D02*
X163961904Y-74659200D01*
X163961904Y-74659200D02*
X164009523Y-74611580D01*
X164009523Y-74611580D02*
X164057142Y-74516342D01*
X164057142Y-74516342D02*
X164104761Y-74325866D01*
X164104761Y-74325866D02*
X164104761Y-74087771D01*
X164104761Y-74087771D02*
X164057142Y-73897295D01*
X164057142Y-73897295D02*
X164009523Y-73802057D01*
X164009523Y-73802057D02*
X163961904Y-73754438D01*
X163961904Y-73754438D02*
X163866666Y-73706819D01*
X162676190Y-74040152D02*
X162676190Y-74706819D01*
X162914285Y-73659200D02*
X163152380Y-74373485D01*
X163152380Y-74373485D02*
X162533333Y-74373485D01*
X145590475Y-93506819D02*
X145019047Y-93506819D01*
X145304761Y-94506819D02*
X145304761Y-93506819D01*
X144685713Y-94506819D02*
X144685713Y-93506819D01*
X144685713Y-93506819D02*
X144304761Y-93506819D01*
X144304761Y-93506819D02*
X144209523Y-93554438D01*
X144209523Y-93554438D02*
X144161904Y-93602057D01*
X144161904Y-93602057D02*
X144114285Y-93697295D01*
X144114285Y-93697295D02*
X144114285Y-93840152D01*
X144114285Y-93840152D02*
X144161904Y-93935390D01*
X144161904Y-93935390D02*
X144209523Y-93983009D01*
X144209523Y-93983009D02*
X144304761Y-94030628D01*
X144304761Y-94030628D02*
X144685713Y-94030628D01*
X143161904Y-94506819D02*
X143733332Y-94506819D01*
X143447618Y-94506819D02*
X143447618Y-93506819D01*
X143447618Y-93506819D02*
X143542856Y-93649676D01*
X143542856Y-93649676D02*
X143638094Y-93744914D01*
X143638094Y-93744914D02*
X143733332Y-93792533D01*
X142542856Y-93506819D02*
X142447618Y-93506819D01*
X142447618Y-93506819D02*
X142352380Y-93554438D01*
X142352380Y-93554438D02*
X142304761Y-93602057D01*
X142304761Y-93602057D02*
X142257142Y-93697295D01*
X142257142Y-93697295D02*
X142209523Y-93887771D01*
X142209523Y-93887771D02*
X142209523Y-94125866D01*
X142209523Y-94125866D02*
X142257142Y-94316342D01*
X142257142Y-94316342D02*
X142304761Y-94411580D01*
X142304761Y-94411580D02*
X142352380Y-94459200D01*
X142352380Y-94459200D02*
X142447618Y-94506819D01*
X142447618Y-94506819D02*
X142542856Y-94506819D01*
X142542856Y-94506819D02*
X142638094Y-94459200D01*
X142638094Y-94459200D02*
X142685713Y-94411580D01*
X142685713Y-94411580D02*
X142733332Y-94316342D01*
X142733332Y-94316342D02*
X142780951Y-94125866D01*
X142780951Y-94125866D02*
X142780951Y-93887771D01*
X142780951Y-93887771D02*
X142733332Y-93697295D01*
X142733332Y-93697295D02*
X142685713Y-93602057D01*
X142685713Y-93602057D02*
X142638094Y-93554438D01*
X142638094Y-93554438D02*
X142542856Y-93506819D01*
X141590475Y-93506819D02*
X141495237Y-93506819D01*
X141495237Y-93506819D02*
X141399999Y-93554438D01*
X141399999Y-93554438D02*
X141352380Y-93602057D01*
X141352380Y-93602057D02*
X141304761Y-93697295D01*
X141304761Y-93697295D02*
X141257142Y-93887771D01*
X141257142Y-93887771D02*
X141257142Y-94125866D01*
X141257142Y-94125866D02*
X141304761Y-94316342D01*
X141304761Y-94316342D02*
X141352380Y-94411580D01*
X141352380Y-94411580D02*
X141399999Y-94459200D01*
X141399999Y-94459200D02*
X141495237Y-94506819D01*
X141495237Y-94506819D02*
X141590475Y-94506819D01*
X141590475Y-94506819D02*
X141685713Y-94459200D01*
X141685713Y-94459200D02*
X141733332Y-94411580D01*
X141733332Y-94411580D02*
X141780951Y-94316342D01*
X141780951Y-94316342D02*
X141828570Y-94125866D01*
X141828570Y-94125866D02*
X141828570Y-93887771D01*
X141828570Y-93887771D02*
X141780951Y-93697295D01*
X141780951Y-93697295D02*
X141733332Y-93602057D01*
X141733332Y-93602057D02*
X141685713Y-93554438D01*
X141685713Y-93554438D02*
X141590475Y-93506819D01*
X140876189Y-93602057D02*
X140828570Y-93554438D01*
X140828570Y-93554438D02*
X140733332Y-93506819D01*
X140733332Y-93506819D02*
X140495237Y-93506819D01*
X140495237Y-93506819D02*
X140399999Y-93554438D01*
X140399999Y-93554438D02*
X140352380Y-93602057D01*
X140352380Y-93602057D02*
X140304761Y-93697295D01*
X140304761Y-93697295D02*
X140304761Y-93792533D01*
X140304761Y-93792533D02*
X140352380Y-93935390D01*
X140352380Y-93935390D02*
X140923808Y-94506819D01*
X140923808Y-94506819D02*
X140304761Y-94506819D01*
X160814285Y-110756819D02*
X160242857Y-110756819D01*
X160528571Y-111756819D02*
X160528571Y-110756819D01*
X159909523Y-111756819D02*
X159909523Y-110756819D01*
X159909523Y-110756819D02*
X159528571Y-110756819D01*
X159528571Y-110756819D02*
X159433333Y-110804438D01*
X159433333Y-110804438D02*
X159385714Y-110852057D01*
X159385714Y-110852057D02*
X159338095Y-110947295D01*
X159338095Y-110947295D02*
X159338095Y-111090152D01*
X159338095Y-111090152D02*
X159385714Y-111185390D01*
X159385714Y-111185390D02*
X159433333Y-111233009D01*
X159433333Y-111233009D02*
X159528571Y-111280628D01*
X159528571Y-111280628D02*
X159909523Y-111280628D01*
X158480952Y-111090152D02*
X158480952Y-111756819D01*
X158719047Y-110709200D02*
X158957142Y-111423485D01*
X158957142Y-111423485D02*
X158338095Y-111423485D01*
X157433333Y-111756819D02*
X158004761Y-111756819D01*
X157719047Y-111756819D02*
X157719047Y-110756819D01*
X157719047Y-110756819D02*
X157814285Y-110899676D01*
X157814285Y-110899676D02*
X157909523Y-110994914D01*
X157909523Y-110994914D02*
X158004761Y-111042533D01*
X156861904Y-111185390D02*
X156957142Y-111137771D01*
X156957142Y-111137771D02*
X157004761Y-111090152D01*
X157004761Y-111090152D02*
X157052380Y-110994914D01*
X157052380Y-110994914D02*
X157052380Y-110947295D01*
X157052380Y-110947295D02*
X157004761Y-110852057D01*
X157004761Y-110852057D02*
X156957142Y-110804438D01*
X156957142Y-110804438D02*
X156861904Y-110756819D01*
X156861904Y-110756819D02*
X156671428Y-110756819D01*
X156671428Y-110756819D02*
X156576190Y-110804438D01*
X156576190Y-110804438D02*
X156528571Y-110852057D01*
X156528571Y-110852057D02*
X156480952Y-110947295D01*
X156480952Y-110947295D02*
X156480952Y-110994914D01*
X156480952Y-110994914D02*
X156528571Y-111090152D01*
X156528571Y-111090152D02*
X156576190Y-111137771D01*
X156576190Y-111137771D02*
X156671428Y-111185390D01*
X156671428Y-111185390D02*
X156861904Y-111185390D01*
X156861904Y-111185390D02*
X156957142Y-111233009D01*
X156957142Y-111233009D02*
X157004761Y-111280628D01*
X157004761Y-111280628D02*
X157052380Y-111375866D01*
X157052380Y-111375866D02*
X157052380Y-111566342D01*
X157052380Y-111566342D02*
X157004761Y-111661580D01*
X157004761Y-111661580D02*
X156957142Y-111709200D01*
X156957142Y-111709200D02*
X156861904Y-111756819D01*
X156861904Y-111756819D02*
X156671428Y-111756819D01*
X156671428Y-111756819D02*
X156576190Y-111709200D01*
X156576190Y-111709200D02*
X156528571Y-111661580D01*
X156528571Y-111661580D02*
X156480952Y-111566342D01*
X156480952Y-111566342D02*
X156480952Y-111375866D01*
X156480952Y-111375866D02*
X156528571Y-111280628D01*
X156528571Y-111280628D02*
X156576190Y-111233009D01*
X156576190Y-111233009D02*
X156671428Y-111185390D01*
X168714285Y-74606819D02*
X168142857Y-74606819D01*
X168428571Y-75606819D02*
X168428571Y-74606819D01*
X167809523Y-75606819D02*
X167809523Y-74606819D01*
X167809523Y-74606819D02*
X167428571Y-74606819D01*
X167428571Y-74606819D02*
X167333333Y-74654438D01*
X167333333Y-74654438D02*
X167285714Y-74702057D01*
X167285714Y-74702057D02*
X167238095Y-74797295D01*
X167238095Y-74797295D02*
X167238095Y-74940152D01*
X167238095Y-74940152D02*
X167285714Y-75035390D01*
X167285714Y-75035390D02*
X167333333Y-75083009D01*
X167333333Y-75083009D02*
X167428571Y-75130628D01*
X167428571Y-75130628D02*
X167809523Y-75130628D01*
X166333333Y-74606819D02*
X166809523Y-74606819D01*
X166809523Y-74606819D02*
X166857142Y-75083009D01*
X166857142Y-75083009D02*
X166809523Y-75035390D01*
X166809523Y-75035390D02*
X166714285Y-74987771D01*
X166714285Y-74987771D02*
X166476190Y-74987771D01*
X166476190Y-74987771D02*
X166380952Y-75035390D01*
X166380952Y-75035390D02*
X166333333Y-75083009D01*
X166333333Y-75083009D02*
X166285714Y-75178247D01*
X166285714Y-75178247D02*
X166285714Y-75416342D01*
X166285714Y-75416342D02*
X166333333Y-75511580D01*
X166333333Y-75511580D02*
X166380952Y-75559200D01*
X166380952Y-75559200D02*
X166476190Y-75606819D01*
X166476190Y-75606819D02*
X166714285Y-75606819D01*
X166714285Y-75606819D02*
X166809523Y-75559200D01*
X166809523Y-75559200D02*
X166857142Y-75511580D01*
X165666666Y-74606819D02*
X165571428Y-74606819D01*
X165571428Y-74606819D02*
X165476190Y-74654438D01*
X165476190Y-74654438D02*
X165428571Y-74702057D01*
X165428571Y-74702057D02*
X165380952Y-74797295D01*
X165380952Y-74797295D02*
X165333333Y-74987771D01*
X165333333Y-74987771D02*
X165333333Y-75225866D01*
X165333333Y-75225866D02*
X165380952Y-75416342D01*
X165380952Y-75416342D02*
X165428571Y-75511580D01*
X165428571Y-75511580D02*
X165476190Y-75559200D01*
X165476190Y-75559200D02*
X165571428Y-75606819D01*
X165571428Y-75606819D02*
X165666666Y-75606819D01*
X165666666Y-75606819D02*
X165761904Y-75559200D01*
X165761904Y-75559200D02*
X165809523Y-75511580D01*
X165809523Y-75511580D02*
X165857142Y-75416342D01*
X165857142Y-75416342D02*
X165904761Y-75225866D01*
X165904761Y-75225866D02*
X165904761Y-74987771D01*
X165904761Y-74987771D02*
X165857142Y-74797295D01*
X165857142Y-74797295D02*
X165809523Y-74702057D01*
X165809523Y-74702057D02*
X165761904Y-74654438D01*
X165761904Y-74654438D02*
X165666666Y-74606819D01*
X164952380Y-74702057D02*
X164904761Y-74654438D01*
X164904761Y-74654438D02*
X164809523Y-74606819D01*
X164809523Y-74606819D02*
X164571428Y-74606819D01*
X164571428Y-74606819D02*
X164476190Y-74654438D01*
X164476190Y-74654438D02*
X164428571Y-74702057D01*
X164428571Y-74702057D02*
X164380952Y-74797295D01*
X164380952Y-74797295D02*
X164380952Y-74892533D01*
X164380952Y-74892533D02*
X164428571Y-75035390D01*
X164428571Y-75035390D02*
X164999999Y-75606819D01*
X164999999Y-75606819D02*
X164380952Y-75606819D01*
X136214285Y-97006819D02*
X135642857Y-97006819D01*
X135928571Y-98006819D02*
X135928571Y-97006819D01*
X135309523Y-98006819D02*
X135309523Y-97006819D01*
X135309523Y-97006819D02*
X134928571Y-97006819D01*
X134928571Y-97006819D02*
X134833333Y-97054438D01*
X134833333Y-97054438D02*
X134785714Y-97102057D01*
X134785714Y-97102057D02*
X134738095Y-97197295D01*
X134738095Y-97197295D02*
X134738095Y-97340152D01*
X134738095Y-97340152D02*
X134785714Y-97435390D01*
X134785714Y-97435390D02*
X134833333Y-97483009D01*
X134833333Y-97483009D02*
X134928571Y-97530628D01*
X134928571Y-97530628D02*
X135309523Y-97530628D01*
X134404761Y-97006819D02*
X133785714Y-97006819D01*
X133785714Y-97006819D02*
X134119047Y-97387771D01*
X134119047Y-97387771D02*
X133976190Y-97387771D01*
X133976190Y-97387771D02*
X133880952Y-97435390D01*
X133880952Y-97435390D02*
X133833333Y-97483009D01*
X133833333Y-97483009D02*
X133785714Y-97578247D01*
X133785714Y-97578247D02*
X133785714Y-97816342D01*
X133785714Y-97816342D02*
X133833333Y-97911580D01*
X133833333Y-97911580D02*
X133880952Y-97959200D01*
X133880952Y-97959200D02*
X133976190Y-98006819D01*
X133976190Y-98006819D02*
X134261904Y-98006819D01*
X134261904Y-98006819D02*
X134357142Y-97959200D01*
X134357142Y-97959200D02*
X134404761Y-97911580D01*
X133166666Y-97006819D02*
X133071428Y-97006819D01*
X133071428Y-97006819D02*
X132976190Y-97054438D01*
X132976190Y-97054438D02*
X132928571Y-97102057D01*
X132928571Y-97102057D02*
X132880952Y-97197295D01*
X132880952Y-97197295D02*
X132833333Y-97387771D01*
X132833333Y-97387771D02*
X132833333Y-97625866D01*
X132833333Y-97625866D02*
X132880952Y-97816342D01*
X132880952Y-97816342D02*
X132928571Y-97911580D01*
X132928571Y-97911580D02*
X132976190Y-97959200D01*
X132976190Y-97959200D02*
X133071428Y-98006819D01*
X133071428Y-98006819D02*
X133166666Y-98006819D01*
X133166666Y-98006819D02*
X133261904Y-97959200D01*
X133261904Y-97959200D02*
X133309523Y-97911580D01*
X133309523Y-97911580D02*
X133357142Y-97816342D01*
X133357142Y-97816342D02*
X133404761Y-97625866D01*
X133404761Y-97625866D02*
X133404761Y-97387771D01*
X133404761Y-97387771D02*
X133357142Y-97197295D01*
X133357142Y-97197295D02*
X133309523Y-97102057D01*
X133309523Y-97102057D02*
X133261904Y-97054438D01*
X133261904Y-97054438D02*
X133166666Y-97006819D01*
X132452380Y-97102057D02*
X132404761Y-97054438D01*
X132404761Y-97054438D02*
X132309523Y-97006819D01*
X132309523Y-97006819D02*
X132071428Y-97006819D01*
X132071428Y-97006819D02*
X131976190Y-97054438D01*
X131976190Y-97054438D02*
X131928571Y-97102057D01*
X131928571Y-97102057D02*
X131880952Y-97197295D01*
X131880952Y-97197295D02*
X131880952Y-97292533D01*
X131880952Y-97292533D02*
X131928571Y-97435390D01*
X131928571Y-97435390D02*
X132499999Y-98006819D01*
X132499999Y-98006819D02*
X131880952Y-98006819D01*
X136501824Y-109422901D02*
X136006953Y-109137187D01*
X135754388Y-110146070D02*
X136254388Y-109280044D01*
X135218277Y-109836546D02*
X135718277Y-108970520D01*
X135718277Y-108970520D02*
X135388363Y-108780044D01*
X135388363Y-108780044D02*
X135282075Y-108773664D01*
X135282075Y-108773664D02*
X135217026Y-108791094D01*
X135217026Y-108791094D02*
X135128168Y-108849763D01*
X135128168Y-108849763D02*
X135056739Y-108973481D01*
X135056739Y-108973481D02*
X135050359Y-109079769D01*
X135050359Y-109079769D02*
X135067789Y-109144818D01*
X135067789Y-109144818D02*
X135126458Y-109233676D01*
X135126458Y-109233676D02*
X135456373Y-109424153D01*
X133898620Y-109074641D02*
X134393491Y-109360355D01*
X134146055Y-109217498D02*
X134646055Y-108351473D01*
X134646055Y-108351473D02*
X134657105Y-108522810D01*
X134657105Y-108522810D02*
X134691965Y-108652907D01*
X134691965Y-108652907D02*
X134750634Y-108741766D01*
X133073833Y-108598450D02*
X133568705Y-108884165D01*
X133321269Y-108741308D02*
X133821269Y-107875282D01*
X133821269Y-107875282D02*
X133832319Y-108046619D01*
X133832319Y-108046619D02*
X133867179Y-108176717D01*
X133867179Y-108176717D02*
X133925848Y-108265575D01*
X162914285Y-74306819D02*
X162342857Y-74306819D01*
X162628571Y-75306819D02*
X162628571Y-74306819D01*
X162009523Y-75306819D02*
X162009523Y-74306819D01*
X162009523Y-74306819D02*
X161628571Y-74306819D01*
X161628571Y-74306819D02*
X161533333Y-74354438D01*
X161533333Y-74354438D02*
X161485714Y-74402057D01*
X161485714Y-74402057D02*
X161438095Y-74497295D01*
X161438095Y-74497295D02*
X161438095Y-74640152D01*
X161438095Y-74640152D02*
X161485714Y-74735390D01*
X161485714Y-74735390D02*
X161533333Y-74783009D01*
X161533333Y-74783009D02*
X161628571Y-74830628D01*
X161628571Y-74830628D02*
X162009523Y-74830628D01*
X160533333Y-74306819D02*
X161009523Y-74306819D01*
X161009523Y-74306819D02*
X161057142Y-74783009D01*
X161057142Y-74783009D02*
X161009523Y-74735390D01*
X161009523Y-74735390D02*
X160914285Y-74687771D01*
X160914285Y-74687771D02*
X160676190Y-74687771D01*
X160676190Y-74687771D02*
X160580952Y-74735390D01*
X160580952Y-74735390D02*
X160533333Y-74783009D01*
X160533333Y-74783009D02*
X160485714Y-74878247D01*
X160485714Y-74878247D02*
X160485714Y-75116342D01*
X160485714Y-75116342D02*
X160533333Y-75211580D01*
X160533333Y-75211580D02*
X160580952Y-75259200D01*
X160580952Y-75259200D02*
X160676190Y-75306819D01*
X160676190Y-75306819D02*
X160914285Y-75306819D01*
X160914285Y-75306819D02*
X161009523Y-75259200D01*
X161009523Y-75259200D02*
X161057142Y-75211580D01*
X159866666Y-74306819D02*
X159771428Y-74306819D01*
X159771428Y-74306819D02*
X159676190Y-74354438D01*
X159676190Y-74354438D02*
X159628571Y-74402057D01*
X159628571Y-74402057D02*
X159580952Y-74497295D01*
X159580952Y-74497295D02*
X159533333Y-74687771D01*
X159533333Y-74687771D02*
X159533333Y-74925866D01*
X159533333Y-74925866D02*
X159580952Y-75116342D01*
X159580952Y-75116342D02*
X159628571Y-75211580D01*
X159628571Y-75211580D02*
X159676190Y-75259200D01*
X159676190Y-75259200D02*
X159771428Y-75306819D01*
X159771428Y-75306819D02*
X159866666Y-75306819D01*
X159866666Y-75306819D02*
X159961904Y-75259200D01*
X159961904Y-75259200D02*
X160009523Y-75211580D01*
X160009523Y-75211580D02*
X160057142Y-75116342D01*
X160057142Y-75116342D02*
X160104761Y-74925866D01*
X160104761Y-74925866D02*
X160104761Y-74687771D01*
X160104761Y-74687771D02*
X160057142Y-74497295D01*
X160057142Y-74497295D02*
X160009523Y-74402057D01*
X160009523Y-74402057D02*
X159961904Y-74354438D01*
X159961904Y-74354438D02*
X159866666Y-74306819D01*
X159199999Y-74306819D02*
X158533333Y-74306819D01*
X158533333Y-74306819D02*
X158961904Y-75306819D01*
X141114285Y-115106819D02*
X140542857Y-115106819D01*
X140828571Y-116106819D02*
X140828571Y-115106819D01*
X140209523Y-116106819D02*
X140209523Y-115106819D01*
X140209523Y-115106819D02*
X139828571Y-115106819D01*
X139828571Y-115106819D02*
X139733333Y-115154438D01*
X139733333Y-115154438D02*
X139685714Y-115202057D01*
X139685714Y-115202057D02*
X139638095Y-115297295D01*
X139638095Y-115297295D02*
X139638095Y-115440152D01*
X139638095Y-115440152D02*
X139685714Y-115535390D01*
X139685714Y-115535390D02*
X139733333Y-115583009D01*
X139733333Y-115583009D02*
X139828571Y-115630628D01*
X139828571Y-115630628D02*
X140209523Y-115630628D01*
X138780952Y-115440152D02*
X138780952Y-116106819D01*
X139019047Y-115059200D02*
X139257142Y-115773485D01*
X139257142Y-115773485D02*
X138638095Y-115773485D01*
X138066666Y-115106819D02*
X137971428Y-115106819D01*
X137971428Y-115106819D02*
X137876190Y-115154438D01*
X137876190Y-115154438D02*
X137828571Y-115202057D01*
X137828571Y-115202057D02*
X137780952Y-115297295D01*
X137780952Y-115297295D02*
X137733333Y-115487771D01*
X137733333Y-115487771D02*
X137733333Y-115725866D01*
X137733333Y-115725866D02*
X137780952Y-115916342D01*
X137780952Y-115916342D02*
X137828571Y-116011580D01*
X137828571Y-116011580D02*
X137876190Y-116059200D01*
X137876190Y-116059200D02*
X137971428Y-116106819D01*
X137971428Y-116106819D02*
X138066666Y-116106819D01*
X138066666Y-116106819D02*
X138161904Y-116059200D01*
X138161904Y-116059200D02*
X138209523Y-116011580D01*
X138209523Y-116011580D02*
X138257142Y-115916342D01*
X138257142Y-115916342D02*
X138304761Y-115725866D01*
X138304761Y-115725866D02*
X138304761Y-115487771D01*
X138304761Y-115487771D02*
X138257142Y-115297295D01*
X138257142Y-115297295D02*
X138209523Y-115202057D01*
X138209523Y-115202057D02*
X138161904Y-115154438D01*
X138161904Y-115154438D02*
X138066666Y-115106819D01*
X136780952Y-116106819D02*
X137352380Y-116106819D01*
X137066666Y-116106819D02*
X137066666Y-115106819D01*
X137066666Y-115106819D02*
X137161904Y-115249676D01*
X137161904Y-115249676D02*
X137257142Y-115344914D01*
X137257142Y-115344914D02*
X137352380Y-115392533D01*
X156964285Y-119606819D02*
X156392857Y-119606819D01*
X156678571Y-120606819D02*
X156678571Y-119606819D01*
X156059523Y-120606819D02*
X156059523Y-119606819D01*
X156059523Y-119606819D02*
X155678571Y-119606819D01*
X155678571Y-119606819D02*
X155583333Y-119654438D01*
X155583333Y-119654438D02*
X155535714Y-119702057D01*
X155535714Y-119702057D02*
X155488095Y-119797295D01*
X155488095Y-119797295D02*
X155488095Y-119940152D01*
X155488095Y-119940152D02*
X155535714Y-120035390D01*
X155535714Y-120035390D02*
X155583333Y-120083009D01*
X155583333Y-120083009D02*
X155678571Y-120130628D01*
X155678571Y-120130628D02*
X156059523Y-120130628D01*
X154630952Y-119940152D02*
X154630952Y-120606819D01*
X154869047Y-119559200D02*
X155107142Y-120273485D01*
X155107142Y-120273485D02*
X154488095Y-120273485D01*
X153916666Y-119606819D02*
X153821428Y-119606819D01*
X153821428Y-119606819D02*
X153726190Y-119654438D01*
X153726190Y-119654438D02*
X153678571Y-119702057D01*
X153678571Y-119702057D02*
X153630952Y-119797295D01*
X153630952Y-119797295D02*
X153583333Y-119987771D01*
X153583333Y-119987771D02*
X153583333Y-120225866D01*
X153583333Y-120225866D02*
X153630952Y-120416342D01*
X153630952Y-120416342D02*
X153678571Y-120511580D01*
X153678571Y-120511580D02*
X153726190Y-120559200D01*
X153726190Y-120559200D02*
X153821428Y-120606819D01*
X153821428Y-120606819D02*
X153916666Y-120606819D01*
X153916666Y-120606819D02*
X154011904Y-120559200D01*
X154011904Y-120559200D02*
X154059523Y-120511580D01*
X154059523Y-120511580D02*
X154107142Y-120416342D01*
X154107142Y-120416342D02*
X154154761Y-120225866D01*
X154154761Y-120225866D02*
X154154761Y-119987771D01*
X154154761Y-119987771D02*
X154107142Y-119797295D01*
X154107142Y-119797295D02*
X154059523Y-119702057D01*
X154059523Y-119702057D02*
X154011904Y-119654438D01*
X154011904Y-119654438D02*
X153916666Y-119606819D01*
X153107142Y-120606819D02*
X152916666Y-120606819D01*
X152916666Y-120606819D02*
X152821428Y-120559200D01*
X152821428Y-120559200D02*
X152773809Y-120511580D01*
X152773809Y-120511580D02*
X152678571Y-120368723D01*
X152678571Y-120368723D02*
X152630952Y-120178247D01*
X152630952Y-120178247D02*
X152630952Y-119797295D01*
X152630952Y-119797295D02*
X152678571Y-119702057D01*
X152678571Y-119702057D02*
X152726190Y-119654438D01*
X152726190Y-119654438D02*
X152821428Y-119606819D01*
X152821428Y-119606819D02*
X153011904Y-119606819D01*
X153011904Y-119606819D02*
X153107142Y-119654438D01*
X153107142Y-119654438D02*
X153154761Y-119702057D01*
X153154761Y-119702057D02*
X153202380Y-119797295D01*
X153202380Y-119797295D02*
X153202380Y-120035390D01*
X153202380Y-120035390D02*
X153154761Y-120130628D01*
X153154761Y-120130628D02*
X153107142Y-120178247D01*
X153107142Y-120178247D02*
X153011904Y-120225866D01*
X153011904Y-120225866D02*
X152821428Y-120225866D01*
X152821428Y-120225866D02*
X152726190Y-120178247D01*
X152726190Y-120178247D02*
X152678571Y-120130628D01*
X152678571Y-120130628D02*
X152630952Y-120035390D01*
X157114285Y-99706819D02*
X156542857Y-99706819D01*
X156828571Y-100706819D02*
X156828571Y-99706819D01*
X156209523Y-100706819D02*
X156209523Y-99706819D01*
X156209523Y-99706819D02*
X155828571Y-99706819D01*
X155828571Y-99706819D02*
X155733333Y-99754438D01*
X155733333Y-99754438D02*
X155685714Y-99802057D01*
X155685714Y-99802057D02*
X155638095Y-99897295D01*
X155638095Y-99897295D02*
X155638095Y-100040152D01*
X155638095Y-100040152D02*
X155685714Y-100135390D01*
X155685714Y-100135390D02*
X155733333Y-100183009D01*
X155733333Y-100183009D02*
X155828571Y-100230628D01*
X155828571Y-100230628D02*
X156209523Y-100230628D01*
X155257142Y-99802057D02*
X155209523Y-99754438D01*
X155209523Y-99754438D02*
X155114285Y-99706819D01*
X155114285Y-99706819D02*
X154876190Y-99706819D01*
X154876190Y-99706819D02*
X154780952Y-99754438D01*
X154780952Y-99754438D02*
X154733333Y-99802057D01*
X154733333Y-99802057D02*
X154685714Y-99897295D01*
X154685714Y-99897295D02*
X154685714Y-99992533D01*
X154685714Y-99992533D02*
X154733333Y-100135390D01*
X154733333Y-100135390D02*
X155304761Y-100706819D01*
X155304761Y-100706819D02*
X154685714Y-100706819D01*
X154066666Y-99706819D02*
X153971428Y-99706819D01*
X153971428Y-99706819D02*
X153876190Y-99754438D01*
X153876190Y-99754438D02*
X153828571Y-99802057D01*
X153828571Y-99802057D02*
X153780952Y-99897295D01*
X153780952Y-99897295D02*
X153733333Y-100087771D01*
X153733333Y-100087771D02*
X153733333Y-100325866D01*
X153733333Y-100325866D02*
X153780952Y-100516342D01*
X153780952Y-100516342D02*
X153828571Y-100611580D01*
X153828571Y-100611580D02*
X153876190Y-100659200D01*
X153876190Y-100659200D02*
X153971428Y-100706819D01*
X153971428Y-100706819D02*
X154066666Y-100706819D01*
X154066666Y-100706819D02*
X154161904Y-100659200D01*
X154161904Y-100659200D02*
X154209523Y-100611580D01*
X154209523Y-100611580D02*
X154257142Y-100516342D01*
X154257142Y-100516342D02*
X154304761Y-100325866D01*
X154304761Y-100325866D02*
X154304761Y-100087771D01*
X154304761Y-100087771D02*
X154257142Y-99897295D01*
X154257142Y-99897295D02*
X154209523Y-99802057D01*
X154209523Y-99802057D02*
X154161904Y-99754438D01*
X154161904Y-99754438D02*
X154066666Y-99706819D01*
X153352380Y-99802057D02*
X153304761Y-99754438D01*
X153304761Y-99754438D02*
X153209523Y-99706819D01*
X153209523Y-99706819D02*
X152971428Y-99706819D01*
X152971428Y-99706819D02*
X152876190Y-99754438D01*
X152876190Y-99754438D02*
X152828571Y-99802057D01*
X152828571Y-99802057D02*
X152780952Y-99897295D01*
X152780952Y-99897295D02*
X152780952Y-99992533D01*
X152780952Y-99992533D02*
X152828571Y-100135390D01*
X152828571Y-100135390D02*
X153399999Y-100706819D01*
X153399999Y-100706819D02*
X152780952Y-100706819D01*
X151314285Y-123506819D02*
X150742857Y-123506819D01*
X151028571Y-124506819D02*
X151028571Y-123506819D01*
X150409523Y-124506819D02*
X150409523Y-123506819D01*
X150409523Y-123506819D02*
X150028571Y-123506819D01*
X150028571Y-123506819D02*
X149933333Y-123554438D01*
X149933333Y-123554438D02*
X149885714Y-123602057D01*
X149885714Y-123602057D02*
X149838095Y-123697295D01*
X149838095Y-123697295D02*
X149838095Y-123840152D01*
X149838095Y-123840152D02*
X149885714Y-123935390D01*
X149885714Y-123935390D02*
X149933333Y-123983009D01*
X149933333Y-123983009D02*
X150028571Y-124030628D01*
X150028571Y-124030628D02*
X150409523Y-124030628D01*
X148980952Y-123840152D02*
X148980952Y-124506819D01*
X149219047Y-123459200D02*
X149457142Y-124173485D01*
X149457142Y-124173485D02*
X148838095Y-124173485D01*
X148266666Y-123506819D02*
X148171428Y-123506819D01*
X148171428Y-123506819D02*
X148076190Y-123554438D01*
X148076190Y-123554438D02*
X148028571Y-123602057D01*
X148028571Y-123602057D02*
X147980952Y-123697295D01*
X147980952Y-123697295D02*
X147933333Y-123887771D01*
X147933333Y-123887771D02*
X147933333Y-124125866D01*
X147933333Y-124125866D02*
X147980952Y-124316342D01*
X147980952Y-124316342D02*
X148028571Y-124411580D01*
X148028571Y-124411580D02*
X148076190Y-124459200D01*
X148076190Y-124459200D02*
X148171428Y-124506819D01*
X148171428Y-124506819D02*
X148266666Y-124506819D01*
X148266666Y-124506819D02*
X148361904Y-124459200D01*
X148361904Y-124459200D02*
X148409523Y-124411580D01*
X148409523Y-124411580D02*
X148457142Y-124316342D01*
X148457142Y-124316342D02*
X148504761Y-124125866D01*
X148504761Y-124125866D02*
X148504761Y-123887771D01*
X148504761Y-123887771D02*
X148457142Y-123697295D01*
X148457142Y-123697295D02*
X148409523Y-123602057D01*
X148409523Y-123602057D02*
X148361904Y-123554438D01*
X148361904Y-123554438D02*
X148266666Y-123506819D01*
X147552380Y-123602057D02*
X147504761Y-123554438D01*
X147504761Y-123554438D02*
X147409523Y-123506819D01*
X147409523Y-123506819D02*
X147171428Y-123506819D01*
X147171428Y-123506819D02*
X147076190Y-123554438D01*
X147076190Y-123554438D02*
X147028571Y-123602057D01*
X147028571Y-123602057D02*
X146980952Y-123697295D01*
X146980952Y-123697295D02*
X146980952Y-123792533D01*
X146980952Y-123792533D02*
X147028571Y-123935390D01*
X147028571Y-123935390D02*
X147599999Y-124506819D01*
X147599999Y-124506819D02*
X146980952Y-124506819D01*
X146014285Y-115306819D02*
X145442857Y-115306819D01*
X145728571Y-116306819D02*
X145728571Y-115306819D01*
X145109523Y-116306819D02*
X145109523Y-115306819D01*
X145109523Y-115306819D02*
X144728571Y-115306819D01*
X144728571Y-115306819D02*
X144633333Y-115354438D01*
X144633333Y-115354438D02*
X144585714Y-115402057D01*
X144585714Y-115402057D02*
X144538095Y-115497295D01*
X144538095Y-115497295D02*
X144538095Y-115640152D01*
X144538095Y-115640152D02*
X144585714Y-115735390D01*
X144585714Y-115735390D02*
X144633333Y-115783009D01*
X144633333Y-115783009D02*
X144728571Y-115830628D01*
X144728571Y-115830628D02*
X145109523Y-115830628D01*
X143680952Y-115640152D02*
X143680952Y-116306819D01*
X143919047Y-115259200D02*
X144157142Y-115973485D01*
X144157142Y-115973485D02*
X143538095Y-115973485D01*
X142966666Y-115306819D02*
X142871428Y-115306819D01*
X142871428Y-115306819D02*
X142776190Y-115354438D01*
X142776190Y-115354438D02*
X142728571Y-115402057D01*
X142728571Y-115402057D02*
X142680952Y-115497295D01*
X142680952Y-115497295D02*
X142633333Y-115687771D01*
X142633333Y-115687771D02*
X142633333Y-115925866D01*
X142633333Y-115925866D02*
X142680952Y-116116342D01*
X142680952Y-116116342D02*
X142728571Y-116211580D01*
X142728571Y-116211580D02*
X142776190Y-116259200D01*
X142776190Y-116259200D02*
X142871428Y-116306819D01*
X142871428Y-116306819D02*
X142966666Y-116306819D01*
X142966666Y-116306819D02*
X143061904Y-116259200D01*
X143061904Y-116259200D02*
X143109523Y-116211580D01*
X143109523Y-116211580D02*
X143157142Y-116116342D01*
X143157142Y-116116342D02*
X143204761Y-115925866D01*
X143204761Y-115925866D02*
X143204761Y-115687771D01*
X143204761Y-115687771D02*
X143157142Y-115497295D01*
X143157142Y-115497295D02*
X143109523Y-115402057D01*
X143109523Y-115402057D02*
X143061904Y-115354438D01*
X143061904Y-115354438D02*
X142966666Y-115306819D01*
X141728571Y-115306819D02*
X142204761Y-115306819D01*
X142204761Y-115306819D02*
X142252380Y-115783009D01*
X142252380Y-115783009D02*
X142204761Y-115735390D01*
X142204761Y-115735390D02*
X142109523Y-115687771D01*
X142109523Y-115687771D02*
X141871428Y-115687771D01*
X141871428Y-115687771D02*
X141776190Y-115735390D01*
X141776190Y-115735390D02*
X141728571Y-115783009D01*
X141728571Y-115783009D02*
X141680952Y-115878247D01*
X141680952Y-115878247D02*
X141680952Y-116116342D01*
X141680952Y-116116342D02*
X141728571Y-116211580D01*
X141728571Y-116211580D02*
X141776190Y-116259200D01*
X141776190Y-116259200D02*
X141871428Y-116306819D01*
X141871428Y-116306819D02*
X142109523Y-116306819D01*
X142109523Y-116306819D02*
X142204761Y-116259200D01*
X142204761Y-116259200D02*
X142252380Y-116211580D01*
X166314285Y-76506819D02*
X165742857Y-76506819D01*
X166028571Y-77506819D02*
X166028571Y-76506819D01*
X165409523Y-77506819D02*
X165409523Y-76506819D01*
X165409523Y-76506819D02*
X165028571Y-76506819D01*
X165028571Y-76506819D02*
X164933333Y-76554438D01*
X164933333Y-76554438D02*
X164885714Y-76602057D01*
X164885714Y-76602057D02*
X164838095Y-76697295D01*
X164838095Y-76697295D02*
X164838095Y-76840152D01*
X164838095Y-76840152D02*
X164885714Y-76935390D01*
X164885714Y-76935390D02*
X164933333Y-76983009D01*
X164933333Y-76983009D02*
X165028571Y-77030628D01*
X165028571Y-77030628D02*
X165409523Y-77030628D01*
X163933333Y-76506819D02*
X164409523Y-76506819D01*
X164409523Y-76506819D02*
X164457142Y-76983009D01*
X164457142Y-76983009D02*
X164409523Y-76935390D01*
X164409523Y-76935390D02*
X164314285Y-76887771D01*
X164314285Y-76887771D02*
X164076190Y-76887771D01*
X164076190Y-76887771D02*
X163980952Y-76935390D01*
X163980952Y-76935390D02*
X163933333Y-76983009D01*
X163933333Y-76983009D02*
X163885714Y-77078247D01*
X163885714Y-77078247D02*
X163885714Y-77316342D01*
X163885714Y-77316342D02*
X163933333Y-77411580D01*
X163933333Y-77411580D02*
X163980952Y-77459200D01*
X163980952Y-77459200D02*
X164076190Y-77506819D01*
X164076190Y-77506819D02*
X164314285Y-77506819D01*
X164314285Y-77506819D02*
X164409523Y-77459200D01*
X164409523Y-77459200D02*
X164457142Y-77411580D01*
X163266666Y-76506819D02*
X163171428Y-76506819D01*
X163171428Y-76506819D02*
X163076190Y-76554438D01*
X163076190Y-76554438D02*
X163028571Y-76602057D01*
X163028571Y-76602057D02*
X162980952Y-76697295D01*
X162980952Y-76697295D02*
X162933333Y-76887771D01*
X162933333Y-76887771D02*
X162933333Y-77125866D01*
X162933333Y-77125866D02*
X162980952Y-77316342D01*
X162980952Y-77316342D02*
X163028571Y-77411580D01*
X163028571Y-77411580D02*
X163076190Y-77459200D01*
X163076190Y-77459200D02*
X163171428Y-77506819D01*
X163171428Y-77506819D02*
X163266666Y-77506819D01*
X163266666Y-77506819D02*
X163361904Y-77459200D01*
X163361904Y-77459200D02*
X163409523Y-77411580D01*
X163409523Y-77411580D02*
X163457142Y-77316342D01*
X163457142Y-77316342D02*
X163504761Y-77125866D01*
X163504761Y-77125866D02*
X163504761Y-76887771D01*
X163504761Y-76887771D02*
X163457142Y-76697295D01*
X163457142Y-76697295D02*
X163409523Y-76602057D01*
X163409523Y-76602057D02*
X163361904Y-76554438D01*
X163361904Y-76554438D02*
X163266666Y-76506819D01*
X162599999Y-76506819D02*
X161980952Y-76506819D01*
X161980952Y-76506819D02*
X162314285Y-76887771D01*
X162314285Y-76887771D02*
X162171428Y-76887771D01*
X162171428Y-76887771D02*
X162076190Y-76935390D01*
X162076190Y-76935390D02*
X162028571Y-76983009D01*
X162028571Y-76983009D02*
X161980952Y-77078247D01*
X161980952Y-77078247D02*
X161980952Y-77316342D01*
X161980952Y-77316342D02*
X162028571Y-77411580D01*
X162028571Y-77411580D02*
X162076190Y-77459200D01*
X162076190Y-77459200D02*
X162171428Y-77506819D01*
X162171428Y-77506819D02*
X162457142Y-77506819D01*
X162457142Y-77506819D02*
X162552380Y-77459200D01*
X162552380Y-77459200D02*
X162599999Y-77411580D01*
X178414285Y-85906819D02*
X177842857Y-85906819D01*
X178128571Y-86906819D02*
X178128571Y-85906819D01*
X177509523Y-86906819D02*
X177509523Y-85906819D01*
X177509523Y-85906819D02*
X177128571Y-85906819D01*
X177128571Y-85906819D02*
X177033333Y-85954438D01*
X177033333Y-85954438D02*
X176985714Y-86002057D01*
X176985714Y-86002057D02*
X176938095Y-86097295D01*
X176938095Y-86097295D02*
X176938095Y-86240152D01*
X176938095Y-86240152D02*
X176985714Y-86335390D01*
X176985714Y-86335390D02*
X177033333Y-86383009D01*
X177033333Y-86383009D02*
X177128571Y-86430628D01*
X177128571Y-86430628D02*
X177509523Y-86430628D01*
X176033333Y-85906819D02*
X176509523Y-85906819D01*
X176509523Y-85906819D02*
X176557142Y-86383009D01*
X176557142Y-86383009D02*
X176509523Y-86335390D01*
X176509523Y-86335390D02*
X176414285Y-86287771D01*
X176414285Y-86287771D02*
X176176190Y-86287771D01*
X176176190Y-86287771D02*
X176080952Y-86335390D01*
X176080952Y-86335390D02*
X176033333Y-86383009D01*
X176033333Y-86383009D02*
X175985714Y-86478247D01*
X175985714Y-86478247D02*
X175985714Y-86716342D01*
X175985714Y-86716342D02*
X176033333Y-86811580D01*
X176033333Y-86811580D02*
X176080952Y-86859200D01*
X176080952Y-86859200D02*
X176176190Y-86906819D01*
X176176190Y-86906819D02*
X176414285Y-86906819D01*
X176414285Y-86906819D02*
X176509523Y-86859200D01*
X176509523Y-86859200D02*
X176557142Y-86811580D01*
X175033333Y-86906819D02*
X175604761Y-86906819D01*
X175319047Y-86906819D02*
X175319047Y-85906819D01*
X175319047Y-85906819D02*
X175414285Y-86049676D01*
X175414285Y-86049676D02*
X175509523Y-86144914D01*
X175509523Y-86144914D02*
X175604761Y-86192533D01*
X174414285Y-85906819D02*
X174319047Y-85906819D01*
X174319047Y-85906819D02*
X174223809Y-85954438D01*
X174223809Y-85954438D02*
X174176190Y-86002057D01*
X174176190Y-86002057D02*
X174128571Y-86097295D01*
X174128571Y-86097295D02*
X174080952Y-86287771D01*
X174080952Y-86287771D02*
X174080952Y-86525866D01*
X174080952Y-86525866D02*
X174128571Y-86716342D01*
X174128571Y-86716342D02*
X174176190Y-86811580D01*
X174176190Y-86811580D02*
X174223809Y-86859200D01*
X174223809Y-86859200D02*
X174319047Y-86906819D01*
X174319047Y-86906819D02*
X174414285Y-86906819D01*
X174414285Y-86906819D02*
X174509523Y-86859200D01*
X174509523Y-86859200D02*
X174557142Y-86811580D01*
X174557142Y-86811580D02*
X174604761Y-86716342D01*
X174604761Y-86716342D02*
X174652380Y-86525866D01*
X174652380Y-86525866D02*
X174652380Y-86287771D01*
X174652380Y-86287771D02*
X174604761Y-86097295D01*
X174604761Y-86097295D02*
X174557142Y-86002057D01*
X174557142Y-86002057D02*
X174509523Y-85954438D01*
X174509523Y-85954438D02*
X174414285Y-85906819D01*
X162714285Y-114706819D02*
X162142857Y-114706819D01*
X162428571Y-115706819D02*
X162428571Y-114706819D01*
X161809523Y-115706819D02*
X161809523Y-114706819D01*
X161809523Y-114706819D02*
X161428571Y-114706819D01*
X161428571Y-114706819D02*
X161333333Y-114754438D01*
X161333333Y-114754438D02*
X161285714Y-114802057D01*
X161285714Y-114802057D02*
X161238095Y-114897295D01*
X161238095Y-114897295D02*
X161238095Y-115040152D01*
X161238095Y-115040152D02*
X161285714Y-115135390D01*
X161285714Y-115135390D02*
X161333333Y-115183009D01*
X161333333Y-115183009D02*
X161428571Y-115230628D01*
X161428571Y-115230628D02*
X161809523Y-115230628D01*
X160380952Y-115040152D02*
X160380952Y-115706819D01*
X160619047Y-114659200D02*
X160857142Y-115373485D01*
X160857142Y-115373485D02*
X160238095Y-115373485D01*
X159666666Y-114706819D02*
X159571428Y-114706819D01*
X159571428Y-114706819D02*
X159476190Y-114754438D01*
X159476190Y-114754438D02*
X159428571Y-114802057D01*
X159428571Y-114802057D02*
X159380952Y-114897295D01*
X159380952Y-114897295D02*
X159333333Y-115087771D01*
X159333333Y-115087771D02*
X159333333Y-115325866D01*
X159333333Y-115325866D02*
X159380952Y-115516342D01*
X159380952Y-115516342D02*
X159428571Y-115611580D01*
X159428571Y-115611580D02*
X159476190Y-115659200D01*
X159476190Y-115659200D02*
X159571428Y-115706819D01*
X159571428Y-115706819D02*
X159666666Y-115706819D01*
X159666666Y-115706819D02*
X159761904Y-115659200D01*
X159761904Y-115659200D02*
X159809523Y-115611580D01*
X159809523Y-115611580D02*
X159857142Y-115516342D01*
X159857142Y-115516342D02*
X159904761Y-115325866D01*
X159904761Y-115325866D02*
X159904761Y-115087771D01*
X159904761Y-115087771D02*
X159857142Y-114897295D01*
X159857142Y-114897295D02*
X159809523Y-114802057D01*
X159809523Y-114802057D02*
X159761904Y-114754438D01*
X159761904Y-114754438D02*
X159666666Y-114706819D01*
X158999999Y-114706819D02*
X158380952Y-114706819D01*
X158380952Y-114706819D02*
X158714285Y-115087771D01*
X158714285Y-115087771D02*
X158571428Y-115087771D01*
X158571428Y-115087771D02*
X158476190Y-115135390D01*
X158476190Y-115135390D02*
X158428571Y-115183009D01*
X158428571Y-115183009D02*
X158380952Y-115278247D01*
X158380952Y-115278247D02*
X158380952Y-115516342D01*
X158380952Y-115516342D02*
X158428571Y-115611580D01*
X158428571Y-115611580D02*
X158476190Y-115659200D01*
X158476190Y-115659200D02*
X158571428Y-115706819D01*
X158571428Y-115706819D02*
X158857142Y-115706819D01*
X158857142Y-115706819D02*
X158952380Y-115659200D01*
X158952380Y-115659200D02*
X158999999Y-115611580D01*
X175114285Y-86506819D02*
X174542857Y-86506819D01*
X174828571Y-87506819D02*
X174828571Y-86506819D01*
X174209523Y-87506819D02*
X174209523Y-86506819D01*
X174209523Y-86506819D02*
X173828571Y-86506819D01*
X173828571Y-86506819D02*
X173733333Y-86554438D01*
X173733333Y-86554438D02*
X173685714Y-86602057D01*
X173685714Y-86602057D02*
X173638095Y-86697295D01*
X173638095Y-86697295D02*
X173638095Y-86840152D01*
X173638095Y-86840152D02*
X173685714Y-86935390D01*
X173685714Y-86935390D02*
X173733333Y-86983009D01*
X173733333Y-86983009D02*
X173828571Y-87030628D01*
X173828571Y-87030628D02*
X174209523Y-87030628D01*
X172733333Y-86506819D02*
X173209523Y-86506819D01*
X173209523Y-86506819D02*
X173257142Y-86983009D01*
X173257142Y-86983009D02*
X173209523Y-86935390D01*
X173209523Y-86935390D02*
X173114285Y-86887771D01*
X173114285Y-86887771D02*
X172876190Y-86887771D01*
X172876190Y-86887771D02*
X172780952Y-86935390D01*
X172780952Y-86935390D02*
X172733333Y-86983009D01*
X172733333Y-86983009D02*
X172685714Y-87078247D01*
X172685714Y-87078247D02*
X172685714Y-87316342D01*
X172685714Y-87316342D02*
X172733333Y-87411580D01*
X172733333Y-87411580D02*
X172780952Y-87459200D01*
X172780952Y-87459200D02*
X172876190Y-87506819D01*
X172876190Y-87506819D02*
X173114285Y-87506819D01*
X173114285Y-87506819D02*
X173209523Y-87459200D01*
X173209523Y-87459200D02*
X173257142Y-87411580D01*
X171733333Y-87506819D02*
X172304761Y-87506819D01*
X172019047Y-87506819D02*
X172019047Y-86506819D01*
X172019047Y-86506819D02*
X172114285Y-86649676D01*
X172114285Y-86649676D02*
X172209523Y-86744914D01*
X172209523Y-86744914D02*
X172304761Y-86792533D01*
X170780952Y-87506819D02*
X171352380Y-87506819D01*
X171066666Y-87506819D02*
X171066666Y-86506819D01*
X171066666Y-86506819D02*
X171161904Y-86649676D01*
X171161904Y-86649676D02*
X171257142Y-86744914D01*
X171257142Y-86744914D02*
X171352380Y-86792533D01*
X168114285Y-77406819D02*
X167542857Y-77406819D01*
X167828571Y-78406819D02*
X167828571Y-77406819D01*
X167209523Y-78406819D02*
X167209523Y-77406819D01*
X167209523Y-77406819D02*
X166828571Y-77406819D01*
X166828571Y-77406819D02*
X166733333Y-77454438D01*
X166733333Y-77454438D02*
X166685714Y-77502057D01*
X166685714Y-77502057D02*
X166638095Y-77597295D01*
X166638095Y-77597295D02*
X166638095Y-77740152D01*
X166638095Y-77740152D02*
X166685714Y-77835390D01*
X166685714Y-77835390D02*
X166733333Y-77883009D01*
X166733333Y-77883009D02*
X166828571Y-77930628D01*
X166828571Y-77930628D02*
X167209523Y-77930628D01*
X165733333Y-77406819D02*
X166209523Y-77406819D01*
X166209523Y-77406819D02*
X166257142Y-77883009D01*
X166257142Y-77883009D02*
X166209523Y-77835390D01*
X166209523Y-77835390D02*
X166114285Y-77787771D01*
X166114285Y-77787771D02*
X165876190Y-77787771D01*
X165876190Y-77787771D02*
X165780952Y-77835390D01*
X165780952Y-77835390D02*
X165733333Y-77883009D01*
X165733333Y-77883009D02*
X165685714Y-77978247D01*
X165685714Y-77978247D02*
X165685714Y-78216342D01*
X165685714Y-78216342D02*
X165733333Y-78311580D01*
X165733333Y-78311580D02*
X165780952Y-78359200D01*
X165780952Y-78359200D02*
X165876190Y-78406819D01*
X165876190Y-78406819D02*
X166114285Y-78406819D01*
X166114285Y-78406819D02*
X166209523Y-78359200D01*
X166209523Y-78359200D02*
X166257142Y-78311580D01*
X165066666Y-77406819D02*
X164971428Y-77406819D01*
X164971428Y-77406819D02*
X164876190Y-77454438D01*
X164876190Y-77454438D02*
X164828571Y-77502057D01*
X164828571Y-77502057D02*
X164780952Y-77597295D01*
X164780952Y-77597295D02*
X164733333Y-77787771D01*
X164733333Y-77787771D02*
X164733333Y-78025866D01*
X164733333Y-78025866D02*
X164780952Y-78216342D01*
X164780952Y-78216342D02*
X164828571Y-78311580D01*
X164828571Y-78311580D02*
X164876190Y-78359200D01*
X164876190Y-78359200D02*
X164971428Y-78406819D01*
X164971428Y-78406819D02*
X165066666Y-78406819D01*
X165066666Y-78406819D02*
X165161904Y-78359200D01*
X165161904Y-78359200D02*
X165209523Y-78311580D01*
X165209523Y-78311580D02*
X165257142Y-78216342D01*
X165257142Y-78216342D02*
X165304761Y-78025866D01*
X165304761Y-78025866D02*
X165304761Y-77787771D01*
X165304761Y-77787771D02*
X165257142Y-77597295D01*
X165257142Y-77597295D02*
X165209523Y-77502057D01*
X165209523Y-77502057D02*
X165161904Y-77454438D01*
X165161904Y-77454438D02*
X165066666Y-77406819D01*
X163780952Y-78406819D02*
X164352380Y-78406819D01*
X164066666Y-78406819D02*
X164066666Y-77406819D01*
X164066666Y-77406819D02*
X164161904Y-77549676D01*
X164161904Y-77549676D02*
X164257142Y-77644914D01*
X164257142Y-77644914D02*
X164352380Y-77692533D01*
X138814285Y-112306819D02*
X138242857Y-112306819D01*
X138528571Y-113306819D02*
X138528571Y-112306819D01*
X137909523Y-113306819D02*
X137909523Y-112306819D01*
X137909523Y-112306819D02*
X137528571Y-112306819D01*
X137528571Y-112306819D02*
X137433333Y-112354438D01*
X137433333Y-112354438D02*
X137385714Y-112402057D01*
X137385714Y-112402057D02*
X137338095Y-112497295D01*
X137338095Y-112497295D02*
X137338095Y-112640152D01*
X137338095Y-112640152D02*
X137385714Y-112735390D01*
X137385714Y-112735390D02*
X137433333Y-112783009D01*
X137433333Y-112783009D02*
X137528571Y-112830628D01*
X137528571Y-112830628D02*
X137909523Y-112830628D01*
X136480952Y-112640152D02*
X136480952Y-113306819D01*
X136719047Y-112259200D02*
X136957142Y-112973485D01*
X136957142Y-112973485D02*
X136338095Y-112973485D01*
X135766666Y-112306819D02*
X135671428Y-112306819D01*
X135671428Y-112306819D02*
X135576190Y-112354438D01*
X135576190Y-112354438D02*
X135528571Y-112402057D01*
X135528571Y-112402057D02*
X135480952Y-112497295D01*
X135480952Y-112497295D02*
X135433333Y-112687771D01*
X135433333Y-112687771D02*
X135433333Y-112925866D01*
X135433333Y-112925866D02*
X135480952Y-113116342D01*
X135480952Y-113116342D02*
X135528571Y-113211580D01*
X135528571Y-113211580D02*
X135576190Y-113259200D01*
X135576190Y-113259200D02*
X135671428Y-113306819D01*
X135671428Y-113306819D02*
X135766666Y-113306819D01*
X135766666Y-113306819D02*
X135861904Y-113259200D01*
X135861904Y-113259200D02*
X135909523Y-113211580D01*
X135909523Y-113211580D02*
X135957142Y-113116342D01*
X135957142Y-113116342D02*
X136004761Y-112925866D01*
X136004761Y-112925866D02*
X136004761Y-112687771D01*
X136004761Y-112687771D02*
X135957142Y-112497295D01*
X135957142Y-112497295D02*
X135909523Y-112402057D01*
X135909523Y-112402057D02*
X135861904Y-112354438D01*
X135861904Y-112354438D02*
X135766666Y-112306819D01*
X134861904Y-112735390D02*
X134957142Y-112687771D01*
X134957142Y-112687771D02*
X135004761Y-112640152D01*
X135004761Y-112640152D02*
X135052380Y-112544914D01*
X135052380Y-112544914D02*
X135052380Y-112497295D01*
X135052380Y-112497295D02*
X135004761Y-112402057D01*
X135004761Y-112402057D02*
X134957142Y-112354438D01*
X134957142Y-112354438D02*
X134861904Y-112306819D01*
X134861904Y-112306819D02*
X134671428Y-112306819D01*
X134671428Y-112306819D02*
X134576190Y-112354438D01*
X134576190Y-112354438D02*
X134528571Y-112402057D01*
X134528571Y-112402057D02*
X134480952Y-112497295D01*
X134480952Y-112497295D02*
X134480952Y-112544914D01*
X134480952Y-112544914D02*
X134528571Y-112640152D01*
X134528571Y-112640152D02*
X134576190Y-112687771D01*
X134576190Y-112687771D02*
X134671428Y-112735390D01*
X134671428Y-112735390D02*
X134861904Y-112735390D01*
X134861904Y-112735390D02*
X134957142Y-112783009D01*
X134957142Y-112783009D02*
X135004761Y-112830628D01*
X135004761Y-112830628D02*
X135052380Y-112925866D01*
X135052380Y-112925866D02*
X135052380Y-113116342D01*
X135052380Y-113116342D02*
X135004761Y-113211580D01*
X135004761Y-113211580D02*
X134957142Y-113259200D01*
X134957142Y-113259200D02*
X134861904Y-113306819D01*
X134861904Y-113306819D02*
X134671428Y-113306819D01*
X134671428Y-113306819D02*
X134576190Y-113259200D01*
X134576190Y-113259200D02*
X134528571Y-113211580D01*
X134528571Y-113211580D02*
X134480952Y-113116342D01*
X134480952Y-113116342D02*
X134480952Y-112925866D01*
X134480952Y-112925866D02*
X134528571Y-112830628D01*
X134528571Y-112830628D02*
X134576190Y-112783009D01*
X134576190Y-112783009D02*
X134671428Y-112735390D01*
X174314285Y-84606819D02*
X173742857Y-84606819D01*
X174028571Y-85606819D02*
X174028571Y-84606819D01*
X173409523Y-85606819D02*
X173409523Y-84606819D01*
X173409523Y-84606819D02*
X173028571Y-84606819D01*
X173028571Y-84606819D02*
X172933333Y-84654438D01*
X172933333Y-84654438D02*
X172885714Y-84702057D01*
X172885714Y-84702057D02*
X172838095Y-84797295D01*
X172838095Y-84797295D02*
X172838095Y-84940152D01*
X172838095Y-84940152D02*
X172885714Y-85035390D01*
X172885714Y-85035390D02*
X172933333Y-85083009D01*
X172933333Y-85083009D02*
X173028571Y-85130628D01*
X173028571Y-85130628D02*
X173409523Y-85130628D01*
X171933333Y-84606819D02*
X172409523Y-84606819D01*
X172409523Y-84606819D02*
X172457142Y-85083009D01*
X172457142Y-85083009D02*
X172409523Y-85035390D01*
X172409523Y-85035390D02*
X172314285Y-84987771D01*
X172314285Y-84987771D02*
X172076190Y-84987771D01*
X172076190Y-84987771D02*
X171980952Y-85035390D01*
X171980952Y-85035390D02*
X171933333Y-85083009D01*
X171933333Y-85083009D02*
X171885714Y-85178247D01*
X171885714Y-85178247D02*
X171885714Y-85416342D01*
X171885714Y-85416342D02*
X171933333Y-85511580D01*
X171933333Y-85511580D02*
X171980952Y-85559200D01*
X171980952Y-85559200D02*
X172076190Y-85606819D01*
X172076190Y-85606819D02*
X172314285Y-85606819D01*
X172314285Y-85606819D02*
X172409523Y-85559200D01*
X172409523Y-85559200D02*
X172457142Y-85511580D01*
X170933333Y-85606819D02*
X171504761Y-85606819D01*
X171219047Y-85606819D02*
X171219047Y-84606819D01*
X171219047Y-84606819D02*
X171314285Y-84749676D01*
X171314285Y-84749676D02*
X171409523Y-84844914D01*
X171409523Y-84844914D02*
X171504761Y-84892533D01*
X170599999Y-84606819D02*
X169980952Y-84606819D01*
X169980952Y-84606819D02*
X170314285Y-84987771D01*
X170314285Y-84987771D02*
X170171428Y-84987771D01*
X170171428Y-84987771D02*
X170076190Y-85035390D01*
X170076190Y-85035390D02*
X170028571Y-85083009D01*
X170028571Y-85083009D02*
X169980952Y-85178247D01*
X169980952Y-85178247D02*
X169980952Y-85416342D01*
X169980952Y-85416342D02*
X170028571Y-85511580D01*
X170028571Y-85511580D02*
X170076190Y-85559200D01*
X170076190Y-85559200D02*
X170171428Y-85606819D01*
X170171428Y-85606819D02*
X170457142Y-85606819D01*
X170457142Y-85606819D02*
X170552380Y-85559200D01*
X170552380Y-85559200D02*
X170599999Y-85511580D01*
X164814285Y-105806819D02*
X164242857Y-105806819D01*
X164528571Y-106806819D02*
X164528571Y-105806819D01*
X163909523Y-106806819D02*
X163909523Y-105806819D01*
X163909523Y-105806819D02*
X163528571Y-105806819D01*
X163528571Y-105806819D02*
X163433333Y-105854438D01*
X163433333Y-105854438D02*
X163385714Y-105902057D01*
X163385714Y-105902057D02*
X163338095Y-105997295D01*
X163338095Y-105997295D02*
X163338095Y-106140152D01*
X163338095Y-106140152D02*
X163385714Y-106235390D01*
X163385714Y-106235390D02*
X163433333Y-106283009D01*
X163433333Y-106283009D02*
X163528571Y-106330628D01*
X163528571Y-106330628D02*
X163909523Y-106330628D01*
X162480952Y-106140152D02*
X162480952Y-106806819D01*
X162719047Y-105759200D02*
X162957142Y-106473485D01*
X162957142Y-106473485D02*
X162338095Y-106473485D01*
X161433333Y-106806819D02*
X162004761Y-106806819D01*
X161719047Y-106806819D02*
X161719047Y-105806819D01*
X161719047Y-105806819D02*
X161814285Y-105949676D01*
X161814285Y-105949676D02*
X161909523Y-106044914D01*
X161909523Y-106044914D02*
X162004761Y-106092533D01*
X160576190Y-105806819D02*
X160766666Y-105806819D01*
X160766666Y-105806819D02*
X160861904Y-105854438D01*
X160861904Y-105854438D02*
X160909523Y-105902057D01*
X160909523Y-105902057D02*
X161004761Y-106044914D01*
X161004761Y-106044914D02*
X161052380Y-106235390D01*
X161052380Y-106235390D02*
X161052380Y-106616342D01*
X161052380Y-106616342D02*
X161004761Y-106711580D01*
X161004761Y-106711580D02*
X160957142Y-106759200D01*
X160957142Y-106759200D02*
X160861904Y-106806819D01*
X160861904Y-106806819D02*
X160671428Y-106806819D01*
X160671428Y-106806819D02*
X160576190Y-106759200D01*
X160576190Y-106759200D02*
X160528571Y-106711580D01*
X160528571Y-106711580D02*
X160480952Y-106616342D01*
X160480952Y-106616342D02*
X160480952Y-106378247D01*
X160480952Y-106378247D02*
X160528571Y-106283009D01*
X160528571Y-106283009D02*
X160576190Y-106235390D01*
X160576190Y-106235390D02*
X160671428Y-106187771D01*
X160671428Y-106187771D02*
X160861904Y-106187771D01*
X160861904Y-106187771D02*
X160957142Y-106235390D01*
X160957142Y-106235390D02*
X161004761Y-106283009D01*
X161004761Y-106283009D02*
X161052380Y-106378247D01*
X158964218Y-75480997D02*
X158469346Y-75195283D01*
X158216782Y-76204165D02*
X158716782Y-75338140D01*
X157680671Y-75894641D02*
X158180671Y-75028616D01*
X158180671Y-75028616D02*
X157850756Y-74838140D01*
X157850756Y-74838140D02*
X157744468Y-74831760D01*
X157744468Y-74831760D02*
X157679419Y-74849190D01*
X157679419Y-74849190D02*
X157590561Y-74907859D01*
X157590561Y-74907859D02*
X157519132Y-75031577D01*
X157519132Y-75031577D02*
X157512753Y-75137865D01*
X157512753Y-75137865D02*
X157530183Y-75202914D01*
X157530183Y-75202914D02*
X157588852Y-75291772D01*
X157588852Y-75291772D02*
X157918766Y-75482248D01*
X157397124Y-74576235D02*
X156861013Y-74266711D01*
X156861013Y-74266711D02*
X156959212Y-74763292D01*
X156959212Y-74763292D02*
X156835494Y-74691864D01*
X156835494Y-74691864D02*
X156729206Y-74685484D01*
X156729206Y-74685484D02*
X156664157Y-74702914D01*
X156664157Y-74702914D02*
X156575299Y-74761583D01*
X156575299Y-74761583D02*
X156456251Y-74967779D01*
X156456251Y-74967779D02*
X156449871Y-75074067D01*
X156449871Y-75074067D02*
X156467301Y-75139116D01*
X156467301Y-75139116D02*
X156525970Y-75227975D01*
X156525970Y-75227975D02*
X156773406Y-75370832D01*
X156773406Y-75370832D02*
X156879694Y-75377211D01*
X156879694Y-75377211D02*
X156944743Y-75359782D01*
X156324902Y-73957187D02*
X156242423Y-73909568D01*
X156242423Y-73909568D02*
X156136135Y-73903188D01*
X156136135Y-73903188D02*
X156071086Y-73920618D01*
X156071086Y-73920618D02*
X155982228Y-73979287D01*
X155982228Y-73979287D02*
X155845751Y-74120435D01*
X155845751Y-74120435D02*
X155726703Y-74326632D01*
X155726703Y-74326632D02*
X155672704Y-74515398D01*
X155672704Y-74515398D02*
X155666325Y-74621686D01*
X155666325Y-74621686D02*
X155683754Y-74686735D01*
X155683754Y-74686735D02*
X155742423Y-74775594D01*
X155742423Y-74775594D02*
X155824902Y-74823213D01*
X155824902Y-74823213D02*
X155931190Y-74829592D01*
X155931190Y-74829592D02*
X155996239Y-74812163D01*
X155996239Y-74812163D02*
X156085097Y-74753494D01*
X156085097Y-74753494D02*
X156221575Y-74612346D01*
X156221575Y-74612346D02*
X156340622Y-74406149D01*
X156340622Y-74406149D02*
X156394621Y-74217383D01*
X156394621Y-74217383D02*
X156401001Y-74111094D01*
X156401001Y-74111094D02*
X156383571Y-74046046D01*
X156383571Y-74046046D02*
X156324902Y-73957187D01*
X155252680Y-73338140D02*
X155665073Y-73576235D01*
X155665073Y-73576235D02*
X155468217Y-74012437D01*
X155468217Y-74012437D02*
X155450787Y-73947389D01*
X155450787Y-73947389D02*
X155392118Y-73858530D01*
X155392118Y-73858530D02*
X155185922Y-73739483D01*
X155185922Y-73739483D02*
X155079634Y-73733103D01*
X155079634Y-73733103D02*
X155014585Y-73750533D01*
X155014585Y-73750533D02*
X154925726Y-73809202D01*
X154925726Y-73809202D02*
X154806679Y-74015398D01*
X154806679Y-74015398D02*
X154800299Y-74121686D01*
X154800299Y-74121686D02*
X154817729Y-74186735D01*
X154817729Y-74186735D02*
X154876398Y-74275594D01*
X154876398Y-74275594D02*
X155082595Y-74394641D01*
X155082595Y-74394641D02*
X155188883Y-74401021D01*
X155188883Y-74401021D02*
X155253931Y-74383591D01*
X136981824Y-107452901D02*
X136486953Y-107167187D01*
X136234388Y-108176070D02*
X136734388Y-107310044D01*
X135698277Y-107866546D02*
X136198277Y-107000520D01*
X136198277Y-107000520D02*
X135868363Y-106810044D01*
X135868363Y-106810044D02*
X135762075Y-106803664D01*
X135762075Y-106803664D02*
X135697026Y-106821094D01*
X135697026Y-106821094D02*
X135608168Y-106879763D01*
X135608168Y-106879763D02*
X135536739Y-107003481D01*
X135536739Y-107003481D02*
X135530359Y-107109769D01*
X135530359Y-107109769D02*
X135547789Y-107174818D01*
X135547789Y-107174818D02*
X135606458Y-107263676D01*
X135606458Y-107263676D02*
X135936373Y-107454153D01*
X134378620Y-107104641D02*
X134873491Y-107390355D01*
X134626055Y-107247498D02*
X135126055Y-106381473D01*
X135126055Y-106381473D02*
X135137105Y-106552810D01*
X135137105Y-106552810D02*
X135171965Y-106682907D01*
X135171965Y-106682907D02*
X135230634Y-106771766D01*
X134501086Y-106130618D02*
X134483656Y-106065569D01*
X134483656Y-106065569D02*
X134424987Y-105976711D01*
X134424987Y-105976711D02*
X134218791Y-105857663D01*
X134218791Y-105857663D02*
X134112503Y-105851283D01*
X134112503Y-105851283D02*
X134047454Y-105868713D01*
X134047454Y-105868713D02*
X133958595Y-105927382D01*
X133958595Y-105927382D02*
X133910976Y-106009861D01*
X133910976Y-106009861D02*
X133880787Y-106157388D01*
X133880787Y-106157388D02*
X134089944Y-106937974D01*
X134089944Y-106937974D02*
X133553833Y-106628450D01*
X145190475Y-95806819D02*
X144619047Y-95806819D01*
X144904761Y-96806819D02*
X144904761Y-95806819D01*
X144285713Y-96806819D02*
X144285713Y-95806819D01*
X144285713Y-95806819D02*
X143904761Y-95806819D01*
X143904761Y-95806819D02*
X143809523Y-95854438D01*
X143809523Y-95854438D02*
X143761904Y-95902057D01*
X143761904Y-95902057D02*
X143714285Y-95997295D01*
X143714285Y-95997295D02*
X143714285Y-96140152D01*
X143714285Y-96140152D02*
X143761904Y-96235390D01*
X143761904Y-96235390D02*
X143809523Y-96283009D01*
X143809523Y-96283009D02*
X143904761Y-96330628D01*
X143904761Y-96330628D02*
X144285713Y-96330628D01*
X142761904Y-96806819D02*
X143333332Y-96806819D01*
X143047618Y-96806819D02*
X143047618Y-95806819D01*
X143047618Y-95806819D02*
X143142856Y-95949676D01*
X143142856Y-95949676D02*
X143238094Y-96044914D01*
X143238094Y-96044914D02*
X143333332Y-96092533D01*
X142142856Y-95806819D02*
X142047618Y-95806819D01*
X142047618Y-95806819D02*
X141952380Y-95854438D01*
X141952380Y-95854438D02*
X141904761Y-95902057D01*
X141904761Y-95902057D02*
X141857142Y-95997295D01*
X141857142Y-95997295D02*
X141809523Y-96187771D01*
X141809523Y-96187771D02*
X141809523Y-96425866D01*
X141809523Y-96425866D02*
X141857142Y-96616342D01*
X141857142Y-96616342D02*
X141904761Y-96711580D01*
X141904761Y-96711580D02*
X141952380Y-96759200D01*
X141952380Y-96759200D02*
X142047618Y-96806819D01*
X142047618Y-96806819D02*
X142142856Y-96806819D01*
X142142856Y-96806819D02*
X142238094Y-96759200D01*
X142238094Y-96759200D02*
X142285713Y-96711580D01*
X142285713Y-96711580D02*
X142333332Y-96616342D01*
X142333332Y-96616342D02*
X142380951Y-96425866D01*
X142380951Y-96425866D02*
X142380951Y-96187771D01*
X142380951Y-96187771D02*
X142333332Y-95997295D01*
X142333332Y-95997295D02*
X142285713Y-95902057D01*
X142285713Y-95902057D02*
X142238094Y-95854438D01*
X142238094Y-95854438D02*
X142142856Y-95806819D01*
X141190475Y-95806819D02*
X141095237Y-95806819D01*
X141095237Y-95806819D02*
X140999999Y-95854438D01*
X140999999Y-95854438D02*
X140952380Y-95902057D01*
X140952380Y-95902057D02*
X140904761Y-95997295D01*
X140904761Y-95997295D02*
X140857142Y-96187771D01*
X140857142Y-96187771D02*
X140857142Y-96425866D01*
X140857142Y-96425866D02*
X140904761Y-96616342D01*
X140904761Y-96616342D02*
X140952380Y-96711580D01*
X140952380Y-96711580D02*
X140999999Y-96759200D01*
X140999999Y-96759200D02*
X141095237Y-96806819D01*
X141095237Y-96806819D02*
X141190475Y-96806819D01*
X141190475Y-96806819D02*
X141285713Y-96759200D01*
X141285713Y-96759200D02*
X141333332Y-96711580D01*
X141333332Y-96711580D02*
X141380951Y-96616342D01*
X141380951Y-96616342D02*
X141428570Y-96425866D01*
X141428570Y-96425866D02*
X141428570Y-96187771D01*
X141428570Y-96187771D02*
X141380951Y-95997295D01*
X141380951Y-95997295D02*
X141333332Y-95902057D01*
X141333332Y-95902057D02*
X141285713Y-95854438D01*
X141285713Y-95854438D02*
X141190475Y-95806819D01*
X139904761Y-96806819D02*
X140476189Y-96806819D01*
X140190475Y-96806819D02*
X140190475Y-95806819D01*
X140190475Y-95806819D02*
X140285713Y-95949676D01*
X140285713Y-95949676D02*
X140380951Y-96044914D01*
X140380951Y-96044914D02*
X140476189Y-96092533D01*
X151814285Y-111506819D02*
X151242857Y-111506819D01*
X151528571Y-112506819D02*
X151528571Y-111506819D01*
X150909523Y-112506819D02*
X150909523Y-111506819D01*
X150909523Y-111506819D02*
X150528571Y-111506819D01*
X150528571Y-111506819D02*
X150433333Y-111554438D01*
X150433333Y-111554438D02*
X150385714Y-111602057D01*
X150385714Y-111602057D02*
X150338095Y-111697295D01*
X150338095Y-111697295D02*
X150338095Y-111840152D01*
X150338095Y-111840152D02*
X150385714Y-111935390D01*
X150385714Y-111935390D02*
X150433333Y-111983009D01*
X150433333Y-111983009D02*
X150528571Y-112030628D01*
X150528571Y-112030628D02*
X150909523Y-112030628D01*
X149480952Y-111840152D02*
X149480952Y-112506819D01*
X149719047Y-111459200D02*
X149957142Y-112173485D01*
X149957142Y-112173485D02*
X149338095Y-112173485D01*
X148433333Y-112506819D02*
X149004761Y-112506819D01*
X148719047Y-112506819D02*
X148719047Y-111506819D01*
X148719047Y-111506819D02*
X148814285Y-111649676D01*
X148814285Y-111649676D02*
X148909523Y-111744914D01*
X148909523Y-111744914D02*
X149004761Y-111792533D01*
X147480952Y-112506819D02*
X148052380Y-112506819D01*
X147766666Y-112506819D02*
X147766666Y-111506819D01*
X147766666Y-111506819D02*
X147861904Y-111649676D01*
X147861904Y-111649676D02*
X147957142Y-111744914D01*
X147957142Y-111744914D02*
X148052380Y-111792533D01*
D11*
%TO.C,TP415*%
X166900000Y-107300000D02*
G75*
G02*
X165500000Y-107300000I-700000J0D01*
G01*
X165500000Y-107300000D02*
G75*
G02*
X166900000Y-107300000I700000J0D01*
G01*
%TO.C,TP509*%
X174700000Y-90200000D02*
G75*
G02*
X173300000Y-90200000I-700000J0D01*
G01*
X173300000Y-90200000D02*
G75*
G02*
X174700000Y-90200000I700000J0D01*
G01*
%TO.C,TP407*%
X142760000Y-118450000D02*
G75*
G02*
X141360000Y-118450000I-700000J0D01*
G01*
X141360000Y-118450000D02*
G75*
G02*
X142760000Y-118450000I700000J0D01*
G01*
%TO.C,TP417*%
X165200000Y-109100000D02*
G75*
G02*
X163800000Y-109100000I-700000J0D01*
G01*
X163800000Y-109100000D02*
G75*
G02*
X165200000Y-109100000I700000J0D01*
G01*
%TO.C,TP515*%
X171700000Y-84900000D02*
G75*
G02*
X170300000Y-84900000I-700000J0D01*
G01*
X170300000Y-84900000D02*
G75*
G02*
X171700000Y-84900000I700000J0D01*
G01*
%TO.C,TP508*%
X161900000Y-73600000D02*
G75*
G02*
X160500000Y-73600000I-700000J0D01*
G01*
X160500000Y-73600000D02*
G75*
G02*
X161900000Y-73600000I700000J0D01*
G01*
%TO.C,TP406*%
X141100000Y-119900000D02*
G75*
G02*
X139700000Y-119900000I-700000J0D01*
G01*
X139700000Y-119900000D02*
G75*
G02*
X141100000Y-119900000I700000J0D01*
G01*
%TO.C,TP506*%
X163700000Y-74600000D02*
G75*
G02*
X162300000Y-74600000I-700000J0D01*
G01*
X162300000Y-74600000D02*
G75*
G02*
X163700000Y-74600000I700000J0D01*
G01*
%TO.C,TP304*%
X163200000Y-96300000D02*
G75*
G02*
X161800000Y-96300000I-700000J0D01*
G01*
X161800000Y-96300000D02*
G75*
G02*
X163200000Y-96300000I700000J0D01*
G01*
%TO.C,TP413*%
X148150000Y-116800000D02*
G75*
G02*
X146750000Y-116800000I-700000J0D01*
G01*
X146750000Y-116800000D02*
G75*
G02*
X148150000Y-116800000I700000J0D01*
G01*
%TO.C,TP410*%
X153800000Y-117750000D02*
G75*
G02*
X152400000Y-117750000I-700000J0D01*
G01*
X152400000Y-117750000D02*
G75*
G02*
X153800000Y-117750000I700000J0D01*
G01*
%TO.C,TP412*%
X152500000Y-114700000D02*
G75*
G02*
X151100000Y-114700000I-700000J0D01*
G01*
X151100000Y-114700000D02*
G75*
G02*
X152500000Y-114700000I700000J0D01*
G01*
%TO.C,TP512*%
X175900000Y-86100000D02*
G75*
G02*
X174500000Y-86100000I-700000J0D01*
G01*
X174500000Y-86100000D02*
G75*
G02*
X175900000Y-86100000I700000J0D01*
G01*
%TO.C,TP516*%
X173600000Y-82700000D02*
G75*
G02*
X172200000Y-82700000I-700000J0D01*
G01*
X172200000Y-82700000D02*
G75*
G02*
X173600000Y-82700000I700000J0D01*
G01*
%TO.C,TP404*%
X144400000Y-123700000D02*
G75*
G02*
X143000000Y-123700000I-700000J0D01*
G01*
X143000000Y-123700000D02*
G75*
G02*
X144400000Y-123700000I700000J0D01*
G01*
%TO.C,TP1003*%
X141100000Y-92300000D02*
G75*
G02*
X139700000Y-92300000I-700000J0D01*
G01*
X139700000Y-92300000D02*
G75*
G02*
X141100000Y-92300000I700000J0D01*
G01*
%TO.C,TP505*%
X163100000Y-77400000D02*
G75*
G02*
X161700000Y-77400000I-700000J0D01*
G01*
X161700000Y-77400000D02*
G75*
G02*
X163100000Y-77400000I700000J0D01*
G01*
%TO.C,TP514*%
X174800000Y-84400000D02*
G75*
G02*
X173400000Y-84400000I-700000J0D01*
G01*
X173400000Y-84400000D02*
G75*
G02*
X174800000Y-84400000I700000J0D01*
G01*
%TO.C,TP414*%
X169600000Y-107200000D02*
G75*
G02*
X168200000Y-107200000I-700000J0D01*
G01*
X168200000Y-107200000D02*
G75*
G02*
X169600000Y-107200000I700000J0D01*
G01*
%TO.C,TP504*%
X165400000Y-75700000D02*
G75*
G02*
X164000000Y-75700000I-700000J0D01*
G01*
X164000000Y-75700000D02*
G75*
G02*
X165400000Y-75700000I700000J0D01*
G01*
%TO.C,TP1002*%
X143600000Y-95500000D02*
G75*
G02*
X142200000Y-95500000I-700000J0D01*
G01*
X142200000Y-95500000D02*
G75*
G02*
X143600000Y-95500000I700000J0D01*
G01*
%TO.C,TP418*%
X159300000Y-112750000D02*
G75*
G02*
X157900000Y-112750000I-700000J0D01*
G01*
X157900000Y-112750000D02*
G75*
G02*
X159300000Y-112750000I700000J0D01*
G01*
%TO.C,TP502*%
X167200000Y-76600000D02*
G75*
G02*
X165800000Y-76600000I-700000J0D01*
G01*
X165800000Y-76600000D02*
G75*
G02*
X167200000Y-76600000I700000J0D01*
G01*
%TO.C,TP302*%
X134700000Y-99000000D02*
G75*
G02*
X133300000Y-99000000I-700000J0D01*
G01*
X133300000Y-99000000D02*
G75*
G02*
X134700000Y-99000000I700000J0D01*
G01*
%TO.C,TP11*%
X134700000Y-110280000D02*
G75*
G02*
X133300000Y-110280000I-700000J0D01*
G01*
X133300000Y-110280000D02*
G75*
G02*
X134700000Y-110280000I700000J0D01*
G01*
%TO.C,TP507*%
X161400000Y-76300000D02*
G75*
G02*
X160000000Y-76300000I-700000J0D01*
G01*
X160000000Y-76300000D02*
G75*
G02*
X161400000Y-76300000I700000J0D01*
G01*
%TO.C,TP401*%
X139600000Y-117100000D02*
G75*
G02*
X138200000Y-117100000I-700000J0D01*
G01*
X138200000Y-117100000D02*
G75*
G02*
X139600000Y-117100000I700000J0D01*
G01*
%TO.C,TP409*%
X155450000Y-121600000D02*
G75*
G02*
X154050000Y-121600000I-700000J0D01*
G01*
X154050000Y-121600000D02*
G75*
G02*
X155450000Y-121600000I700000J0D01*
G01*
%TO.C,TP202*%
X155600000Y-101700000D02*
G75*
G02*
X154200000Y-101700000I-700000J0D01*
G01*
X154200000Y-101700000D02*
G75*
G02*
X155600000Y-101700000I700000J0D01*
G01*
%TO.C,TP402*%
X149800000Y-125500000D02*
G75*
G02*
X148400000Y-125500000I-700000J0D01*
G01*
X148400000Y-125500000D02*
G75*
G02*
X149800000Y-125500000I700000J0D01*
G01*
%TO.C,TP405*%
X144500000Y-117300000D02*
G75*
G02*
X143100000Y-117300000I-700000J0D01*
G01*
X143100000Y-117300000D02*
G75*
G02*
X144500000Y-117300000I700000J0D01*
G01*
%TO.C,TP503*%
X164800000Y-78500000D02*
G75*
G02*
X163400000Y-78500000I-700000J0D01*
G01*
X163400000Y-78500000D02*
G75*
G02*
X164800000Y-78500000I700000J0D01*
G01*
%TO.C,TP510*%
X176900000Y-87900000D02*
G75*
G02*
X175500000Y-87900000I-700000J0D01*
G01*
X175500000Y-87900000D02*
G75*
G02*
X176900000Y-87900000I700000J0D01*
G01*
%TO.C,TP403*%
X161200000Y-116700000D02*
G75*
G02*
X159800000Y-116700000I-700000J0D01*
G01*
X159800000Y-116700000D02*
G75*
G02*
X161200000Y-116700000I700000J0D01*
G01*
%TO.C,TP511*%
X173600000Y-88500000D02*
G75*
G02*
X172200000Y-88500000I-700000J0D01*
G01*
X172200000Y-88500000D02*
G75*
G02*
X173600000Y-88500000I700000J0D01*
G01*
%TO.C,TP501*%
X166600000Y-79400000D02*
G75*
G02*
X165200000Y-79400000I-700000J0D01*
G01*
X165200000Y-79400000D02*
G75*
G02*
X166600000Y-79400000I700000J0D01*
G01*
%TO.C,TP408*%
X137300000Y-114300000D02*
G75*
G02*
X135900000Y-114300000I-700000J0D01*
G01*
X135900000Y-114300000D02*
G75*
G02*
X137300000Y-114300000I700000J0D01*
G01*
%TO.C,TP513*%
X172800000Y-86600000D02*
G75*
G02*
X171400000Y-86600000I-700000J0D01*
G01*
X171400000Y-86600000D02*
G75*
G02*
X172800000Y-86600000I700000J0D01*
G01*
%TO.C,TP416*%
X163300000Y-107800000D02*
G75*
G02*
X161900000Y-107800000I-700000J0D01*
G01*
X161900000Y-107800000D02*
G75*
G02*
X163300000Y-107800000I700000J0D01*
G01*
%TO.C,TP305*%
X156750000Y-76100000D02*
G75*
G02*
X155350000Y-76100000I-700000J0D01*
G01*
X155350000Y-76100000D02*
G75*
G02*
X156750000Y-76100000I700000J0D01*
G01*
%TO.C,TP12*%
X135180000Y-108310000D02*
G75*
G02*
X133780000Y-108310000I-700000J0D01*
G01*
X133780000Y-108310000D02*
G75*
G02*
X135180000Y-108310000I700000J0D01*
G01*
%TO.C,TP1001*%
X143200000Y-97800000D02*
G75*
G02*
X141800000Y-97800000I-700000J0D01*
G01*
X141800000Y-97800000D02*
G75*
G02*
X143200000Y-97800000I700000J0D01*
G01*
%TO.C,TP411*%
X150300000Y-113500000D02*
G75*
G02*
X148900000Y-113500000I-700000J0D01*
G01*
X148900000Y-113500000D02*
G75*
G02*
X150300000Y-113500000I700000J0D01*
G01*
%TD*%
%LPC*%
D12*
%TO.C,J204*%
X139117943Y-85654926D03*
X143009353Y-82235044D03*
X144025353Y-83994807D03*
%TD*%
D13*
%TO.C,J901*%
X169965251Y-111536340D03*
X175165064Y-114550000D03*
%TD*%
D14*
%TO.C,J301*%
X124360996Y-111444687D03*
X127250996Y-116450313D03*
D15*
X124079009Y-109956270D03*
D16*
X120459023Y-112046270D03*
D15*
X128399009Y-117438730D03*
D16*
X124779023Y-119528730D03*
%TD*%
D17*
%TO.C,TP415*%
X166200000Y-107300000D03*
%TD*%
%TO.C,TP509*%
X174000000Y-90200000D03*
%TD*%
%TO.C,TP407*%
X142060000Y-118450000D03*
%TD*%
%TO.C,TP417*%
X164500000Y-109100000D03*
%TD*%
%TO.C,TP515*%
X171000000Y-84900000D03*
%TD*%
%TO.C,TP508*%
X161200000Y-73600000D03*
%TD*%
%TO.C,TP406*%
X140400000Y-119900000D03*
%TD*%
%TO.C,TP506*%
X163000000Y-74600000D03*
%TD*%
%TO.C,TP304*%
X162500000Y-96300000D03*
%TD*%
%TO.C,TP413*%
X147450000Y-116800000D03*
%TD*%
%TO.C,TP410*%
X153100000Y-117750000D03*
%TD*%
%TO.C,TP412*%
X151800000Y-114700000D03*
%TD*%
%TO.C,TP512*%
X175200000Y-86100000D03*
%TD*%
%TO.C,TP516*%
X172900000Y-82700000D03*
%TD*%
%TO.C,TP404*%
X143700000Y-123700000D03*
%TD*%
%TO.C,TP1003*%
X140400000Y-92300000D03*
%TD*%
%TO.C,TP505*%
X162400000Y-77400000D03*
%TD*%
%TO.C,TP514*%
X174100000Y-84400000D03*
%TD*%
%TO.C,TP414*%
X168900000Y-107200000D03*
%TD*%
%TO.C,TP504*%
X164700000Y-75700000D03*
%TD*%
%TO.C,TP1002*%
X142900000Y-95500000D03*
%TD*%
%TO.C,TP418*%
X158600000Y-112750000D03*
%TD*%
%TO.C,TP502*%
X166500000Y-76600000D03*
%TD*%
%TO.C,TP302*%
X134000000Y-99000000D03*
%TD*%
%TO.C,TP11*%
X134000000Y-110280000D03*
%TD*%
%TO.C,TP507*%
X160700000Y-76300000D03*
%TD*%
%TO.C,TP401*%
X138900000Y-117100000D03*
%TD*%
%TO.C,TP409*%
X154750000Y-121600000D03*
%TD*%
%TO.C,TP202*%
X154900000Y-101700000D03*
%TD*%
%TO.C,TP402*%
X149100000Y-125500000D03*
%TD*%
%TO.C,TP405*%
X143800000Y-117300000D03*
%TD*%
%TO.C,TP503*%
X164100000Y-78500000D03*
%TD*%
%TO.C,TP510*%
X176200000Y-87900000D03*
%TD*%
%TO.C,TP403*%
X160500000Y-116700000D03*
%TD*%
%TO.C,TP511*%
X172900000Y-88500000D03*
%TD*%
%TO.C,TP501*%
X165900000Y-79400000D03*
%TD*%
%TO.C,TP408*%
X136600000Y-114300000D03*
%TD*%
%TO.C,TP513*%
X172100000Y-86600000D03*
%TD*%
%TO.C,TP416*%
X162600000Y-107800000D03*
%TD*%
%TO.C,TP305*%
X156050000Y-76100000D03*
%TD*%
%TO.C,TP12*%
X134480000Y-108310000D03*
%TD*%
%TO.C,TP1001*%
X142500000Y-97800000D03*
%TD*%
%TO.C,TP411*%
X149600000Y-113500000D03*
%TD*%
%LPD*%
M02*
