M48
; DRILL file {KiCad 8.0.3} date 2024-08-19T15:25:54-0400
; FORMAT={-:-/ absolute / inch / decimal}
; #@! TF.CreationDate,2024-08-19T15:25:54-04:00
; #@! TF.GenerationSoftware,Kicad,Pcbnew,8.0.3
; #@! TF.FileFunction,Plated,1,4,PTH
FMAT,2
INCH
; #@! TA.AperFunction,Plated,PTH,ViaDrill
T1C0.0098
; #@! TA.AperFunction,Plated,PTH,ViaDrill
T2C0.0118
; #@! TA.AperFunction,Plated,PTH,ViaDrill
T3C0.0157
; #@! TA.AperFunction,Plated,PTH,ComponentDrill
T4C0.0236
; #@! TA.AperFunction,Plated,PTH,ComponentDrill
T5C0.0630
%
G90
G05
T1
X4.5807Y-4.0433
X4.5827Y-3.9114
X4.6604Y-3.646
X4.7264Y-3.5059
X4.7323Y-3.3071
X4.75Y-3.8642
X4.7559Y-4.0138
X4.7677Y-3.7047
X4.7835Y-3.5177
X4.7874Y-4.4606
X4.8169Y-3.5492
X4.8189Y-4.0453
X4.8386Y-3.8583
X4.8386Y-3.9665
X4.8504Y-3.4646
X4.8543Y-4.2677
X4.8563Y-3.6575
X4.8701Y-3.3071
X4.8996Y-4.2618
X4.9134Y-3.5807
X4.9252Y-4.9213
X4.9304Y-3.3052
X4.935Y-4.0236
X4.937Y-3.8583
X4.9395Y-4.2846
X4.97Y-3.5301
X4.9862Y-3.6634
X4.9961Y-3.4173
X5.0Y-3.187
X5.0Y-4.0787
X5.0098Y-3.8445
X5.0177Y-3.2756
X5.0197Y-4.9646
X5.0395Y-4.3032
X5.0472Y-3.5058
X5.0591Y-3.7756
X5.0748Y-3.3268
X5.0748Y-3.6929
X5.0807Y-4.5476
X5.0807Y-4.689
X5.0815Y-3.475
X5.0984Y-4.0669
X5.1002Y-3.4327
X5.1024Y-3.9094
X5.1063Y-4.0079
X5.1142Y-3.8484
X5.122Y-5.0236
X5.1516Y-3.0433
X5.1575Y-3.3012
X5.1634Y-3.2539
X5.1634Y-4.6811
X5.18Y-4.397
X5.1811Y-3.1496
X5.1811Y-3.9114
X5.185Y-4.0039
X5.1898Y-4.2811
X5.1909Y-3.8465
X5.2008Y-4.6161
X5.2055Y-4.8327
X5.2146Y-4.3248
X5.2264Y-3.0
X5.2323Y-3.6476
X5.2421Y-3.7047
X5.2441Y-5.0866
X5.25Y-3.1772
X5.2677Y-3.3878
X5.2795Y-4.4114
X5.2835Y-3.5236
X5.3008Y-4.8539
X5.3031Y-3.0492
X5.3071Y-3.251
X5.3091Y-2.9547
X5.3171Y-4.7138
X5.339Y-4.8583
X5.3425Y-4.5945
X5.3563Y-2.9331
X5.3685Y-4.276
X5.3819Y-4.8386
X5.3839Y-4.137
X5.3866Y-4.8835
X5.3898Y-4.2126
X5.3976Y-3.6476
X5.3996Y-4.3228
X5.3996Y-4.4291
X5.4016Y-3.4075
X5.4055Y-3.1831
X5.4094Y-4.9331
X5.4173Y-3.0157
X5.4173Y-4.563
X5.4331Y-4.6654
X5.4476Y-3.7004
X5.4567Y-4.9409
X5.4606Y-3.0138
X5.4606Y-5.2283
X5.4685Y-3.7441
X5.4724Y-4.8937
X5.4744Y-3.0945
X5.4884Y-4.7935
X5.502Y-4.3937
X5.5039Y-4.4921
X5.5039Y-4.6634
X5.5055Y-4.9465
X5.5059Y-3.0138
X5.5095Y-3.7573
X5.5177Y-3.2736
X5.5177Y-3.9665
X5.5295Y-2.8209
X5.5335Y-3.1969
X5.5472Y-5.2756
X5.5541Y-4.189
X5.5768Y-3.3878
X5.5787Y-4.372
X5.5868Y-4.8683
X5.6024Y-4.9646
X5.6181Y-3.1004
X5.6201Y-2.9252
X5.6201Y-3.1634
X5.626Y-4.7244
X5.6299Y-3.3504
X5.6535Y-5.2756
X5.6555Y-4.1417
X5.6654Y-4.937
X5.6815Y-3.769
X5.6831Y-3.7224
X5.6929Y-2.8465
X5.7067Y-4.0945
X5.7244Y-4.7913
X5.7264Y-2.7756
X5.7264Y-5.0925
X5.7264Y-5.1417
X5.7303Y-3.0984
X5.7323Y-2.9567
X5.7402Y-3.2362
X5.745Y-3.4163
X5.7618Y-4.624
X5.7736Y-3.8524
X5.7776Y-4.0925
X5.7835Y-5.2756
X5.7874Y-4.7874
X5.7933Y-3.9094
X5.7972Y-3.7618
X5.8031Y-3.9724
X5.8071Y-4.3425
X5.8071Y-5.0039
X5.8091Y-2.7736
X5.8268Y-4.122
X5.8268Y-4.4567
X5.8287Y-4.5138
X5.8287Y-4.9055
X5.8386Y-3.7106
X5.8445Y-4.7795
X5.8469Y-5.0224
X5.8484Y-2.7697
X5.8484Y-3.4902
X5.8504Y-3.0118
X5.8563Y-4.3465
X5.8701Y-4.3937
X5.876Y-3.8406
X5.878Y-2.9724
X5.8819Y-4.1752
X5.8858Y-4.5236
X5.8858Y-5.2795
X5.8886Y-5.0197
X5.8917Y-2.7697
X5.8917Y-4.4705
X5.8937Y-4.1024
X5.8957Y-4.628
X5.8996Y-4.7736
X5.9134Y-3.0118
X5.9272Y-2.7657
X5.9276Y-5.0197
X5.939Y-4.3189
X5.9429Y-3.8091
X5.9429Y-4.4744
X5.9466Y-2.9722
X5.9498Y-3.5827
X5.9508Y-4.6299
X5.9528Y-4.3661
X5.9528Y-4.7776
X5.9646Y-5.0197
X5.968Y-2.7728
X5.9724Y-4.1063
X5.9724Y-4.4232
X5.9764Y-5.2795
X5.9803Y-3.0118
X5.9843Y-3.6949
X5.9941Y-4.3051
X5.999Y-4.1398
X6.002Y-4.872
X6.0031Y-5.0217
X6.0039Y-4.7756
X6.0098Y-2.7697
X6.0118Y-2.9724
X6.0197Y-4.3465
X6.0404Y-2.8228
X6.0433Y-5.0217
X6.0531Y-4.811
X6.0551Y-3.9449
X6.0551Y-4.3898
X6.0551Y-4.4449
X6.0571Y-4.7421
X6.0591Y-4.1752
X6.061Y-4.0984
X6.063Y-4.5728
X6.0807Y-3.7677
X6.0846Y-2.7835
X6.0906Y-2.9154
X6.0984Y-3.2303
X6.1004Y-3.1142
X6.1004Y-5.002
X6.1004Y-5.0925
X6.1004Y-5.1417
X6.1122Y-4.3878
X6.1181Y-4.8701
X6.1319Y-3.8366
X6.1358Y-4.8327
X6.1378Y-4.5443
X6.1398Y-3.9469
X6.1437Y-2.9961
X6.1437Y-4.0965
X6.1476Y-3.6988
X6.1535Y-3.4606
X6.1535Y-5.2756
X6.1614Y-4.9823
X6.1791Y-3.6267
X6.1949Y-2.9291
X6.1969Y-3.5295
X6.2008Y-4.2126
X6.2126Y-4.498
X6.2146Y-3.0
X6.2165Y-4.6024
X6.2165Y-4.7323
X6.2185Y-3.6654
X6.2205Y-3.0945
X6.2205Y-3.3071
X6.2635Y-3.2661
X6.2677Y-2.872
X6.2713Y-3.9836
X6.2737Y-4.0803
X6.2756Y-3.5276
X6.2835Y-2.815
X6.2835Y-4.5276
X6.2874Y-4.689
X6.2933Y-3.622
X6.311Y-4.2402
X6.3148Y-3.9331
X6.3189Y-4.4291
X6.3228Y-3.8425
X6.3228Y-3.9803
X6.3268Y-2.9331
X6.3268Y-3.0906
X6.3307Y-4.2992
X6.3346Y-2.8346
X6.3465Y-4.1575
X6.3465Y-5.2283
X6.3504Y-2.9724
X6.3543Y-4.6417
X6.3661Y-4.1102
X6.3661Y-4.4843
X6.374Y-3.1476
X6.3845Y-3.4931
X6.3937Y-4.9016
X6.4016Y-2.9685
X6.4075Y-3.2559
X6.4114Y-3.9055
X6.4134Y-3.2992
X6.4134Y-3.3583
X6.4134Y-3.4094
X6.4157Y-4.0583
X6.4213Y-3.0079
X6.4346Y-4.8728
X6.435Y-3.6319
X6.4409Y-4.2126
X6.4409Y-4.3898
X6.4409Y-4.563
X6.4429Y-3.7283
X6.4508Y-3.8583
X6.4606Y-3.2992
X6.4606Y-3.3583
X6.4606Y-3.4094
X6.4606Y-5.1614
X6.4646Y-3.0079
X6.4646Y-3.2559
X6.4705Y-4.0787
X6.4728Y-4.863
X6.4803Y-3.0591
X6.4882Y-2.7283
X6.5Y-3.6299
X6.5079Y-4.8449
X6.5118Y-3.9862
X6.5118Y-4.0492
X6.5118Y-4.378
X6.5138Y-3.9055
X6.5157Y-3.2795
X6.5236Y-4.1142
X6.5315Y-3.0472
X6.5354Y-3.7539
X6.5437Y-4.8244
X6.5512Y-3.0906
X6.5551Y-3.2795
X6.5748Y-4.1693
X6.5748Y-4.6083
X6.5783Y-4.8087
X6.5787Y-3.815
X6.5787Y-4.7677
X6.5827Y-4.3858
X6.5906Y-5.0906
X6.6063Y-3.1614
X6.6063Y-3.9193
X6.6063Y-3.998
X6.6142Y-4.1043
X6.6417Y-3.6575
X6.6417Y-3.7047
X6.6535Y-4.8228
X6.6614Y-3.0118
X6.6614Y-3.2441
X6.6634Y-4.2913
X6.6732Y-3.4921
X6.6772Y-3.6575
X6.6772Y-3.7047
X6.6831Y-4.5689
X6.685Y-3.1811
X6.689Y-3.5787
X6.6969Y-5.0276
X6.7106Y-3.7717
X6.7106Y-3.8031
X6.7303Y-3.3937
X6.7323Y-3.5787
X6.7343Y-3.2402
X6.7343Y-3.4626
X6.7362Y-3.0453
X6.7421Y-3.998
X6.7421Y-4.1732
X6.7441Y-3.9173
X6.748Y-3.6339
X6.7776Y-4.6378
X6.7795Y-3.315
X6.7835Y-3.2717
X6.7835Y-3.6378
X6.7972Y-4.4508
X6.7992Y-4.9646
X6.8189Y-3.3425
X6.8228Y-4.7323
X6.8307Y-3.3819
X6.8346Y-3.2047
X6.8346Y-4.2894
X6.8406Y-4.0512
X6.8425Y-3.8701
X6.8425Y-3.9724
X6.8425Y-4.1319
X6.8622Y-3.4094
X6.8622Y-3.4528
X6.8737Y-4.8263
X6.8858Y-4.9173
X6.8898Y-3.4803
X6.8976Y-3.6732
X6.9035Y-3.6024
X6.9055Y-3.5197
X6.9311Y-4.2421
X6.9469Y-4.3583
X6.9528Y-3.6693
X6.9567Y-4.7717
X6.9823Y-4.0453
X6.9843Y-3.8465
X6.9843Y-3.935
X6.9941Y-3.1535
X7.0039Y-3.5492
X7.0374Y-4.1437
X7.0433Y-3.998
X7.0453Y-3.8917
X7.0591Y-3.685
X7.0591Y-4.3169
X7.061Y-4.6004
X7.126Y-3.9331
X7.1358Y-4.4724
X7.2205Y-3.7697
X7.2205Y-3.8602
X7.2244Y-4.0039
T2
X4.7109Y-4.2579
X4.8915Y-3.917
X4.8937Y-3.783
X4.9056Y-4.8217
X4.9341Y-3.0663
X5.0886Y-4.3287
X5.1142Y-4.3858
X5.1476Y-3.7264
X5.1555Y-4.4626
X5.1608Y-4.3615
X5.2972Y-4.5453
X5.3668Y-4.0538
X5.3751Y-3.8386
X5.3912Y-5.1164
X5.3997Y-3.884
X5.4449Y-3.5906
X5.4685Y-3.5236
X5.4685Y-3.5591
X5.4724Y-3.622
X5.5492Y-3.9134
X5.6297Y-2.7333
X5.6575Y-4.0669
X5.6614Y-3.9055
X5.6659Y-3.9785
X5.6672Y-3.9421
X5.6752Y-4.0335
X5.7953Y-3.4646
X5.8307Y-3.5472
X5.9075Y-3.7283
X5.9331Y-4.1339
X5.9724Y-3.5472
X6.0938Y-4.3012
X6.0984Y-4.0039
X6.1024Y-3.4646
X6.1378Y-3.4016
X6.1378Y-3.5315
X6.1746Y-4.2983
X6.1768Y-2.6616
X6.2165Y-5.1102
X6.2713Y-3.7354
X6.2713Y-4.0197
X6.2717Y-3.8314
X6.2849Y-4.8327
X6.3189Y-4.0797
X6.3399Y-3.4528
X6.3524Y-4.0197
X6.3972Y-4.0051
X6.3976Y-3.1831
X6.3976Y-3.7146
X6.3976Y-3.7913
X6.4409Y-4.7067
X6.4724Y-3.1575
X6.5069Y-4.6327
X6.5787Y-3.769
X6.6102Y-3.7717
X6.6417Y-2.8346
X6.7362Y-4.874
X6.8976Y-3.7153
X7.0787Y-4.2126
X7.0945Y-3.563
T3
X4.5787Y-3.7717
X4.5827Y-4.2795
X4.5945Y-3.5906
X4.7165Y-4.3445
X4.7795Y-3.921
X4.7815Y-3.785
X4.8307Y-3.126
X4.8841Y-3.252
X4.9508Y-2.9724
X5.082Y-4.8361
X5.0842Y-4.2861
X5.1437Y-3.7677
X5.185Y-4.0492
X5.2343Y-4.4429
X5.2554Y-4.1589
X5.2655Y-4.817
X5.2756Y-3.8681
X5.2953Y-3.5984
X5.3475Y-3.721
X5.3583Y-2.8228
X5.3675Y-4.369
X5.4425Y-2.6767
X5.5355Y-4.0197
X5.5415Y-3.443
X5.546Y-2.6228
X5.5755Y-4.255
X5.5827Y-3.5433
X5.5886Y-4.4685
X5.6651Y-5.1732
X5.6831Y-3.5512
X5.7205Y-3.1772
X5.7559Y-5.0157
X5.7575Y-4.7343
X5.7598Y-2.8661
X6.063Y-3.1772
X6.0669Y-2.6024
X6.0669Y-3.2677
X6.0674Y-3.0802
X6.1325Y-4.1831
X6.1432Y-4.6811
X6.1752Y-4.7421
X6.1791Y-3.582
X6.2598Y-2.6024
X6.2992Y-5.115
X6.313Y-4.9626
X6.3555Y-4.921
X6.7811Y-2.9003
X6.8661Y-2.9724
X6.9803Y-4.1083
X7.0315Y-3.745
X7.1614Y-3.4409
X7.2205Y-4.2913
X7.2244Y-3.5807
X7.2323Y-4.1339
T5
X6.6915Y-4.3912
X6.8963Y-4.5098
T4
G00X4.7561Y-4.4034
M15
G01X4.7288Y-4.4191
M16
G05
G00X4.9038Y-4.3182
M15
G01X4.8662Y-4.3398
M16
G05
G00X4.9262Y-4.698
M15
G01X4.8989Y-4.7137
M16
G05
G00X5.0738Y-4.6127
M15
G01X5.0363Y-4.6344
M16
G05
M30
