%TF.GenerationSoftware,KiCad,Pcbnew,8.0.3*%
%TF.CreationDate,2024-08-19T15:25:54-04:00*%
%TF.ProjectId,vibrometer_h7,76696272-6f6d-4657-9465-725f68372e6b,rev?*%
%TF.SameCoordinates,Original*%
%TF.FileFunction,Soldermask,Bot*%
%TF.FilePolarity,Negative*%
%FSLAX46Y46*%
G04 Gerber Fmt 4.6, Leading zero omitted, Abs format (unit mm)*
G04 Created by KiCad (PCBNEW 8.0.3) date 2024-08-19 15:25:54*
%MOMM*%
%LPD*%
G01*
G04 APERTURE LIST*
G04 APERTURE END LIST*
G36*
X149136035Y-125005089D02*
G01*
X149171157Y-125005089D01*
X149199702Y-125013470D01*
X149229321Y-125017370D01*
X149269106Y-125033849D01*
X149307708Y-125045184D01*
X149328083Y-125058278D01*
X149349827Y-125067285D01*
X149389671Y-125097859D01*
X149427430Y-125122125D01*
X149439601Y-125136172D01*
X149453309Y-125146690D01*
X149488845Y-125193002D01*
X149520627Y-125229680D01*
X149525974Y-125241390D01*
X149532714Y-125250173D01*
X149559326Y-125314421D01*
X149579746Y-125359134D01*
X149580755Y-125366154D01*
X149582629Y-125370678D01*
X149595900Y-125471484D01*
X149600000Y-125500000D01*
X149595899Y-125528517D01*
X149582629Y-125629321D01*
X149580755Y-125633843D01*
X149579746Y-125640866D01*
X149559324Y-125685583D01*
X149532714Y-125749827D01*
X149525974Y-125758609D01*
X149520627Y-125770320D01*
X149488841Y-125807002D01*
X149453309Y-125853309D01*
X149439604Y-125863824D01*
X149427430Y-125877875D01*
X149389663Y-125902145D01*
X149349827Y-125932714D01*
X149328087Y-125941718D01*
X149307708Y-125954816D01*
X149269097Y-125966152D01*
X149229321Y-125982629D01*
X149199708Y-125986527D01*
X149171157Y-125994911D01*
X149136028Y-125994911D01*
X149100000Y-125999654D01*
X149063972Y-125994911D01*
X149028843Y-125994911D01*
X149000291Y-125986527D01*
X148970678Y-125982629D01*
X148930898Y-125966151D01*
X148892292Y-125954816D01*
X148871913Y-125941719D01*
X148850172Y-125932714D01*
X148810330Y-125902142D01*
X148772570Y-125877875D01*
X148760397Y-125863827D01*
X148746690Y-125853309D01*
X148711149Y-125806992D01*
X148679373Y-125770320D01*
X148674026Y-125758612D01*
X148667285Y-125749827D01*
X148640665Y-125685560D01*
X148620254Y-125640866D01*
X148619244Y-125633847D01*
X148617370Y-125629321D01*
X148604088Y-125528435D01*
X148600000Y-125500000D01*
X148604088Y-125471567D01*
X148617370Y-125370678D01*
X148619245Y-125366151D01*
X148620254Y-125359134D01*
X148640662Y-125314444D01*
X148667285Y-125250173D01*
X148674026Y-125241387D01*
X148679373Y-125229680D01*
X148711145Y-125193012D01*
X148746690Y-125146690D01*
X148760399Y-125136170D01*
X148772570Y-125122125D01*
X148810325Y-125097860D01*
X148850173Y-125067285D01*
X148871916Y-125058278D01*
X148892292Y-125045184D01*
X148930891Y-125033850D01*
X148970678Y-125017370D01*
X149000297Y-125013470D01*
X149028843Y-125005089D01*
X149063965Y-125005089D01*
X149100000Y-125000345D01*
X149136035Y-125005089D01*
G37*
G36*
X143736035Y-123205089D02*
G01*
X143771157Y-123205089D01*
X143799702Y-123213470D01*
X143829321Y-123217370D01*
X143869106Y-123233849D01*
X143907708Y-123245184D01*
X143928083Y-123258278D01*
X143949827Y-123267285D01*
X143989671Y-123297859D01*
X144027430Y-123322125D01*
X144039601Y-123336172D01*
X144053309Y-123346690D01*
X144088845Y-123393002D01*
X144120627Y-123429680D01*
X144125974Y-123441390D01*
X144132714Y-123450173D01*
X144159326Y-123514421D01*
X144179746Y-123559134D01*
X144180755Y-123566154D01*
X144182629Y-123570678D01*
X144195900Y-123671484D01*
X144200000Y-123700000D01*
X144195899Y-123728517D01*
X144182629Y-123829321D01*
X144180755Y-123833843D01*
X144179746Y-123840866D01*
X144159324Y-123885583D01*
X144132714Y-123949827D01*
X144125974Y-123958609D01*
X144120627Y-123970320D01*
X144088841Y-124007002D01*
X144053309Y-124053309D01*
X144039604Y-124063824D01*
X144027430Y-124077875D01*
X143989663Y-124102145D01*
X143949827Y-124132714D01*
X143928087Y-124141718D01*
X143907708Y-124154816D01*
X143869097Y-124166152D01*
X143829321Y-124182629D01*
X143799708Y-124186527D01*
X143771157Y-124194911D01*
X143736028Y-124194911D01*
X143700000Y-124199654D01*
X143663972Y-124194911D01*
X143628843Y-124194911D01*
X143600291Y-124186527D01*
X143570678Y-124182629D01*
X143530898Y-124166151D01*
X143492292Y-124154816D01*
X143471913Y-124141719D01*
X143450172Y-124132714D01*
X143410330Y-124102142D01*
X143372570Y-124077875D01*
X143360397Y-124063827D01*
X143346690Y-124053309D01*
X143311149Y-124006992D01*
X143279373Y-123970320D01*
X143274026Y-123958612D01*
X143267285Y-123949827D01*
X143240665Y-123885560D01*
X143220254Y-123840866D01*
X143219244Y-123833847D01*
X143217370Y-123829321D01*
X143204088Y-123728435D01*
X143200000Y-123700000D01*
X143204088Y-123671567D01*
X143217370Y-123570678D01*
X143219245Y-123566151D01*
X143220254Y-123559134D01*
X143240662Y-123514444D01*
X143267285Y-123450173D01*
X143274026Y-123441387D01*
X143279373Y-123429680D01*
X143311145Y-123393012D01*
X143346690Y-123346690D01*
X143360399Y-123336170D01*
X143372570Y-123322125D01*
X143410325Y-123297860D01*
X143450173Y-123267285D01*
X143471916Y-123258278D01*
X143492292Y-123245184D01*
X143530891Y-123233850D01*
X143570678Y-123217370D01*
X143600297Y-123213470D01*
X143628843Y-123205089D01*
X143663965Y-123205089D01*
X143700000Y-123200345D01*
X143736035Y-123205089D01*
G37*
G36*
X154786035Y-121105089D02*
G01*
X154821157Y-121105089D01*
X154849702Y-121113470D01*
X154879321Y-121117370D01*
X154919106Y-121133849D01*
X154957708Y-121145184D01*
X154978083Y-121158278D01*
X154999827Y-121167285D01*
X155039671Y-121197859D01*
X155077430Y-121222125D01*
X155089601Y-121236172D01*
X155103309Y-121246690D01*
X155138845Y-121293002D01*
X155170627Y-121329680D01*
X155175974Y-121341390D01*
X155182714Y-121350173D01*
X155209326Y-121414421D01*
X155229746Y-121459134D01*
X155230755Y-121466154D01*
X155232629Y-121470678D01*
X155245900Y-121571484D01*
X155250000Y-121600000D01*
X155245899Y-121628517D01*
X155232629Y-121729321D01*
X155230755Y-121733843D01*
X155229746Y-121740866D01*
X155209324Y-121785583D01*
X155182714Y-121849827D01*
X155175974Y-121858609D01*
X155170627Y-121870320D01*
X155138841Y-121907002D01*
X155103309Y-121953309D01*
X155089604Y-121963824D01*
X155077430Y-121977875D01*
X155039663Y-122002145D01*
X154999827Y-122032714D01*
X154978087Y-122041718D01*
X154957708Y-122054816D01*
X154919097Y-122066152D01*
X154879321Y-122082629D01*
X154849708Y-122086527D01*
X154821157Y-122094911D01*
X154786028Y-122094911D01*
X154750000Y-122099654D01*
X154713972Y-122094911D01*
X154678843Y-122094911D01*
X154650291Y-122086527D01*
X154620678Y-122082629D01*
X154580898Y-122066151D01*
X154542292Y-122054816D01*
X154521913Y-122041719D01*
X154500172Y-122032714D01*
X154460330Y-122002142D01*
X154422570Y-121977875D01*
X154410397Y-121963827D01*
X154396690Y-121953309D01*
X154361149Y-121906992D01*
X154329373Y-121870320D01*
X154324026Y-121858612D01*
X154317285Y-121849827D01*
X154290665Y-121785560D01*
X154270254Y-121740866D01*
X154269244Y-121733847D01*
X154267370Y-121729321D01*
X154254088Y-121628435D01*
X154250000Y-121600000D01*
X154254088Y-121571567D01*
X154267370Y-121470678D01*
X154269245Y-121466151D01*
X154270254Y-121459134D01*
X154290662Y-121414444D01*
X154317285Y-121350173D01*
X154324026Y-121341387D01*
X154329373Y-121329680D01*
X154361145Y-121293012D01*
X154396690Y-121246690D01*
X154410399Y-121236170D01*
X154422570Y-121222125D01*
X154460325Y-121197860D01*
X154500173Y-121167285D01*
X154521916Y-121158278D01*
X154542292Y-121145184D01*
X154580891Y-121133850D01*
X154620678Y-121117370D01*
X154650297Y-121113470D01*
X154678843Y-121105089D01*
X154713965Y-121105089D01*
X154750000Y-121100345D01*
X154786035Y-121105089D01*
G37*
G36*
X140436035Y-119405089D02*
G01*
X140471157Y-119405089D01*
X140499702Y-119413470D01*
X140529321Y-119417370D01*
X140569106Y-119433849D01*
X140607708Y-119445184D01*
X140628083Y-119458278D01*
X140649827Y-119467285D01*
X140689671Y-119497859D01*
X140727430Y-119522125D01*
X140739601Y-119536172D01*
X140753309Y-119546690D01*
X140788845Y-119593002D01*
X140820627Y-119629680D01*
X140825974Y-119641390D01*
X140832714Y-119650173D01*
X140859326Y-119714421D01*
X140879746Y-119759134D01*
X140880755Y-119766154D01*
X140882629Y-119770678D01*
X140895900Y-119871484D01*
X140900000Y-119900000D01*
X140895899Y-119928517D01*
X140882629Y-120029321D01*
X140880755Y-120033843D01*
X140879746Y-120040866D01*
X140859324Y-120085583D01*
X140832714Y-120149827D01*
X140825974Y-120158609D01*
X140820627Y-120170320D01*
X140788841Y-120207002D01*
X140753309Y-120253309D01*
X140739604Y-120263824D01*
X140727430Y-120277875D01*
X140689663Y-120302145D01*
X140649827Y-120332714D01*
X140628087Y-120341718D01*
X140607708Y-120354816D01*
X140569097Y-120366152D01*
X140529321Y-120382629D01*
X140499708Y-120386527D01*
X140471157Y-120394911D01*
X140436028Y-120394911D01*
X140400000Y-120399654D01*
X140363972Y-120394911D01*
X140328843Y-120394911D01*
X140300291Y-120386527D01*
X140270678Y-120382629D01*
X140230898Y-120366151D01*
X140192292Y-120354816D01*
X140171913Y-120341719D01*
X140150172Y-120332714D01*
X140110330Y-120302142D01*
X140072570Y-120277875D01*
X140060397Y-120263827D01*
X140046690Y-120253309D01*
X140011149Y-120206992D01*
X139979373Y-120170320D01*
X139974026Y-120158612D01*
X139967285Y-120149827D01*
X139940665Y-120085560D01*
X139920254Y-120040866D01*
X139919244Y-120033847D01*
X139917370Y-120029321D01*
X139904088Y-119928435D01*
X139900000Y-119900000D01*
X139904088Y-119871567D01*
X139917370Y-119770678D01*
X139919245Y-119766151D01*
X139920254Y-119759134D01*
X139940662Y-119714444D01*
X139967285Y-119650173D01*
X139974026Y-119641387D01*
X139979373Y-119629680D01*
X140011145Y-119593012D01*
X140046690Y-119546690D01*
X140060399Y-119536170D01*
X140072570Y-119522125D01*
X140110325Y-119497860D01*
X140150173Y-119467285D01*
X140171916Y-119458278D01*
X140192292Y-119445184D01*
X140230891Y-119433850D01*
X140270678Y-119417370D01*
X140300297Y-119413470D01*
X140328843Y-119405089D01*
X140363965Y-119405089D01*
X140400000Y-119400345D01*
X140436035Y-119405089D01*
G37*
G36*
X125316775Y-118866790D02*
G01*
X125429814Y-118932053D01*
X125522110Y-119024349D01*
X125587373Y-119137388D01*
X125621156Y-119263467D01*
X125621156Y-119393993D01*
X125587373Y-119520072D01*
X125522110Y-119633111D01*
X125429814Y-119725406D01*
X124682613Y-120161743D01*
X124623955Y-120190669D01*
X124497876Y-120224453D01*
X124367350Y-120224453D01*
X124241271Y-120190670D01*
X124128232Y-120125407D01*
X124035937Y-120033110D01*
X123970674Y-119920072D01*
X123936890Y-119793993D01*
X123936890Y-119663467D01*
X123970673Y-119537388D01*
X124035936Y-119424349D01*
X124128233Y-119332054D01*
X124875433Y-118895717D01*
X124934092Y-118866791D01*
X125060170Y-118833007D01*
X125190696Y-118833007D01*
X125316775Y-118866790D01*
G37*
G36*
X142096035Y-117955089D02*
G01*
X142131157Y-117955089D01*
X142159702Y-117963470D01*
X142189321Y-117967370D01*
X142229106Y-117983849D01*
X142267708Y-117995184D01*
X142288083Y-118008278D01*
X142309827Y-118017285D01*
X142349671Y-118047859D01*
X142387430Y-118072125D01*
X142399601Y-118086172D01*
X142413309Y-118096690D01*
X142448845Y-118143002D01*
X142480627Y-118179680D01*
X142485974Y-118191390D01*
X142492714Y-118200173D01*
X142519326Y-118264421D01*
X142539746Y-118309134D01*
X142540755Y-118316154D01*
X142542629Y-118320678D01*
X142555900Y-118421484D01*
X142560000Y-118450000D01*
X142555899Y-118478517D01*
X142542629Y-118579321D01*
X142540755Y-118583843D01*
X142539746Y-118590866D01*
X142519324Y-118635583D01*
X142492714Y-118699827D01*
X142485974Y-118708609D01*
X142480627Y-118720320D01*
X142448841Y-118757002D01*
X142413309Y-118803309D01*
X142399604Y-118813824D01*
X142387430Y-118827875D01*
X142349663Y-118852145D01*
X142309827Y-118882714D01*
X142288087Y-118891718D01*
X142267708Y-118904816D01*
X142229097Y-118916152D01*
X142189321Y-118932629D01*
X142159708Y-118936527D01*
X142131157Y-118944911D01*
X142096028Y-118944911D01*
X142060000Y-118949654D01*
X142023972Y-118944911D01*
X141988843Y-118944911D01*
X141960291Y-118936527D01*
X141930678Y-118932629D01*
X141890898Y-118916151D01*
X141852292Y-118904816D01*
X141831913Y-118891719D01*
X141810172Y-118882714D01*
X141770330Y-118852142D01*
X141732570Y-118827875D01*
X141720397Y-118813827D01*
X141706690Y-118803309D01*
X141671149Y-118756992D01*
X141639373Y-118720320D01*
X141634026Y-118708612D01*
X141627285Y-118699827D01*
X141600665Y-118635560D01*
X141580254Y-118590866D01*
X141579244Y-118583847D01*
X141577370Y-118579321D01*
X141564088Y-118478435D01*
X141560000Y-118450000D01*
X141564088Y-118421567D01*
X141577370Y-118320678D01*
X141579245Y-118316151D01*
X141580254Y-118309134D01*
X141600662Y-118264444D01*
X141627285Y-118200173D01*
X141634026Y-118191387D01*
X141639373Y-118179680D01*
X141671145Y-118143012D01*
X141706690Y-118096690D01*
X141720399Y-118086170D01*
X141732570Y-118072125D01*
X141770325Y-118047860D01*
X141810173Y-118017285D01*
X141831916Y-118008278D01*
X141852292Y-117995184D01*
X141890891Y-117983850D01*
X141930678Y-117967370D01*
X141960297Y-117963470D01*
X141988843Y-117955089D01*
X142023965Y-117955089D01*
X142060000Y-117950345D01*
X142096035Y-117955089D01*
G37*
G36*
X153136035Y-117255089D02*
G01*
X153171157Y-117255089D01*
X153199702Y-117263470D01*
X153229321Y-117267370D01*
X153269106Y-117283849D01*
X153307708Y-117295184D01*
X153328083Y-117308278D01*
X153349827Y-117317285D01*
X153389671Y-117347859D01*
X153427430Y-117372125D01*
X153439601Y-117386172D01*
X153453309Y-117396690D01*
X153488845Y-117443002D01*
X153520627Y-117479680D01*
X153525974Y-117491390D01*
X153532714Y-117500173D01*
X153559326Y-117564421D01*
X153579746Y-117609134D01*
X153580755Y-117616154D01*
X153582629Y-117620678D01*
X153595900Y-117721484D01*
X153600000Y-117750000D01*
X153595899Y-117778517D01*
X153582629Y-117879321D01*
X153580755Y-117883843D01*
X153579746Y-117890866D01*
X153559324Y-117935583D01*
X153532714Y-117999827D01*
X153525974Y-118008609D01*
X153520627Y-118020320D01*
X153488841Y-118057002D01*
X153453309Y-118103309D01*
X153439604Y-118113824D01*
X153427430Y-118127875D01*
X153389663Y-118152145D01*
X153349827Y-118182714D01*
X153328087Y-118191718D01*
X153307708Y-118204816D01*
X153269097Y-118216152D01*
X153229321Y-118232629D01*
X153199708Y-118236527D01*
X153171157Y-118244911D01*
X153136028Y-118244911D01*
X153100000Y-118249654D01*
X153063972Y-118244911D01*
X153028843Y-118244911D01*
X153000291Y-118236527D01*
X152970678Y-118232629D01*
X152930898Y-118216151D01*
X152892292Y-118204816D01*
X152871913Y-118191719D01*
X152850172Y-118182714D01*
X152810330Y-118152142D01*
X152772570Y-118127875D01*
X152760397Y-118113827D01*
X152746690Y-118103309D01*
X152711149Y-118056992D01*
X152679373Y-118020320D01*
X152674026Y-118008612D01*
X152667285Y-117999827D01*
X152640665Y-117935560D01*
X152620254Y-117890866D01*
X152619244Y-117883847D01*
X152617370Y-117879321D01*
X152604088Y-117778435D01*
X152600000Y-117750000D01*
X152604088Y-117721567D01*
X152617370Y-117620678D01*
X152619245Y-117616151D01*
X152620254Y-117609134D01*
X152640662Y-117564444D01*
X152667285Y-117500173D01*
X152674026Y-117491387D01*
X152679373Y-117479680D01*
X152711145Y-117443012D01*
X152746690Y-117396690D01*
X152760399Y-117386170D01*
X152772570Y-117372125D01*
X152810325Y-117347860D01*
X152850173Y-117317285D01*
X152871916Y-117308278D01*
X152892292Y-117295184D01*
X152930891Y-117283850D01*
X152970678Y-117267370D01*
X153000297Y-117263470D01*
X153028843Y-117255089D01*
X153063965Y-117255089D01*
X153100000Y-117250345D01*
X153136035Y-117255089D01*
G37*
G36*
X129066665Y-116701790D02*
G01*
X129179704Y-116767053D01*
X129271999Y-116859350D01*
X129337262Y-116972388D01*
X129371046Y-117098467D01*
X129371046Y-117228993D01*
X129337263Y-117355072D01*
X129272000Y-117468111D01*
X129179703Y-117560406D01*
X128172695Y-118146743D01*
X128114037Y-118175669D01*
X127987958Y-118209453D01*
X127857432Y-118209453D01*
X127731353Y-118175670D01*
X127618314Y-118110407D01*
X127526019Y-118018110D01*
X127460756Y-117905072D01*
X127426972Y-117778993D01*
X127426972Y-117648467D01*
X127460755Y-117522388D01*
X127526018Y-117409349D01*
X127618315Y-117317054D01*
X128625323Y-116730717D01*
X128683981Y-116701791D01*
X128810060Y-116668007D01*
X128940586Y-116668007D01*
X129066665Y-116701790D01*
G37*
G36*
X143836035Y-116805089D02*
G01*
X143871157Y-116805089D01*
X143899702Y-116813470D01*
X143929321Y-116817370D01*
X143969106Y-116833849D01*
X144007708Y-116845184D01*
X144028083Y-116858278D01*
X144049827Y-116867285D01*
X144089671Y-116897859D01*
X144127430Y-116922125D01*
X144139601Y-116936172D01*
X144153309Y-116946690D01*
X144188845Y-116993002D01*
X144220627Y-117029680D01*
X144225974Y-117041390D01*
X144232714Y-117050173D01*
X144259326Y-117114421D01*
X144279746Y-117159134D01*
X144280755Y-117166154D01*
X144282629Y-117170678D01*
X144295900Y-117271484D01*
X144300000Y-117300000D01*
X144295899Y-117328517D01*
X144282629Y-117429321D01*
X144280755Y-117433843D01*
X144279746Y-117440866D01*
X144259324Y-117485583D01*
X144232714Y-117549827D01*
X144225974Y-117558609D01*
X144220627Y-117570320D01*
X144188841Y-117607002D01*
X144153309Y-117653309D01*
X144139604Y-117663824D01*
X144127430Y-117677875D01*
X144089663Y-117702145D01*
X144049827Y-117732714D01*
X144028087Y-117741718D01*
X144007708Y-117754816D01*
X143969097Y-117766152D01*
X143929321Y-117782629D01*
X143899708Y-117786527D01*
X143871157Y-117794911D01*
X143836028Y-117794911D01*
X143800000Y-117799654D01*
X143763972Y-117794911D01*
X143728843Y-117794911D01*
X143700291Y-117786527D01*
X143670678Y-117782629D01*
X143630898Y-117766151D01*
X143592292Y-117754816D01*
X143571913Y-117741719D01*
X143550172Y-117732714D01*
X143510330Y-117702142D01*
X143472570Y-117677875D01*
X143460397Y-117663827D01*
X143446690Y-117653309D01*
X143411149Y-117606992D01*
X143379373Y-117570320D01*
X143374026Y-117558612D01*
X143367285Y-117549827D01*
X143340665Y-117485560D01*
X143320254Y-117440866D01*
X143319244Y-117433847D01*
X143317370Y-117429321D01*
X143304088Y-117328435D01*
X143300000Y-117300000D01*
X143304088Y-117271567D01*
X143317370Y-117170678D01*
X143319245Y-117166151D01*
X143320254Y-117159134D01*
X143340662Y-117114444D01*
X143367285Y-117050173D01*
X143374026Y-117041387D01*
X143379373Y-117029680D01*
X143411145Y-116993012D01*
X143446690Y-116946690D01*
X143460399Y-116936170D01*
X143472570Y-116922125D01*
X143510325Y-116897860D01*
X143550173Y-116867285D01*
X143571916Y-116858278D01*
X143592292Y-116845184D01*
X143630891Y-116833850D01*
X143670678Y-116817370D01*
X143700297Y-116813470D01*
X143728843Y-116805089D01*
X143763965Y-116805089D01*
X143800000Y-116800345D01*
X143836035Y-116805089D01*
G37*
G36*
X138936035Y-116605089D02*
G01*
X138971157Y-116605089D01*
X138999702Y-116613470D01*
X139029321Y-116617370D01*
X139069106Y-116633849D01*
X139107708Y-116645184D01*
X139128083Y-116658278D01*
X139149827Y-116667285D01*
X139189671Y-116697859D01*
X139227430Y-116722125D01*
X139239601Y-116736172D01*
X139253309Y-116746690D01*
X139288845Y-116793002D01*
X139320627Y-116829680D01*
X139325974Y-116841390D01*
X139332714Y-116850173D01*
X139359326Y-116914421D01*
X139379746Y-116959134D01*
X139380755Y-116966154D01*
X139382629Y-116970678D01*
X139395900Y-117071484D01*
X139400000Y-117100000D01*
X139395899Y-117128517D01*
X139382629Y-117229321D01*
X139380755Y-117233843D01*
X139379746Y-117240866D01*
X139359324Y-117285583D01*
X139332714Y-117349827D01*
X139325974Y-117358609D01*
X139320627Y-117370320D01*
X139288841Y-117407002D01*
X139253309Y-117453309D01*
X139239604Y-117463824D01*
X139227430Y-117477875D01*
X139189663Y-117502145D01*
X139149827Y-117532714D01*
X139128087Y-117541718D01*
X139107708Y-117554816D01*
X139069097Y-117566152D01*
X139029321Y-117582629D01*
X138999708Y-117586527D01*
X138971157Y-117594911D01*
X138936028Y-117594911D01*
X138900000Y-117599654D01*
X138863972Y-117594911D01*
X138828843Y-117594911D01*
X138800291Y-117586527D01*
X138770678Y-117582629D01*
X138730898Y-117566151D01*
X138692292Y-117554816D01*
X138671913Y-117541719D01*
X138650172Y-117532714D01*
X138610330Y-117502142D01*
X138572570Y-117477875D01*
X138560397Y-117463827D01*
X138546690Y-117453309D01*
X138511149Y-117406992D01*
X138479373Y-117370320D01*
X138474026Y-117358612D01*
X138467285Y-117349827D01*
X138440665Y-117285560D01*
X138420254Y-117240866D01*
X138419244Y-117233847D01*
X138417370Y-117229321D01*
X138404088Y-117128435D01*
X138400000Y-117100000D01*
X138404088Y-117071567D01*
X138417370Y-116970678D01*
X138419245Y-116966151D01*
X138420254Y-116959134D01*
X138440662Y-116914444D01*
X138467285Y-116850173D01*
X138474026Y-116841387D01*
X138479373Y-116829680D01*
X138511145Y-116793012D01*
X138546690Y-116746690D01*
X138560399Y-116736170D01*
X138572570Y-116722125D01*
X138610325Y-116697860D01*
X138650173Y-116667285D01*
X138671916Y-116658278D01*
X138692292Y-116645184D01*
X138730891Y-116633850D01*
X138770678Y-116617370D01*
X138800297Y-116613470D01*
X138828843Y-116605089D01*
X138863965Y-116605089D01*
X138900000Y-116600345D01*
X138936035Y-116605089D01*
G37*
G36*
X147486035Y-116305089D02*
G01*
X147521157Y-116305089D01*
X147549702Y-116313470D01*
X147579321Y-116317370D01*
X147619106Y-116333849D01*
X147657708Y-116345184D01*
X147678083Y-116358278D01*
X147699827Y-116367285D01*
X147739671Y-116397859D01*
X147777430Y-116422125D01*
X147789601Y-116436172D01*
X147803309Y-116446690D01*
X147838845Y-116493002D01*
X147870627Y-116529680D01*
X147875974Y-116541390D01*
X147882714Y-116550173D01*
X147909326Y-116614421D01*
X147929746Y-116659134D01*
X147930755Y-116666154D01*
X147932629Y-116670678D01*
X147945900Y-116771484D01*
X147950000Y-116800000D01*
X147945899Y-116828517D01*
X147932629Y-116929321D01*
X147930755Y-116933843D01*
X147929746Y-116940866D01*
X147909324Y-116985583D01*
X147882714Y-117049827D01*
X147875974Y-117058609D01*
X147870627Y-117070320D01*
X147838841Y-117107002D01*
X147803309Y-117153309D01*
X147789604Y-117163824D01*
X147777430Y-117177875D01*
X147739663Y-117202145D01*
X147699827Y-117232714D01*
X147678087Y-117241718D01*
X147657708Y-117254816D01*
X147619097Y-117266152D01*
X147579321Y-117282629D01*
X147549708Y-117286527D01*
X147521157Y-117294911D01*
X147486028Y-117294911D01*
X147450000Y-117299654D01*
X147413972Y-117294911D01*
X147378843Y-117294911D01*
X147350291Y-117286527D01*
X147320678Y-117282629D01*
X147280898Y-117266151D01*
X147242292Y-117254816D01*
X147221913Y-117241719D01*
X147200172Y-117232714D01*
X147160330Y-117202142D01*
X147122570Y-117177875D01*
X147110397Y-117163827D01*
X147096690Y-117153309D01*
X147061149Y-117106992D01*
X147029373Y-117070320D01*
X147024026Y-117058612D01*
X147017285Y-117049827D01*
X146990665Y-116985560D01*
X146970254Y-116940866D01*
X146969244Y-116933847D01*
X146967370Y-116929321D01*
X146954088Y-116828435D01*
X146950000Y-116800000D01*
X146954088Y-116771567D01*
X146967370Y-116670678D01*
X146969245Y-116666151D01*
X146970254Y-116659134D01*
X146990662Y-116614444D01*
X147017285Y-116550173D01*
X147024026Y-116541387D01*
X147029373Y-116529680D01*
X147061145Y-116493012D01*
X147096690Y-116446690D01*
X147110399Y-116436170D01*
X147122570Y-116422125D01*
X147160325Y-116397860D01*
X147200173Y-116367285D01*
X147221916Y-116358278D01*
X147242292Y-116345184D01*
X147280891Y-116333850D01*
X147320678Y-116317370D01*
X147350297Y-116313470D01*
X147378843Y-116305089D01*
X147413965Y-116305089D01*
X147450000Y-116300345D01*
X147486035Y-116305089D01*
G37*
G36*
X160536035Y-116205089D02*
G01*
X160571157Y-116205089D01*
X160599702Y-116213470D01*
X160629321Y-116217370D01*
X160669106Y-116233849D01*
X160707708Y-116245184D01*
X160728083Y-116258278D01*
X160749827Y-116267285D01*
X160789671Y-116297859D01*
X160827430Y-116322125D01*
X160839601Y-116336172D01*
X160853309Y-116346690D01*
X160888845Y-116393002D01*
X160920627Y-116429680D01*
X160925974Y-116441390D01*
X160932714Y-116450173D01*
X160959326Y-116514421D01*
X160979746Y-116559134D01*
X160980755Y-116566154D01*
X160982629Y-116570678D01*
X160995900Y-116671484D01*
X161000000Y-116700000D01*
X160995899Y-116728517D01*
X160982629Y-116829321D01*
X160980755Y-116833843D01*
X160979746Y-116840866D01*
X160959324Y-116885583D01*
X160932714Y-116949827D01*
X160925974Y-116958609D01*
X160920627Y-116970320D01*
X160888841Y-117007002D01*
X160853309Y-117053309D01*
X160839604Y-117063824D01*
X160827430Y-117077875D01*
X160789663Y-117102145D01*
X160749827Y-117132714D01*
X160728087Y-117141718D01*
X160707708Y-117154816D01*
X160669097Y-117166152D01*
X160629321Y-117182629D01*
X160599708Y-117186527D01*
X160571157Y-117194911D01*
X160536028Y-117194911D01*
X160500000Y-117199654D01*
X160463972Y-117194911D01*
X160428843Y-117194911D01*
X160400291Y-117186527D01*
X160370678Y-117182629D01*
X160330898Y-117166151D01*
X160292292Y-117154816D01*
X160271913Y-117141719D01*
X160250172Y-117132714D01*
X160210330Y-117102142D01*
X160172570Y-117077875D01*
X160160397Y-117063827D01*
X160146690Y-117053309D01*
X160111149Y-117006992D01*
X160079373Y-116970320D01*
X160074026Y-116958612D01*
X160067285Y-116949827D01*
X160040665Y-116885560D01*
X160020254Y-116840866D01*
X160019244Y-116833847D01*
X160017370Y-116829321D01*
X160004088Y-116728435D01*
X160000000Y-116700000D01*
X160004088Y-116671567D01*
X160017370Y-116570678D01*
X160019245Y-116566151D01*
X160020254Y-116559134D01*
X160040662Y-116514444D01*
X160067285Y-116450173D01*
X160074026Y-116441387D01*
X160079373Y-116429680D01*
X160111145Y-116393012D01*
X160146690Y-116346690D01*
X160160399Y-116336170D01*
X160172570Y-116322125D01*
X160210325Y-116297860D01*
X160250173Y-116267285D01*
X160271916Y-116258278D01*
X160292292Y-116245184D01*
X160330891Y-116233850D01*
X160370678Y-116217370D01*
X160400297Y-116213470D01*
X160428843Y-116205089D01*
X160463965Y-116205089D01*
X160500000Y-116200345D01*
X160536035Y-116205089D01*
G37*
G36*
X127279022Y-116130250D02*
G01*
X127307432Y-116130250D01*
X127329319Y-116138216D01*
X127351274Y-116141694D01*
X127382283Y-116157494D01*
X127413496Y-116168855D01*
X127427280Y-116180421D01*
X127441730Y-116187784D01*
X127471327Y-116217381D01*
X127499960Y-116241407D01*
X127506253Y-116252307D01*
X127513524Y-116259578D01*
X127536607Y-116304882D01*
X127556396Y-116339156D01*
X127557626Y-116346132D01*
X127559614Y-116350034D01*
X127571091Y-116422496D01*
X127575996Y-116450313D01*
X127571090Y-116478131D01*
X127559614Y-116550591D01*
X127557626Y-116554491D01*
X127556396Y-116561470D01*
X127536603Y-116595751D01*
X127513524Y-116641047D01*
X127506254Y-116648316D01*
X127499960Y-116659219D01*
X127471320Y-116683250D01*
X127441730Y-116712841D01*
X127427283Y-116720201D01*
X127413496Y-116731771D01*
X127382277Y-116743133D01*
X127351274Y-116758931D01*
X127329324Y-116762407D01*
X127307432Y-116770376D01*
X127279016Y-116770376D01*
X127250996Y-116774814D01*
X127222976Y-116770376D01*
X127194560Y-116770376D01*
X127172667Y-116762407D01*
X127150717Y-116758931D01*
X127119711Y-116743132D01*
X127088496Y-116731771D01*
X127074710Y-116720203D01*
X127060261Y-116712841D01*
X127030664Y-116683244D01*
X127002032Y-116659219D01*
X126995738Y-116648318D01*
X126988467Y-116641047D01*
X126965379Y-116595736D01*
X126945596Y-116561470D01*
X126944366Y-116554494D01*
X126942377Y-116550591D01*
X126930891Y-116478076D01*
X126925996Y-116450313D01*
X126930890Y-116422552D01*
X126942377Y-116350034D01*
X126944366Y-116346129D01*
X126945596Y-116339156D01*
X126965375Y-116304897D01*
X126988467Y-116259578D01*
X126995739Y-116252305D01*
X127002032Y-116241407D01*
X127030658Y-116217386D01*
X127060261Y-116187784D01*
X127074713Y-116180420D01*
X127088496Y-116168855D01*
X127119704Y-116157495D01*
X127150717Y-116141694D01*
X127172672Y-116138216D01*
X127194560Y-116130250D01*
X127222970Y-116130250D01*
X127250996Y-116125811D01*
X127279022Y-116130250D01*
G37*
G36*
X175205907Y-113754602D02*
G01*
X175248664Y-113754602D01*
X175296901Y-113764854D01*
X175343081Y-113770058D01*
X175376655Y-113781806D01*
X175412209Y-113789363D01*
X175463445Y-113812175D01*
X175512171Y-113829225D01*
X175537536Y-113845163D01*
X175564953Y-113857370D01*
X175616075Y-113894512D01*
X175663856Y-113924535D01*
X175681013Y-113941692D01*
X175700223Y-113955649D01*
X175747712Y-114008391D01*
X175790529Y-114051208D01*
X175800377Y-114066882D01*
X175812099Y-114079900D01*
X175852197Y-114149352D01*
X175885839Y-114202893D01*
X175890039Y-114214897D01*
X175895699Y-114224700D01*
X175924684Y-114313908D01*
X175945006Y-114371983D01*
X175945776Y-114378820D01*
X175947366Y-114383713D01*
X175961775Y-114520818D01*
X175965064Y-114550000D01*
X175961775Y-114579184D01*
X175947366Y-114716286D01*
X175945776Y-114721177D01*
X175945006Y-114728017D01*
X175924680Y-114786104D01*
X175895699Y-114875299D01*
X175890040Y-114885099D01*
X175885839Y-114897107D01*
X175852190Y-114950658D01*
X175812099Y-115020099D01*
X175800379Y-115033114D01*
X175790529Y-115048792D01*
X175747703Y-115091617D01*
X175700223Y-115144350D01*
X175681017Y-115158303D01*
X175663856Y-115175465D01*
X175616065Y-115205493D01*
X175564953Y-115242629D01*
X175537542Y-115254833D01*
X175512171Y-115270775D01*
X175463434Y-115287828D01*
X175412209Y-115310636D01*
X175376661Y-115318191D01*
X175343081Y-115329942D01*
X175296898Y-115335145D01*
X175248664Y-115345398D01*
X175205907Y-115345398D01*
X175165064Y-115350000D01*
X175124221Y-115345398D01*
X175081464Y-115345398D01*
X175033228Y-115335145D01*
X174987047Y-115329942D01*
X174953467Y-115318192D01*
X174917918Y-115310636D01*
X174866688Y-115287826D01*
X174817957Y-115270775D01*
X174792588Y-115254834D01*
X174765174Y-115242629D01*
X174714055Y-115205489D01*
X174666272Y-115175465D01*
X174649113Y-115158306D01*
X174629904Y-115144350D01*
X174582414Y-115091607D01*
X174539599Y-115048792D01*
X174529750Y-115033118D01*
X174518028Y-115020099D01*
X174477925Y-114950639D01*
X174444289Y-114897107D01*
X174440089Y-114885104D01*
X174434428Y-114875299D01*
X174405433Y-114786064D01*
X174385122Y-114728017D01*
X174384351Y-114721182D01*
X174382761Y-114716286D01*
X174368337Y-114579052D01*
X174365064Y-114550000D01*
X174368337Y-114520950D01*
X174382761Y-114383713D01*
X174384352Y-114378816D01*
X174385122Y-114371983D01*
X174405429Y-114313948D01*
X174434428Y-114224700D01*
X174440089Y-114214893D01*
X174444289Y-114202893D01*
X174477918Y-114149371D01*
X174518028Y-114079900D01*
X174529752Y-114066878D01*
X174539599Y-114051208D01*
X174582405Y-114008401D01*
X174629904Y-113955649D01*
X174649116Y-113941690D01*
X174666272Y-113924535D01*
X174714049Y-113894514D01*
X174765175Y-113857370D01*
X174792591Y-113845162D01*
X174817957Y-113829225D01*
X174866679Y-113812176D01*
X174917918Y-113789363D01*
X174953473Y-113781805D01*
X174987047Y-113770058D01*
X175033225Y-113764854D01*
X175081464Y-113754602D01*
X175124221Y-113754602D01*
X175165064Y-113750000D01*
X175205907Y-113754602D01*
G37*
G36*
X151836035Y-114205089D02*
G01*
X151871157Y-114205089D01*
X151899702Y-114213470D01*
X151929321Y-114217370D01*
X151969106Y-114233849D01*
X152007708Y-114245184D01*
X152028083Y-114258278D01*
X152049827Y-114267285D01*
X152089671Y-114297859D01*
X152127430Y-114322125D01*
X152139601Y-114336172D01*
X152153309Y-114346690D01*
X152188845Y-114393002D01*
X152220627Y-114429680D01*
X152225974Y-114441390D01*
X152232714Y-114450173D01*
X152259326Y-114514421D01*
X152279746Y-114559134D01*
X152280755Y-114566154D01*
X152282629Y-114570678D01*
X152295900Y-114671484D01*
X152300000Y-114700000D01*
X152295899Y-114728517D01*
X152282629Y-114829321D01*
X152280755Y-114833843D01*
X152279746Y-114840866D01*
X152259324Y-114885583D01*
X152232714Y-114949827D01*
X152225974Y-114958609D01*
X152220627Y-114970320D01*
X152188841Y-115007002D01*
X152153309Y-115053309D01*
X152139604Y-115063824D01*
X152127430Y-115077875D01*
X152089663Y-115102145D01*
X152049827Y-115132714D01*
X152028087Y-115141718D01*
X152007708Y-115154816D01*
X151969097Y-115166152D01*
X151929321Y-115182629D01*
X151899708Y-115186527D01*
X151871157Y-115194911D01*
X151836028Y-115194911D01*
X151800000Y-115199654D01*
X151763972Y-115194911D01*
X151728843Y-115194911D01*
X151700291Y-115186527D01*
X151670678Y-115182629D01*
X151630898Y-115166151D01*
X151592292Y-115154816D01*
X151571913Y-115141719D01*
X151550172Y-115132714D01*
X151510330Y-115102142D01*
X151472570Y-115077875D01*
X151460397Y-115063827D01*
X151446690Y-115053309D01*
X151411149Y-115006992D01*
X151379373Y-114970320D01*
X151374026Y-114958612D01*
X151367285Y-114949827D01*
X151340665Y-114885560D01*
X151320254Y-114840866D01*
X151319244Y-114833847D01*
X151317370Y-114829321D01*
X151304088Y-114728435D01*
X151300000Y-114700000D01*
X151304088Y-114671567D01*
X151317370Y-114570678D01*
X151319245Y-114566151D01*
X151320254Y-114559134D01*
X151340662Y-114514444D01*
X151367285Y-114450173D01*
X151374026Y-114441387D01*
X151379373Y-114429680D01*
X151411145Y-114393012D01*
X151446690Y-114346690D01*
X151460399Y-114336170D01*
X151472570Y-114322125D01*
X151510325Y-114297860D01*
X151550173Y-114267285D01*
X151571916Y-114258278D01*
X151592292Y-114245184D01*
X151630891Y-114233850D01*
X151670678Y-114217370D01*
X151700297Y-114213470D01*
X151728843Y-114205089D01*
X151763965Y-114205089D01*
X151800000Y-114200345D01*
X151836035Y-114205089D01*
G37*
G36*
X136636035Y-113805089D02*
G01*
X136671157Y-113805089D01*
X136699702Y-113813470D01*
X136729321Y-113817370D01*
X136769106Y-113833849D01*
X136807708Y-113845184D01*
X136828083Y-113858278D01*
X136849827Y-113867285D01*
X136889671Y-113897859D01*
X136927430Y-113922125D01*
X136939601Y-113936172D01*
X136953309Y-113946690D01*
X136988845Y-113993002D01*
X137020627Y-114029680D01*
X137025974Y-114041390D01*
X137032714Y-114050173D01*
X137059326Y-114114421D01*
X137079746Y-114159134D01*
X137080755Y-114166154D01*
X137082629Y-114170678D01*
X137095900Y-114271484D01*
X137100000Y-114300000D01*
X137095899Y-114328517D01*
X137082629Y-114429321D01*
X137080755Y-114433843D01*
X137079746Y-114440866D01*
X137059324Y-114485583D01*
X137032714Y-114549827D01*
X137025974Y-114558609D01*
X137020627Y-114570320D01*
X136988841Y-114607002D01*
X136953309Y-114653309D01*
X136939604Y-114663824D01*
X136927430Y-114677875D01*
X136889663Y-114702145D01*
X136849827Y-114732714D01*
X136828087Y-114741718D01*
X136807708Y-114754816D01*
X136769097Y-114766152D01*
X136729321Y-114782629D01*
X136699708Y-114786527D01*
X136671157Y-114794911D01*
X136636028Y-114794911D01*
X136600000Y-114799654D01*
X136563972Y-114794911D01*
X136528843Y-114794911D01*
X136500291Y-114786527D01*
X136470678Y-114782629D01*
X136430898Y-114766151D01*
X136392292Y-114754816D01*
X136371913Y-114741719D01*
X136350172Y-114732714D01*
X136310330Y-114702142D01*
X136272570Y-114677875D01*
X136260397Y-114663827D01*
X136246690Y-114653309D01*
X136211149Y-114606992D01*
X136179373Y-114570320D01*
X136174026Y-114558612D01*
X136167285Y-114549827D01*
X136140665Y-114485560D01*
X136120254Y-114440866D01*
X136119244Y-114433847D01*
X136117370Y-114429321D01*
X136104088Y-114328435D01*
X136100000Y-114300000D01*
X136104088Y-114271567D01*
X136117370Y-114170678D01*
X136119245Y-114166151D01*
X136120254Y-114159134D01*
X136140662Y-114114444D01*
X136167285Y-114050173D01*
X136174026Y-114041387D01*
X136179373Y-114029680D01*
X136211145Y-113993012D01*
X136246690Y-113946690D01*
X136260399Y-113936170D01*
X136272570Y-113922125D01*
X136310325Y-113897860D01*
X136350173Y-113867285D01*
X136371916Y-113858278D01*
X136392292Y-113845184D01*
X136430891Y-113833850D01*
X136470678Y-113817370D01*
X136500297Y-113813470D01*
X136528843Y-113805089D01*
X136563965Y-113805089D01*
X136600000Y-113800345D01*
X136636035Y-113805089D01*
G37*
G36*
X149636035Y-113005089D02*
G01*
X149671157Y-113005089D01*
X149699702Y-113013470D01*
X149729321Y-113017370D01*
X149769106Y-113033849D01*
X149807708Y-113045184D01*
X149828083Y-113058278D01*
X149849827Y-113067285D01*
X149889671Y-113097859D01*
X149927430Y-113122125D01*
X149939601Y-113136172D01*
X149953309Y-113146690D01*
X149988845Y-113193002D01*
X150020627Y-113229680D01*
X150025974Y-113241390D01*
X150032714Y-113250173D01*
X150059326Y-113314421D01*
X150079746Y-113359134D01*
X150080755Y-113366154D01*
X150082629Y-113370678D01*
X150095900Y-113471484D01*
X150100000Y-113500000D01*
X150095899Y-113528517D01*
X150082629Y-113629321D01*
X150080755Y-113633843D01*
X150079746Y-113640866D01*
X150059324Y-113685583D01*
X150032714Y-113749827D01*
X150025974Y-113758609D01*
X150020627Y-113770320D01*
X149988841Y-113807002D01*
X149953309Y-113853309D01*
X149939604Y-113863824D01*
X149927430Y-113877875D01*
X149889663Y-113902145D01*
X149849827Y-113932714D01*
X149828087Y-113941718D01*
X149807708Y-113954816D01*
X149769097Y-113966152D01*
X149729321Y-113982629D01*
X149699708Y-113986527D01*
X149671157Y-113994911D01*
X149636028Y-113994911D01*
X149600000Y-113999654D01*
X149563972Y-113994911D01*
X149528843Y-113994911D01*
X149500291Y-113986527D01*
X149470678Y-113982629D01*
X149430898Y-113966151D01*
X149392292Y-113954816D01*
X149371913Y-113941719D01*
X149350172Y-113932714D01*
X149310330Y-113902142D01*
X149272570Y-113877875D01*
X149260397Y-113863827D01*
X149246690Y-113853309D01*
X149211149Y-113806992D01*
X149179373Y-113770320D01*
X149174026Y-113758612D01*
X149167285Y-113749827D01*
X149140665Y-113685560D01*
X149120254Y-113640866D01*
X149119244Y-113633847D01*
X149117370Y-113629321D01*
X149104088Y-113528435D01*
X149100000Y-113500000D01*
X149104088Y-113471567D01*
X149117370Y-113370678D01*
X149119245Y-113366151D01*
X149120254Y-113359134D01*
X149140662Y-113314444D01*
X149167285Y-113250173D01*
X149174026Y-113241387D01*
X149179373Y-113229680D01*
X149211145Y-113193012D01*
X149246690Y-113146690D01*
X149260399Y-113136170D01*
X149272570Y-113122125D01*
X149310325Y-113097860D01*
X149350173Y-113067285D01*
X149371916Y-113058278D01*
X149392292Y-113045184D01*
X149430891Y-113033850D01*
X149470678Y-113017370D01*
X149500297Y-113013470D01*
X149528843Y-113005089D01*
X149563965Y-113005089D01*
X149600000Y-113000345D01*
X149636035Y-113005089D01*
G37*
G36*
X158636035Y-112255089D02*
G01*
X158671157Y-112255089D01*
X158699702Y-112263470D01*
X158729321Y-112267370D01*
X158769106Y-112283849D01*
X158807708Y-112295184D01*
X158828083Y-112308278D01*
X158849827Y-112317285D01*
X158889671Y-112347859D01*
X158927430Y-112372125D01*
X158939601Y-112386172D01*
X158953309Y-112396690D01*
X158988845Y-112443002D01*
X159020627Y-112479680D01*
X159025974Y-112491390D01*
X159032714Y-112500173D01*
X159059326Y-112564421D01*
X159079746Y-112609134D01*
X159080755Y-112616154D01*
X159082629Y-112620678D01*
X159095900Y-112721484D01*
X159100000Y-112750000D01*
X159095899Y-112778517D01*
X159082629Y-112879321D01*
X159080755Y-112883843D01*
X159079746Y-112890866D01*
X159059324Y-112935583D01*
X159032714Y-112999827D01*
X159025974Y-113008609D01*
X159020627Y-113020320D01*
X158988841Y-113057002D01*
X158953309Y-113103309D01*
X158939604Y-113113824D01*
X158927430Y-113127875D01*
X158889663Y-113152145D01*
X158849827Y-113182714D01*
X158828087Y-113191718D01*
X158807708Y-113204816D01*
X158769097Y-113216152D01*
X158729321Y-113232629D01*
X158699708Y-113236527D01*
X158671157Y-113244911D01*
X158636028Y-113244911D01*
X158600000Y-113249654D01*
X158563972Y-113244911D01*
X158528843Y-113244911D01*
X158500291Y-113236527D01*
X158470678Y-113232629D01*
X158430898Y-113216151D01*
X158392292Y-113204816D01*
X158371913Y-113191719D01*
X158350172Y-113182714D01*
X158310330Y-113152142D01*
X158272570Y-113127875D01*
X158260397Y-113113827D01*
X158246690Y-113103309D01*
X158211149Y-113056992D01*
X158179373Y-113020320D01*
X158174026Y-113008612D01*
X158167285Y-112999827D01*
X158140665Y-112935560D01*
X158120254Y-112890866D01*
X158119244Y-112883847D01*
X158117370Y-112879321D01*
X158104088Y-112778435D01*
X158100000Y-112750000D01*
X158104088Y-112721567D01*
X158117370Y-112620678D01*
X158119245Y-112616151D01*
X158120254Y-112609134D01*
X158140662Y-112564444D01*
X158167285Y-112500173D01*
X158174026Y-112491387D01*
X158179373Y-112479680D01*
X158211145Y-112443012D01*
X158246690Y-112396690D01*
X158260399Y-112386170D01*
X158272570Y-112372125D01*
X158310325Y-112347860D01*
X158350173Y-112317285D01*
X158371916Y-112308278D01*
X158392292Y-112295184D01*
X158430891Y-112283850D01*
X158470678Y-112267370D01*
X158500297Y-112263470D01*
X158528843Y-112255089D01*
X158563965Y-112255089D01*
X158600000Y-112250345D01*
X158636035Y-112255089D01*
G37*
G36*
X120996775Y-111384330D02*
G01*
X121109814Y-111449593D01*
X121202110Y-111541889D01*
X121267373Y-111654928D01*
X121301156Y-111781007D01*
X121301156Y-111911533D01*
X121267373Y-112037612D01*
X121202110Y-112150651D01*
X121109814Y-112242946D01*
X120362613Y-112679283D01*
X120303955Y-112708209D01*
X120177876Y-112741993D01*
X120047350Y-112741993D01*
X119921271Y-112708210D01*
X119808232Y-112642947D01*
X119715937Y-112550650D01*
X119650674Y-112437612D01*
X119616890Y-112311533D01*
X119616890Y-112181007D01*
X119650673Y-112054928D01*
X119715936Y-111941889D01*
X119808233Y-111849594D01*
X120555433Y-111413257D01*
X120614092Y-111384331D01*
X120740170Y-111350547D01*
X120870696Y-111350547D01*
X120996775Y-111384330D01*
G37*
G36*
X170006094Y-110740942D02*
G01*
X170048851Y-110740942D01*
X170097088Y-110751194D01*
X170143268Y-110756398D01*
X170176842Y-110768146D01*
X170212396Y-110775703D01*
X170263632Y-110798515D01*
X170312358Y-110815565D01*
X170337723Y-110831503D01*
X170365140Y-110843710D01*
X170416262Y-110880852D01*
X170464043Y-110910875D01*
X170481200Y-110928032D01*
X170500410Y-110941989D01*
X170547899Y-110994731D01*
X170590716Y-111037548D01*
X170600564Y-111053222D01*
X170612286Y-111066240D01*
X170652384Y-111135692D01*
X170686026Y-111189233D01*
X170690226Y-111201237D01*
X170695886Y-111211040D01*
X170724871Y-111300248D01*
X170745193Y-111358323D01*
X170745963Y-111365160D01*
X170747553Y-111370053D01*
X170761962Y-111507158D01*
X170765251Y-111536340D01*
X170761962Y-111565524D01*
X170747553Y-111702626D01*
X170745963Y-111707517D01*
X170745193Y-111714357D01*
X170724867Y-111772444D01*
X170695886Y-111861639D01*
X170690227Y-111871439D01*
X170686026Y-111883447D01*
X170652377Y-111936998D01*
X170612286Y-112006439D01*
X170600566Y-112019454D01*
X170590716Y-112035132D01*
X170547890Y-112077957D01*
X170500410Y-112130690D01*
X170481204Y-112144643D01*
X170464043Y-112161805D01*
X170416252Y-112191833D01*
X170365140Y-112228969D01*
X170337729Y-112241173D01*
X170312358Y-112257115D01*
X170263621Y-112274168D01*
X170212396Y-112296976D01*
X170176848Y-112304531D01*
X170143268Y-112316282D01*
X170097085Y-112321485D01*
X170048851Y-112331738D01*
X170006094Y-112331738D01*
X169965251Y-112336340D01*
X169924408Y-112331738D01*
X169881651Y-112331738D01*
X169833415Y-112321485D01*
X169787234Y-112316282D01*
X169753654Y-112304532D01*
X169718105Y-112296976D01*
X169666875Y-112274166D01*
X169618144Y-112257115D01*
X169592775Y-112241174D01*
X169565361Y-112228969D01*
X169514242Y-112191829D01*
X169466459Y-112161805D01*
X169449300Y-112144646D01*
X169430091Y-112130690D01*
X169382601Y-112077947D01*
X169339786Y-112035132D01*
X169329937Y-112019458D01*
X169318215Y-112006439D01*
X169278112Y-111936979D01*
X169244476Y-111883447D01*
X169240276Y-111871444D01*
X169234615Y-111861639D01*
X169205620Y-111772404D01*
X169185309Y-111714357D01*
X169184538Y-111707522D01*
X169182948Y-111702626D01*
X169168524Y-111565392D01*
X169165251Y-111536340D01*
X169168524Y-111507290D01*
X169182948Y-111370053D01*
X169184539Y-111365156D01*
X169185309Y-111358323D01*
X169205616Y-111300288D01*
X169234615Y-111211040D01*
X169240276Y-111201233D01*
X169244476Y-111189233D01*
X169278105Y-111135711D01*
X169318215Y-111066240D01*
X169329939Y-111053218D01*
X169339786Y-111037548D01*
X169382592Y-110994741D01*
X169430091Y-110941989D01*
X169449303Y-110928030D01*
X169466459Y-110910875D01*
X169514236Y-110880854D01*
X169565362Y-110843710D01*
X169592778Y-110831502D01*
X169618144Y-110815565D01*
X169666866Y-110798516D01*
X169718105Y-110775703D01*
X169753660Y-110768145D01*
X169787234Y-110756398D01*
X169833412Y-110751194D01*
X169881651Y-110740942D01*
X169924408Y-110740942D01*
X169965251Y-110736340D01*
X170006094Y-110740942D01*
G37*
G36*
X124389022Y-111124624D02*
G01*
X124417432Y-111124624D01*
X124439319Y-111132590D01*
X124461274Y-111136068D01*
X124492283Y-111151868D01*
X124523496Y-111163229D01*
X124537280Y-111174795D01*
X124551730Y-111182158D01*
X124581327Y-111211755D01*
X124609960Y-111235781D01*
X124616253Y-111246681D01*
X124623524Y-111253952D01*
X124646607Y-111299256D01*
X124666396Y-111333530D01*
X124667626Y-111340506D01*
X124669614Y-111344408D01*
X124681091Y-111416870D01*
X124685996Y-111444687D01*
X124681090Y-111472505D01*
X124669614Y-111544965D01*
X124667626Y-111548865D01*
X124666396Y-111555844D01*
X124646603Y-111590125D01*
X124623524Y-111635421D01*
X124616254Y-111642690D01*
X124609960Y-111653593D01*
X124581320Y-111677624D01*
X124551730Y-111707215D01*
X124537283Y-111714575D01*
X124523496Y-111726145D01*
X124492277Y-111737507D01*
X124461274Y-111753305D01*
X124439324Y-111756781D01*
X124417432Y-111764750D01*
X124389016Y-111764750D01*
X124360996Y-111769188D01*
X124332976Y-111764750D01*
X124304560Y-111764750D01*
X124282667Y-111756781D01*
X124260717Y-111753305D01*
X124229711Y-111737506D01*
X124198496Y-111726145D01*
X124184710Y-111714577D01*
X124170261Y-111707215D01*
X124140664Y-111677618D01*
X124112032Y-111653593D01*
X124105738Y-111642692D01*
X124098467Y-111635421D01*
X124075379Y-111590110D01*
X124055596Y-111555844D01*
X124054366Y-111548868D01*
X124052377Y-111544965D01*
X124040891Y-111472450D01*
X124035996Y-111444687D01*
X124040890Y-111416926D01*
X124052377Y-111344408D01*
X124054366Y-111340503D01*
X124055596Y-111333530D01*
X124075375Y-111299271D01*
X124098467Y-111253952D01*
X124105739Y-111246679D01*
X124112032Y-111235781D01*
X124140658Y-111211760D01*
X124170261Y-111182158D01*
X124184713Y-111174794D01*
X124198496Y-111163229D01*
X124229704Y-111151869D01*
X124260717Y-111136068D01*
X124282672Y-111132590D01*
X124304560Y-111124624D01*
X124332970Y-111124624D01*
X124360996Y-111120185D01*
X124389022Y-111124624D01*
G37*
G36*
X134036035Y-109785089D02*
G01*
X134071157Y-109785089D01*
X134099702Y-109793470D01*
X134129321Y-109797370D01*
X134169106Y-109813849D01*
X134207708Y-109825184D01*
X134228083Y-109838278D01*
X134249827Y-109847285D01*
X134289671Y-109877859D01*
X134327430Y-109902125D01*
X134339601Y-109916172D01*
X134353309Y-109926690D01*
X134388845Y-109973002D01*
X134420627Y-110009680D01*
X134425974Y-110021390D01*
X134432714Y-110030173D01*
X134459326Y-110094421D01*
X134479746Y-110139134D01*
X134480755Y-110146154D01*
X134482629Y-110150678D01*
X134495900Y-110251484D01*
X134500000Y-110280000D01*
X134495899Y-110308517D01*
X134482629Y-110409321D01*
X134480755Y-110413843D01*
X134479746Y-110420866D01*
X134459324Y-110465583D01*
X134432714Y-110529827D01*
X134425974Y-110538609D01*
X134420627Y-110550320D01*
X134388841Y-110587002D01*
X134353309Y-110633309D01*
X134339604Y-110643824D01*
X134327430Y-110657875D01*
X134289663Y-110682145D01*
X134249827Y-110712714D01*
X134228087Y-110721718D01*
X134207708Y-110734816D01*
X134169097Y-110746152D01*
X134129321Y-110762629D01*
X134099708Y-110766527D01*
X134071157Y-110774911D01*
X134036028Y-110774911D01*
X134000000Y-110779654D01*
X133963972Y-110774911D01*
X133928843Y-110774911D01*
X133900291Y-110766527D01*
X133870678Y-110762629D01*
X133830898Y-110746151D01*
X133792292Y-110734816D01*
X133771913Y-110721719D01*
X133750172Y-110712714D01*
X133710330Y-110682142D01*
X133672570Y-110657875D01*
X133660397Y-110643827D01*
X133646690Y-110633309D01*
X133611149Y-110586992D01*
X133579373Y-110550320D01*
X133574026Y-110538612D01*
X133567285Y-110529827D01*
X133540665Y-110465560D01*
X133520254Y-110420866D01*
X133519244Y-110413847D01*
X133517370Y-110409321D01*
X133504088Y-110308435D01*
X133500000Y-110280000D01*
X133504088Y-110251567D01*
X133517370Y-110150678D01*
X133519245Y-110146151D01*
X133520254Y-110139134D01*
X133540662Y-110094444D01*
X133567285Y-110030173D01*
X133574026Y-110021387D01*
X133579373Y-110009680D01*
X133611145Y-109973012D01*
X133646690Y-109926690D01*
X133660399Y-109916170D01*
X133672570Y-109902125D01*
X133710325Y-109877860D01*
X133750173Y-109847285D01*
X133771916Y-109838278D01*
X133792292Y-109825184D01*
X133830891Y-109813850D01*
X133870678Y-109797370D01*
X133900297Y-109793470D01*
X133928843Y-109785089D01*
X133963965Y-109785089D01*
X134000000Y-109780345D01*
X134036035Y-109785089D01*
G37*
G36*
X124746665Y-109219330D02*
G01*
X124859704Y-109284593D01*
X124951999Y-109376890D01*
X125017262Y-109489928D01*
X125051046Y-109616007D01*
X125051046Y-109746533D01*
X125017263Y-109872612D01*
X124952000Y-109985651D01*
X124859703Y-110077946D01*
X123852695Y-110664283D01*
X123794037Y-110693209D01*
X123667958Y-110726993D01*
X123537432Y-110726993D01*
X123411353Y-110693210D01*
X123298314Y-110627947D01*
X123206019Y-110535650D01*
X123140756Y-110422612D01*
X123106972Y-110296533D01*
X123106972Y-110166007D01*
X123140755Y-110039928D01*
X123206018Y-109926889D01*
X123298315Y-109834594D01*
X124305323Y-109248257D01*
X124363981Y-109219331D01*
X124490060Y-109185547D01*
X124620586Y-109185547D01*
X124746665Y-109219330D01*
G37*
G36*
X164536035Y-108605089D02*
G01*
X164571157Y-108605089D01*
X164599702Y-108613470D01*
X164629321Y-108617370D01*
X164669106Y-108633849D01*
X164707708Y-108645184D01*
X164728083Y-108658278D01*
X164749827Y-108667285D01*
X164789671Y-108697859D01*
X164827430Y-108722125D01*
X164839601Y-108736172D01*
X164853309Y-108746690D01*
X164888845Y-108793002D01*
X164920627Y-108829680D01*
X164925974Y-108841390D01*
X164932714Y-108850173D01*
X164959326Y-108914421D01*
X164979746Y-108959134D01*
X164980755Y-108966154D01*
X164982629Y-108970678D01*
X164995900Y-109071484D01*
X165000000Y-109100000D01*
X164995899Y-109128517D01*
X164982629Y-109229321D01*
X164980755Y-109233843D01*
X164979746Y-109240866D01*
X164959324Y-109285583D01*
X164932714Y-109349827D01*
X164925974Y-109358609D01*
X164920627Y-109370320D01*
X164888841Y-109407002D01*
X164853309Y-109453309D01*
X164839604Y-109463824D01*
X164827430Y-109477875D01*
X164789663Y-109502145D01*
X164749827Y-109532714D01*
X164728087Y-109541718D01*
X164707708Y-109554816D01*
X164669097Y-109566152D01*
X164629321Y-109582629D01*
X164599708Y-109586527D01*
X164571157Y-109594911D01*
X164536028Y-109594911D01*
X164500000Y-109599654D01*
X164463972Y-109594911D01*
X164428843Y-109594911D01*
X164400291Y-109586527D01*
X164370678Y-109582629D01*
X164330898Y-109566151D01*
X164292292Y-109554816D01*
X164271913Y-109541719D01*
X164250172Y-109532714D01*
X164210330Y-109502142D01*
X164172570Y-109477875D01*
X164160397Y-109463827D01*
X164146690Y-109453309D01*
X164111149Y-109406992D01*
X164079373Y-109370320D01*
X164074026Y-109358612D01*
X164067285Y-109349827D01*
X164040665Y-109285560D01*
X164020254Y-109240866D01*
X164019244Y-109233847D01*
X164017370Y-109229321D01*
X164004088Y-109128435D01*
X164000000Y-109100000D01*
X164004088Y-109071567D01*
X164017370Y-108970678D01*
X164019245Y-108966151D01*
X164020254Y-108959134D01*
X164040662Y-108914444D01*
X164067285Y-108850173D01*
X164074026Y-108841387D01*
X164079373Y-108829680D01*
X164111145Y-108793012D01*
X164146690Y-108746690D01*
X164160399Y-108736170D01*
X164172570Y-108722125D01*
X164210325Y-108697860D01*
X164250173Y-108667285D01*
X164271916Y-108658278D01*
X164292292Y-108645184D01*
X164330891Y-108633850D01*
X164370678Y-108617370D01*
X164400297Y-108613470D01*
X164428843Y-108605089D01*
X164463965Y-108605089D01*
X164500000Y-108600345D01*
X164536035Y-108605089D01*
G37*
G36*
X134516035Y-107815089D02*
G01*
X134551157Y-107815089D01*
X134579702Y-107823470D01*
X134609321Y-107827370D01*
X134649106Y-107843849D01*
X134687708Y-107855184D01*
X134708083Y-107868278D01*
X134729827Y-107877285D01*
X134769671Y-107907859D01*
X134807430Y-107932125D01*
X134819601Y-107946172D01*
X134833309Y-107956690D01*
X134868845Y-108003002D01*
X134900627Y-108039680D01*
X134905974Y-108051390D01*
X134912714Y-108060173D01*
X134939326Y-108124421D01*
X134959746Y-108169134D01*
X134960755Y-108176154D01*
X134962629Y-108180678D01*
X134975900Y-108281484D01*
X134980000Y-108310000D01*
X134975899Y-108338517D01*
X134962629Y-108439321D01*
X134960755Y-108443843D01*
X134959746Y-108450866D01*
X134939324Y-108495583D01*
X134912714Y-108559827D01*
X134905974Y-108568609D01*
X134900627Y-108580320D01*
X134868841Y-108617002D01*
X134833309Y-108663309D01*
X134819604Y-108673824D01*
X134807430Y-108687875D01*
X134769663Y-108712145D01*
X134729827Y-108742714D01*
X134708087Y-108751718D01*
X134687708Y-108764816D01*
X134649097Y-108776152D01*
X134609321Y-108792629D01*
X134579708Y-108796527D01*
X134551157Y-108804911D01*
X134516028Y-108804911D01*
X134480000Y-108809654D01*
X134443972Y-108804911D01*
X134408843Y-108804911D01*
X134380291Y-108796527D01*
X134350678Y-108792629D01*
X134310898Y-108776151D01*
X134272292Y-108764816D01*
X134251913Y-108751719D01*
X134230172Y-108742714D01*
X134190330Y-108712142D01*
X134152570Y-108687875D01*
X134140397Y-108673827D01*
X134126690Y-108663309D01*
X134091149Y-108616992D01*
X134059373Y-108580320D01*
X134054026Y-108568612D01*
X134047285Y-108559827D01*
X134020665Y-108495560D01*
X134000254Y-108450866D01*
X133999244Y-108443847D01*
X133997370Y-108439321D01*
X133984088Y-108338435D01*
X133980000Y-108310000D01*
X133984088Y-108281567D01*
X133997370Y-108180678D01*
X133999245Y-108176151D01*
X134000254Y-108169134D01*
X134020662Y-108124444D01*
X134047285Y-108060173D01*
X134054026Y-108051387D01*
X134059373Y-108039680D01*
X134091145Y-108003012D01*
X134126690Y-107956690D01*
X134140399Y-107946170D01*
X134152570Y-107932125D01*
X134190325Y-107907860D01*
X134230173Y-107877285D01*
X134251916Y-107868278D01*
X134272292Y-107855184D01*
X134310891Y-107843850D01*
X134350678Y-107827370D01*
X134380297Y-107823470D01*
X134408843Y-107815089D01*
X134443965Y-107815089D01*
X134480000Y-107810345D01*
X134516035Y-107815089D01*
G37*
G36*
X162636035Y-107305089D02*
G01*
X162671157Y-107305089D01*
X162699702Y-107313470D01*
X162729321Y-107317370D01*
X162769106Y-107333849D01*
X162807708Y-107345184D01*
X162828083Y-107358278D01*
X162849827Y-107367285D01*
X162889671Y-107397859D01*
X162927430Y-107422125D01*
X162939601Y-107436172D01*
X162953309Y-107446690D01*
X162988845Y-107493002D01*
X163020627Y-107529680D01*
X163025974Y-107541390D01*
X163032714Y-107550173D01*
X163059326Y-107614421D01*
X163079746Y-107659134D01*
X163080755Y-107666154D01*
X163082629Y-107670678D01*
X163095900Y-107771484D01*
X163100000Y-107800000D01*
X163095899Y-107828517D01*
X163082629Y-107929321D01*
X163080755Y-107933843D01*
X163079746Y-107940866D01*
X163059324Y-107985583D01*
X163032714Y-108049827D01*
X163025974Y-108058609D01*
X163020627Y-108070320D01*
X162988841Y-108107002D01*
X162953309Y-108153309D01*
X162939604Y-108163824D01*
X162927430Y-108177875D01*
X162889663Y-108202145D01*
X162849827Y-108232714D01*
X162828087Y-108241718D01*
X162807708Y-108254816D01*
X162769097Y-108266152D01*
X162729321Y-108282629D01*
X162699708Y-108286527D01*
X162671157Y-108294911D01*
X162636028Y-108294911D01*
X162600000Y-108299654D01*
X162563972Y-108294911D01*
X162528843Y-108294911D01*
X162500291Y-108286527D01*
X162470678Y-108282629D01*
X162430898Y-108266151D01*
X162392292Y-108254816D01*
X162371913Y-108241719D01*
X162350172Y-108232714D01*
X162310330Y-108202142D01*
X162272570Y-108177875D01*
X162260397Y-108163827D01*
X162246690Y-108153309D01*
X162211149Y-108106992D01*
X162179373Y-108070320D01*
X162174026Y-108058612D01*
X162167285Y-108049827D01*
X162140665Y-107985560D01*
X162120254Y-107940866D01*
X162119244Y-107933847D01*
X162117370Y-107929321D01*
X162104088Y-107828435D01*
X162100000Y-107800000D01*
X162104088Y-107771567D01*
X162117370Y-107670678D01*
X162119245Y-107666151D01*
X162120254Y-107659134D01*
X162140662Y-107614444D01*
X162167285Y-107550173D01*
X162174026Y-107541387D01*
X162179373Y-107529680D01*
X162211145Y-107493012D01*
X162246690Y-107446690D01*
X162260399Y-107436170D01*
X162272570Y-107422125D01*
X162310325Y-107397860D01*
X162350173Y-107367285D01*
X162371916Y-107358278D01*
X162392292Y-107345184D01*
X162430891Y-107333850D01*
X162470678Y-107317370D01*
X162500297Y-107313470D01*
X162528843Y-107305089D01*
X162563965Y-107305089D01*
X162600000Y-107300345D01*
X162636035Y-107305089D01*
G37*
G36*
X166236035Y-106805089D02*
G01*
X166271157Y-106805089D01*
X166299702Y-106813470D01*
X166329321Y-106817370D01*
X166369106Y-106833849D01*
X166407708Y-106845184D01*
X166428083Y-106858278D01*
X166449827Y-106867285D01*
X166489671Y-106897859D01*
X166527430Y-106922125D01*
X166539601Y-106936172D01*
X166553309Y-106946690D01*
X166588845Y-106993002D01*
X166620627Y-107029680D01*
X166625974Y-107041390D01*
X166632714Y-107050173D01*
X166659326Y-107114421D01*
X166679746Y-107159134D01*
X166680755Y-107166154D01*
X166682629Y-107170678D01*
X166695900Y-107271484D01*
X166700000Y-107300000D01*
X166695899Y-107328517D01*
X166682629Y-107429321D01*
X166680755Y-107433843D01*
X166679746Y-107440866D01*
X166659324Y-107485583D01*
X166632714Y-107549827D01*
X166625974Y-107558609D01*
X166620627Y-107570320D01*
X166588841Y-107607002D01*
X166553309Y-107653309D01*
X166539604Y-107663824D01*
X166527430Y-107677875D01*
X166489663Y-107702145D01*
X166449827Y-107732714D01*
X166428087Y-107741718D01*
X166407708Y-107754816D01*
X166369097Y-107766152D01*
X166329321Y-107782629D01*
X166299708Y-107786527D01*
X166271157Y-107794911D01*
X166236028Y-107794911D01*
X166200000Y-107799654D01*
X166163972Y-107794911D01*
X166128843Y-107794911D01*
X166100291Y-107786527D01*
X166070678Y-107782629D01*
X166030898Y-107766151D01*
X165992292Y-107754816D01*
X165971913Y-107741719D01*
X165950172Y-107732714D01*
X165910330Y-107702142D01*
X165872570Y-107677875D01*
X165860397Y-107663827D01*
X165846690Y-107653309D01*
X165811149Y-107606992D01*
X165779373Y-107570320D01*
X165774026Y-107558612D01*
X165767285Y-107549827D01*
X165740665Y-107485560D01*
X165720254Y-107440866D01*
X165719244Y-107433847D01*
X165717370Y-107429321D01*
X165704088Y-107328435D01*
X165700000Y-107300000D01*
X165704088Y-107271567D01*
X165717370Y-107170678D01*
X165719245Y-107166151D01*
X165720254Y-107159134D01*
X165740662Y-107114444D01*
X165767285Y-107050173D01*
X165774026Y-107041387D01*
X165779373Y-107029680D01*
X165811145Y-106993012D01*
X165846690Y-106946690D01*
X165860399Y-106936170D01*
X165872570Y-106922125D01*
X165910325Y-106897860D01*
X165950173Y-106867285D01*
X165971916Y-106858278D01*
X165992292Y-106845184D01*
X166030891Y-106833850D01*
X166070678Y-106817370D01*
X166100297Y-106813470D01*
X166128843Y-106805089D01*
X166163965Y-106805089D01*
X166200000Y-106800345D01*
X166236035Y-106805089D01*
G37*
G36*
X168936035Y-106705089D02*
G01*
X168971157Y-106705089D01*
X168999702Y-106713470D01*
X169029321Y-106717370D01*
X169069106Y-106733849D01*
X169107708Y-106745184D01*
X169128083Y-106758278D01*
X169149827Y-106767285D01*
X169189671Y-106797859D01*
X169227430Y-106822125D01*
X169239601Y-106836172D01*
X169253309Y-106846690D01*
X169288845Y-106893002D01*
X169320627Y-106929680D01*
X169325974Y-106941390D01*
X169332714Y-106950173D01*
X169359326Y-107014421D01*
X169379746Y-107059134D01*
X169380755Y-107066154D01*
X169382629Y-107070678D01*
X169395900Y-107171484D01*
X169400000Y-107200000D01*
X169395899Y-107228517D01*
X169382629Y-107329321D01*
X169380755Y-107333843D01*
X169379746Y-107340866D01*
X169359324Y-107385583D01*
X169332714Y-107449827D01*
X169325974Y-107458609D01*
X169320627Y-107470320D01*
X169288841Y-107507002D01*
X169253309Y-107553309D01*
X169239604Y-107563824D01*
X169227430Y-107577875D01*
X169189663Y-107602145D01*
X169149827Y-107632714D01*
X169128087Y-107641718D01*
X169107708Y-107654816D01*
X169069097Y-107666152D01*
X169029321Y-107682629D01*
X168999708Y-107686527D01*
X168971157Y-107694911D01*
X168936028Y-107694911D01*
X168900000Y-107699654D01*
X168863972Y-107694911D01*
X168828843Y-107694911D01*
X168800291Y-107686527D01*
X168770678Y-107682629D01*
X168730898Y-107666151D01*
X168692292Y-107654816D01*
X168671913Y-107641719D01*
X168650172Y-107632714D01*
X168610330Y-107602142D01*
X168572570Y-107577875D01*
X168560397Y-107563827D01*
X168546690Y-107553309D01*
X168511149Y-107506992D01*
X168479373Y-107470320D01*
X168474026Y-107458612D01*
X168467285Y-107449827D01*
X168440665Y-107385560D01*
X168420254Y-107340866D01*
X168419244Y-107333847D01*
X168417370Y-107329321D01*
X168404088Y-107228435D01*
X168400000Y-107200000D01*
X168404088Y-107171567D01*
X168417370Y-107070678D01*
X168419245Y-107066151D01*
X168420254Y-107059134D01*
X168440662Y-107014444D01*
X168467285Y-106950173D01*
X168474026Y-106941387D01*
X168479373Y-106929680D01*
X168511145Y-106893012D01*
X168546690Y-106846690D01*
X168560399Y-106836170D01*
X168572570Y-106822125D01*
X168610325Y-106797860D01*
X168650173Y-106767285D01*
X168671916Y-106758278D01*
X168692292Y-106745184D01*
X168730891Y-106733850D01*
X168770678Y-106717370D01*
X168800297Y-106713470D01*
X168828843Y-106705089D01*
X168863965Y-106705089D01*
X168900000Y-106700345D01*
X168936035Y-106705089D01*
G37*
G36*
X154936035Y-101205089D02*
G01*
X154971157Y-101205089D01*
X154999702Y-101213470D01*
X155029321Y-101217370D01*
X155069106Y-101233849D01*
X155107708Y-101245184D01*
X155128083Y-101258278D01*
X155149827Y-101267285D01*
X155189671Y-101297859D01*
X155227430Y-101322125D01*
X155239601Y-101336172D01*
X155253309Y-101346690D01*
X155288845Y-101393002D01*
X155320627Y-101429680D01*
X155325974Y-101441390D01*
X155332714Y-101450173D01*
X155359326Y-101514421D01*
X155379746Y-101559134D01*
X155380755Y-101566154D01*
X155382629Y-101570678D01*
X155395900Y-101671484D01*
X155400000Y-101700000D01*
X155395899Y-101728517D01*
X155382629Y-101829321D01*
X155380755Y-101833843D01*
X155379746Y-101840866D01*
X155359324Y-101885583D01*
X155332714Y-101949827D01*
X155325974Y-101958609D01*
X155320627Y-101970320D01*
X155288841Y-102007002D01*
X155253309Y-102053309D01*
X155239604Y-102063824D01*
X155227430Y-102077875D01*
X155189663Y-102102145D01*
X155149827Y-102132714D01*
X155128087Y-102141718D01*
X155107708Y-102154816D01*
X155069097Y-102166152D01*
X155029321Y-102182629D01*
X154999708Y-102186527D01*
X154971157Y-102194911D01*
X154936028Y-102194911D01*
X154900000Y-102199654D01*
X154863972Y-102194911D01*
X154828843Y-102194911D01*
X154800291Y-102186527D01*
X154770678Y-102182629D01*
X154730898Y-102166151D01*
X154692292Y-102154816D01*
X154671913Y-102141719D01*
X154650172Y-102132714D01*
X154610330Y-102102142D01*
X154572570Y-102077875D01*
X154560397Y-102063827D01*
X154546690Y-102053309D01*
X154511149Y-102006992D01*
X154479373Y-101970320D01*
X154474026Y-101958612D01*
X154467285Y-101949827D01*
X154440665Y-101885560D01*
X154420254Y-101840866D01*
X154419244Y-101833847D01*
X154417370Y-101829321D01*
X154404088Y-101728435D01*
X154400000Y-101700000D01*
X154404088Y-101671567D01*
X154417370Y-101570678D01*
X154419245Y-101566151D01*
X154420254Y-101559134D01*
X154440662Y-101514444D01*
X154467285Y-101450173D01*
X154474026Y-101441387D01*
X154479373Y-101429680D01*
X154511145Y-101393012D01*
X154546690Y-101346690D01*
X154560399Y-101336170D01*
X154572570Y-101322125D01*
X154610325Y-101297860D01*
X154650173Y-101267285D01*
X154671916Y-101258278D01*
X154692292Y-101245184D01*
X154730891Y-101233850D01*
X154770678Y-101217370D01*
X154800297Y-101213470D01*
X154828843Y-101205089D01*
X154863965Y-101205089D01*
X154900000Y-101200345D01*
X154936035Y-101205089D01*
G37*
G36*
X134036035Y-98505089D02*
G01*
X134071157Y-98505089D01*
X134099702Y-98513470D01*
X134129321Y-98517370D01*
X134169106Y-98533849D01*
X134207708Y-98545184D01*
X134228083Y-98558278D01*
X134249827Y-98567285D01*
X134289671Y-98597859D01*
X134327430Y-98622125D01*
X134339601Y-98636172D01*
X134353309Y-98646690D01*
X134388845Y-98693002D01*
X134420627Y-98729680D01*
X134425974Y-98741390D01*
X134432714Y-98750173D01*
X134459326Y-98814421D01*
X134479746Y-98859134D01*
X134480755Y-98866154D01*
X134482629Y-98870678D01*
X134495900Y-98971484D01*
X134500000Y-99000000D01*
X134495899Y-99028517D01*
X134482629Y-99129321D01*
X134480755Y-99133843D01*
X134479746Y-99140866D01*
X134459324Y-99185583D01*
X134432714Y-99249827D01*
X134425974Y-99258609D01*
X134420627Y-99270320D01*
X134388841Y-99307002D01*
X134353309Y-99353309D01*
X134339604Y-99363824D01*
X134327430Y-99377875D01*
X134289663Y-99402145D01*
X134249827Y-99432714D01*
X134228087Y-99441718D01*
X134207708Y-99454816D01*
X134169097Y-99466152D01*
X134129321Y-99482629D01*
X134099708Y-99486527D01*
X134071157Y-99494911D01*
X134036028Y-99494911D01*
X134000000Y-99499654D01*
X133963972Y-99494911D01*
X133928843Y-99494911D01*
X133900291Y-99486527D01*
X133870678Y-99482629D01*
X133830898Y-99466151D01*
X133792292Y-99454816D01*
X133771913Y-99441719D01*
X133750172Y-99432714D01*
X133710330Y-99402142D01*
X133672570Y-99377875D01*
X133660397Y-99363827D01*
X133646690Y-99353309D01*
X133611149Y-99306992D01*
X133579373Y-99270320D01*
X133574026Y-99258612D01*
X133567285Y-99249827D01*
X133540665Y-99185560D01*
X133520254Y-99140866D01*
X133519244Y-99133847D01*
X133517370Y-99129321D01*
X133504088Y-99028435D01*
X133500000Y-99000000D01*
X133504088Y-98971567D01*
X133517370Y-98870678D01*
X133519245Y-98866151D01*
X133520254Y-98859134D01*
X133540662Y-98814444D01*
X133567285Y-98750173D01*
X133574026Y-98741387D01*
X133579373Y-98729680D01*
X133611145Y-98693012D01*
X133646690Y-98646690D01*
X133660399Y-98636170D01*
X133672570Y-98622125D01*
X133710325Y-98597860D01*
X133750173Y-98567285D01*
X133771916Y-98558278D01*
X133792292Y-98545184D01*
X133830891Y-98533850D01*
X133870678Y-98517370D01*
X133900297Y-98513470D01*
X133928843Y-98505089D01*
X133963965Y-98505089D01*
X134000000Y-98500345D01*
X134036035Y-98505089D01*
G37*
G36*
X142536035Y-97305089D02*
G01*
X142571157Y-97305089D01*
X142599702Y-97313470D01*
X142629321Y-97317370D01*
X142669106Y-97333849D01*
X142707708Y-97345184D01*
X142728083Y-97358278D01*
X142749827Y-97367285D01*
X142789671Y-97397859D01*
X142827430Y-97422125D01*
X142839601Y-97436172D01*
X142853309Y-97446690D01*
X142888845Y-97493002D01*
X142920627Y-97529680D01*
X142925974Y-97541390D01*
X142932714Y-97550173D01*
X142959326Y-97614421D01*
X142979746Y-97659134D01*
X142980755Y-97666154D01*
X142982629Y-97670678D01*
X142995900Y-97771484D01*
X143000000Y-97800000D01*
X142995899Y-97828517D01*
X142982629Y-97929321D01*
X142980755Y-97933843D01*
X142979746Y-97940866D01*
X142959324Y-97985583D01*
X142932714Y-98049827D01*
X142925974Y-98058609D01*
X142920627Y-98070320D01*
X142888841Y-98107002D01*
X142853309Y-98153309D01*
X142839604Y-98163824D01*
X142827430Y-98177875D01*
X142789663Y-98202145D01*
X142749827Y-98232714D01*
X142728087Y-98241718D01*
X142707708Y-98254816D01*
X142669097Y-98266152D01*
X142629321Y-98282629D01*
X142599708Y-98286527D01*
X142571157Y-98294911D01*
X142536028Y-98294911D01*
X142500000Y-98299654D01*
X142463972Y-98294911D01*
X142428843Y-98294911D01*
X142400291Y-98286527D01*
X142370678Y-98282629D01*
X142330898Y-98266151D01*
X142292292Y-98254816D01*
X142271913Y-98241719D01*
X142250172Y-98232714D01*
X142210330Y-98202142D01*
X142172570Y-98177875D01*
X142160397Y-98163827D01*
X142146690Y-98153309D01*
X142111149Y-98106992D01*
X142079373Y-98070320D01*
X142074026Y-98058612D01*
X142067285Y-98049827D01*
X142040665Y-97985560D01*
X142020254Y-97940866D01*
X142019244Y-97933847D01*
X142017370Y-97929321D01*
X142004088Y-97828435D01*
X142000000Y-97800000D01*
X142004088Y-97771567D01*
X142017370Y-97670678D01*
X142019245Y-97666151D01*
X142020254Y-97659134D01*
X142040662Y-97614444D01*
X142067285Y-97550173D01*
X142074026Y-97541387D01*
X142079373Y-97529680D01*
X142111145Y-97493012D01*
X142146690Y-97446690D01*
X142160399Y-97436170D01*
X142172570Y-97422125D01*
X142210325Y-97397860D01*
X142250173Y-97367285D01*
X142271916Y-97358278D01*
X142292292Y-97345184D01*
X142330891Y-97333850D01*
X142370678Y-97317370D01*
X142400297Y-97313470D01*
X142428843Y-97305089D01*
X142463965Y-97305089D01*
X142500000Y-97300345D01*
X142536035Y-97305089D01*
G37*
G36*
X162536035Y-95805089D02*
G01*
X162571157Y-95805089D01*
X162599702Y-95813470D01*
X162629321Y-95817370D01*
X162669106Y-95833849D01*
X162707708Y-95845184D01*
X162728083Y-95858278D01*
X162749827Y-95867285D01*
X162789671Y-95897859D01*
X162827430Y-95922125D01*
X162839601Y-95936172D01*
X162853309Y-95946690D01*
X162888845Y-95993002D01*
X162920627Y-96029680D01*
X162925974Y-96041390D01*
X162932714Y-96050173D01*
X162959326Y-96114421D01*
X162979746Y-96159134D01*
X162980755Y-96166154D01*
X162982629Y-96170678D01*
X162995900Y-96271484D01*
X163000000Y-96300000D01*
X162995899Y-96328517D01*
X162982629Y-96429321D01*
X162980755Y-96433843D01*
X162979746Y-96440866D01*
X162959324Y-96485583D01*
X162932714Y-96549827D01*
X162925974Y-96558609D01*
X162920627Y-96570320D01*
X162888841Y-96607002D01*
X162853309Y-96653309D01*
X162839604Y-96663824D01*
X162827430Y-96677875D01*
X162789663Y-96702145D01*
X162749827Y-96732714D01*
X162728087Y-96741718D01*
X162707708Y-96754816D01*
X162669097Y-96766152D01*
X162629321Y-96782629D01*
X162599708Y-96786527D01*
X162571157Y-96794911D01*
X162536028Y-96794911D01*
X162500000Y-96799654D01*
X162463972Y-96794911D01*
X162428843Y-96794911D01*
X162400291Y-96786527D01*
X162370678Y-96782629D01*
X162330898Y-96766151D01*
X162292292Y-96754816D01*
X162271913Y-96741719D01*
X162250172Y-96732714D01*
X162210330Y-96702142D01*
X162172570Y-96677875D01*
X162160397Y-96663827D01*
X162146690Y-96653309D01*
X162111149Y-96606992D01*
X162079373Y-96570320D01*
X162074026Y-96558612D01*
X162067285Y-96549827D01*
X162040665Y-96485560D01*
X162020254Y-96440866D01*
X162019244Y-96433847D01*
X162017370Y-96429321D01*
X162004088Y-96328435D01*
X162000000Y-96300000D01*
X162004088Y-96271567D01*
X162017370Y-96170678D01*
X162019245Y-96166151D01*
X162020254Y-96159134D01*
X162040662Y-96114444D01*
X162067285Y-96050173D01*
X162074026Y-96041387D01*
X162079373Y-96029680D01*
X162111145Y-95993012D01*
X162146690Y-95946690D01*
X162160399Y-95936170D01*
X162172570Y-95922125D01*
X162210325Y-95897860D01*
X162250173Y-95867285D01*
X162271916Y-95858278D01*
X162292292Y-95845184D01*
X162330891Y-95833850D01*
X162370678Y-95817370D01*
X162400297Y-95813470D01*
X162428843Y-95805089D01*
X162463965Y-95805089D01*
X162500000Y-95800345D01*
X162536035Y-95805089D01*
G37*
G36*
X142936035Y-95005089D02*
G01*
X142971157Y-95005089D01*
X142999702Y-95013470D01*
X143029321Y-95017370D01*
X143069106Y-95033849D01*
X143107708Y-95045184D01*
X143128083Y-95058278D01*
X143149827Y-95067285D01*
X143189671Y-95097859D01*
X143227430Y-95122125D01*
X143239601Y-95136172D01*
X143253309Y-95146690D01*
X143288845Y-95193002D01*
X143320627Y-95229680D01*
X143325974Y-95241390D01*
X143332714Y-95250173D01*
X143359326Y-95314421D01*
X143379746Y-95359134D01*
X143380755Y-95366154D01*
X143382629Y-95370678D01*
X143395900Y-95471484D01*
X143400000Y-95500000D01*
X143395899Y-95528517D01*
X143382629Y-95629321D01*
X143380755Y-95633843D01*
X143379746Y-95640866D01*
X143359324Y-95685583D01*
X143332714Y-95749827D01*
X143325974Y-95758609D01*
X143320627Y-95770320D01*
X143288841Y-95807002D01*
X143253309Y-95853309D01*
X143239604Y-95863824D01*
X143227430Y-95877875D01*
X143189663Y-95902145D01*
X143149827Y-95932714D01*
X143128087Y-95941718D01*
X143107708Y-95954816D01*
X143069097Y-95966152D01*
X143029321Y-95982629D01*
X142999708Y-95986527D01*
X142971157Y-95994911D01*
X142936028Y-95994911D01*
X142900000Y-95999654D01*
X142863972Y-95994911D01*
X142828843Y-95994911D01*
X142800291Y-95986527D01*
X142770678Y-95982629D01*
X142730898Y-95966151D01*
X142692292Y-95954816D01*
X142671913Y-95941719D01*
X142650172Y-95932714D01*
X142610330Y-95902142D01*
X142572570Y-95877875D01*
X142560397Y-95863827D01*
X142546690Y-95853309D01*
X142511149Y-95806992D01*
X142479373Y-95770320D01*
X142474026Y-95758612D01*
X142467285Y-95749827D01*
X142440665Y-95685560D01*
X142420254Y-95640866D01*
X142419244Y-95633847D01*
X142417370Y-95629321D01*
X142404088Y-95528435D01*
X142400000Y-95500000D01*
X142404088Y-95471567D01*
X142417370Y-95370678D01*
X142419245Y-95366151D01*
X142420254Y-95359134D01*
X142440662Y-95314444D01*
X142467285Y-95250173D01*
X142474026Y-95241387D01*
X142479373Y-95229680D01*
X142511145Y-95193012D01*
X142546690Y-95146690D01*
X142560399Y-95136170D01*
X142572570Y-95122125D01*
X142610325Y-95097860D01*
X142650173Y-95067285D01*
X142671916Y-95058278D01*
X142692292Y-95045184D01*
X142730891Y-95033850D01*
X142770678Y-95017370D01*
X142800297Y-95013470D01*
X142828843Y-95005089D01*
X142863965Y-95005089D01*
X142900000Y-95000345D01*
X142936035Y-95005089D01*
G37*
G36*
X140436035Y-91805089D02*
G01*
X140471157Y-91805089D01*
X140499702Y-91813470D01*
X140529321Y-91817370D01*
X140569106Y-91833849D01*
X140607708Y-91845184D01*
X140628083Y-91858278D01*
X140649827Y-91867285D01*
X140689671Y-91897859D01*
X140727430Y-91922125D01*
X140739601Y-91936172D01*
X140753309Y-91946690D01*
X140788845Y-91993002D01*
X140820627Y-92029680D01*
X140825974Y-92041390D01*
X140832714Y-92050173D01*
X140859326Y-92114421D01*
X140879746Y-92159134D01*
X140880755Y-92166154D01*
X140882629Y-92170678D01*
X140895900Y-92271484D01*
X140900000Y-92300000D01*
X140895899Y-92328517D01*
X140882629Y-92429321D01*
X140880755Y-92433843D01*
X140879746Y-92440866D01*
X140859324Y-92485583D01*
X140832714Y-92549827D01*
X140825974Y-92558609D01*
X140820627Y-92570320D01*
X140788841Y-92607002D01*
X140753309Y-92653309D01*
X140739604Y-92663824D01*
X140727430Y-92677875D01*
X140689663Y-92702145D01*
X140649827Y-92732714D01*
X140628087Y-92741718D01*
X140607708Y-92754816D01*
X140569097Y-92766152D01*
X140529321Y-92782629D01*
X140499708Y-92786527D01*
X140471157Y-92794911D01*
X140436028Y-92794911D01*
X140400000Y-92799654D01*
X140363972Y-92794911D01*
X140328843Y-92794911D01*
X140300291Y-92786527D01*
X140270678Y-92782629D01*
X140230898Y-92766151D01*
X140192292Y-92754816D01*
X140171913Y-92741719D01*
X140150172Y-92732714D01*
X140110330Y-92702142D01*
X140072570Y-92677875D01*
X140060397Y-92663827D01*
X140046690Y-92653309D01*
X140011149Y-92606992D01*
X139979373Y-92570320D01*
X139974026Y-92558612D01*
X139967285Y-92549827D01*
X139940665Y-92485560D01*
X139920254Y-92440866D01*
X139919244Y-92433847D01*
X139917370Y-92429321D01*
X139904088Y-92328435D01*
X139900000Y-92300000D01*
X139904088Y-92271567D01*
X139917370Y-92170678D01*
X139919245Y-92166151D01*
X139920254Y-92159134D01*
X139940662Y-92114444D01*
X139967285Y-92050173D01*
X139974026Y-92041387D01*
X139979373Y-92029680D01*
X140011145Y-91993012D01*
X140046690Y-91946690D01*
X140060399Y-91936170D01*
X140072570Y-91922125D01*
X140110325Y-91897860D01*
X140150173Y-91867285D01*
X140171916Y-91858278D01*
X140192292Y-91845184D01*
X140230891Y-91833850D01*
X140270678Y-91817370D01*
X140300297Y-91813470D01*
X140328843Y-91805089D01*
X140363965Y-91805089D01*
X140400000Y-91800345D01*
X140436035Y-91805089D01*
G37*
G36*
X174036035Y-89705089D02*
G01*
X174071157Y-89705089D01*
X174099702Y-89713470D01*
X174129321Y-89717370D01*
X174169106Y-89733849D01*
X174207708Y-89745184D01*
X174228083Y-89758278D01*
X174249827Y-89767285D01*
X174289671Y-89797859D01*
X174327430Y-89822125D01*
X174339601Y-89836172D01*
X174353309Y-89846690D01*
X174388845Y-89893002D01*
X174420627Y-89929680D01*
X174425974Y-89941390D01*
X174432714Y-89950173D01*
X174459326Y-90014421D01*
X174479746Y-90059134D01*
X174480755Y-90066154D01*
X174482629Y-90070678D01*
X174495900Y-90171484D01*
X174500000Y-90200000D01*
X174495899Y-90228517D01*
X174482629Y-90329321D01*
X174480755Y-90333843D01*
X174479746Y-90340866D01*
X174459324Y-90385583D01*
X174432714Y-90449827D01*
X174425974Y-90458609D01*
X174420627Y-90470320D01*
X174388841Y-90507002D01*
X174353309Y-90553309D01*
X174339604Y-90563824D01*
X174327430Y-90577875D01*
X174289663Y-90602145D01*
X174249827Y-90632714D01*
X174228087Y-90641718D01*
X174207708Y-90654816D01*
X174169097Y-90666152D01*
X174129321Y-90682629D01*
X174099708Y-90686527D01*
X174071157Y-90694911D01*
X174036028Y-90694911D01*
X174000000Y-90699654D01*
X173963972Y-90694911D01*
X173928843Y-90694911D01*
X173900291Y-90686527D01*
X173870678Y-90682629D01*
X173830898Y-90666151D01*
X173792292Y-90654816D01*
X173771913Y-90641719D01*
X173750172Y-90632714D01*
X173710330Y-90602142D01*
X173672570Y-90577875D01*
X173660397Y-90563827D01*
X173646690Y-90553309D01*
X173611149Y-90506992D01*
X173579373Y-90470320D01*
X173574026Y-90458612D01*
X173567285Y-90449827D01*
X173540665Y-90385560D01*
X173520254Y-90340866D01*
X173519244Y-90333847D01*
X173517370Y-90329321D01*
X173504088Y-90228435D01*
X173500000Y-90200000D01*
X173504088Y-90171567D01*
X173517370Y-90070678D01*
X173519245Y-90066151D01*
X173520254Y-90059134D01*
X173540662Y-90014444D01*
X173567285Y-89950173D01*
X173574026Y-89941387D01*
X173579373Y-89929680D01*
X173611145Y-89893012D01*
X173646690Y-89846690D01*
X173660399Y-89836170D01*
X173672570Y-89822125D01*
X173710325Y-89797860D01*
X173750173Y-89767285D01*
X173771916Y-89758278D01*
X173792292Y-89745184D01*
X173830891Y-89733850D01*
X173870678Y-89717370D01*
X173900297Y-89713470D01*
X173928843Y-89705089D01*
X173963965Y-89705089D01*
X174000000Y-89700345D01*
X174036035Y-89705089D01*
G37*
G36*
X172936035Y-88005089D02*
G01*
X172971157Y-88005089D01*
X172999702Y-88013470D01*
X173029321Y-88017370D01*
X173069106Y-88033849D01*
X173107708Y-88045184D01*
X173128083Y-88058278D01*
X173149827Y-88067285D01*
X173189671Y-88097859D01*
X173227430Y-88122125D01*
X173239601Y-88136172D01*
X173253309Y-88146690D01*
X173288845Y-88193002D01*
X173320627Y-88229680D01*
X173325974Y-88241390D01*
X173332714Y-88250173D01*
X173359326Y-88314421D01*
X173379746Y-88359134D01*
X173380755Y-88366154D01*
X173382629Y-88370678D01*
X173395900Y-88471484D01*
X173400000Y-88500000D01*
X173395899Y-88528517D01*
X173382629Y-88629321D01*
X173380755Y-88633843D01*
X173379746Y-88640866D01*
X173359324Y-88685583D01*
X173332714Y-88749827D01*
X173325974Y-88758609D01*
X173320627Y-88770320D01*
X173288841Y-88807002D01*
X173253309Y-88853309D01*
X173239604Y-88863824D01*
X173227430Y-88877875D01*
X173189663Y-88902145D01*
X173149827Y-88932714D01*
X173128087Y-88941718D01*
X173107708Y-88954816D01*
X173069097Y-88966152D01*
X173029321Y-88982629D01*
X172999708Y-88986527D01*
X172971157Y-88994911D01*
X172936028Y-88994911D01*
X172900000Y-88999654D01*
X172863972Y-88994911D01*
X172828843Y-88994911D01*
X172800291Y-88986527D01*
X172770678Y-88982629D01*
X172730898Y-88966151D01*
X172692292Y-88954816D01*
X172671913Y-88941719D01*
X172650172Y-88932714D01*
X172610330Y-88902142D01*
X172572570Y-88877875D01*
X172560397Y-88863827D01*
X172546690Y-88853309D01*
X172511149Y-88806992D01*
X172479373Y-88770320D01*
X172474026Y-88758612D01*
X172467285Y-88749827D01*
X172440665Y-88685560D01*
X172420254Y-88640866D01*
X172419244Y-88633847D01*
X172417370Y-88629321D01*
X172404088Y-88528435D01*
X172400000Y-88500000D01*
X172404088Y-88471567D01*
X172417370Y-88370678D01*
X172419245Y-88366151D01*
X172420254Y-88359134D01*
X172440662Y-88314444D01*
X172467285Y-88250173D01*
X172474026Y-88241387D01*
X172479373Y-88229680D01*
X172511145Y-88193012D01*
X172546690Y-88146690D01*
X172560399Y-88136170D01*
X172572570Y-88122125D01*
X172610325Y-88097860D01*
X172650173Y-88067285D01*
X172671916Y-88058278D01*
X172692292Y-88045184D01*
X172730891Y-88033850D01*
X172770678Y-88017370D01*
X172800297Y-88013470D01*
X172828843Y-88005089D01*
X172863965Y-88005089D01*
X172900000Y-88000345D01*
X172936035Y-88005089D01*
G37*
G36*
X176236035Y-87405089D02*
G01*
X176271157Y-87405089D01*
X176299702Y-87413470D01*
X176329321Y-87417370D01*
X176369106Y-87433849D01*
X176407708Y-87445184D01*
X176428083Y-87458278D01*
X176449827Y-87467285D01*
X176489671Y-87497859D01*
X176527430Y-87522125D01*
X176539601Y-87536172D01*
X176553309Y-87546690D01*
X176588845Y-87593002D01*
X176620627Y-87629680D01*
X176625974Y-87641390D01*
X176632714Y-87650173D01*
X176659326Y-87714421D01*
X176679746Y-87759134D01*
X176680755Y-87766154D01*
X176682629Y-87770678D01*
X176695900Y-87871484D01*
X176700000Y-87900000D01*
X176695899Y-87928517D01*
X176682629Y-88029321D01*
X176680755Y-88033843D01*
X176679746Y-88040866D01*
X176659324Y-88085583D01*
X176632714Y-88149827D01*
X176625974Y-88158609D01*
X176620627Y-88170320D01*
X176588841Y-88207002D01*
X176553309Y-88253309D01*
X176539604Y-88263824D01*
X176527430Y-88277875D01*
X176489663Y-88302145D01*
X176449827Y-88332714D01*
X176428087Y-88341718D01*
X176407708Y-88354816D01*
X176369097Y-88366152D01*
X176329321Y-88382629D01*
X176299708Y-88386527D01*
X176271157Y-88394911D01*
X176236028Y-88394911D01*
X176200000Y-88399654D01*
X176163972Y-88394911D01*
X176128843Y-88394911D01*
X176100291Y-88386527D01*
X176070678Y-88382629D01*
X176030898Y-88366151D01*
X175992292Y-88354816D01*
X175971913Y-88341719D01*
X175950172Y-88332714D01*
X175910330Y-88302142D01*
X175872570Y-88277875D01*
X175860397Y-88263827D01*
X175846690Y-88253309D01*
X175811149Y-88206992D01*
X175779373Y-88170320D01*
X175774026Y-88158612D01*
X175767285Y-88149827D01*
X175740665Y-88085560D01*
X175720254Y-88040866D01*
X175719244Y-88033847D01*
X175717370Y-88029321D01*
X175704088Y-87928435D01*
X175700000Y-87900000D01*
X175704088Y-87871567D01*
X175717370Y-87770678D01*
X175719245Y-87766151D01*
X175720254Y-87759134D01*
X175740662Y-87714444D01*
X175767285Y-87650173D01*
X175774026Y-87641387D01*
X175779373Y-87629680D01*
X175811145Y-87593012D01*
X175846690Y-87546690D01*
X175860399Y-87536170D01*
X175872570Y-87522125D01*
X175910325Y-87497860D01*
X175950173Y-87467285D01*
X175971916Y-87458278D01*
X175992292Y-87445184D01*
X176030891Y-87433850D01*
X176070678Y-87417370D01*
X176100297Y-87413470D01*
X176128843Y-87405089D01*
X176163965Y-87405089D01*
X176200000Y-87400345D01*
X176236035Y-87405089D01*
G37*
G36*
X172136035Y-86105089D02*
G01*
X172171157Y-86105089D01*
X172199702Y-86113470D01*
X172229321Y-86117370D01*
X172269106Y-86133849D01*
X172307708Y-86145184D01*
X172328083Y-86158278D01*
X172349827Y-86167285D01*
X172389671Y-86197859D01*
X172427430Y-86222125D01*
X172439601Y-86236172D01*
X172453309Y-86246690D01*
X172488845Y-86293002D01*
X172520627Y-86329680D01*
X172525974Y-86341390D01*
X172532714Y-86350173D01*
X172559326Y-86414421D01*
X172579746Y-86459134D01*
X172580755Y-86466154D01*
X172582629Y-86470678D01*
X172595900Y-86571484D01*
X172600000Y-86600000D01*
X172595899Y-86628517D01*
X172582629Y-86729321D01*
X172580755Y-86733843D01*
X172579746Y-86740866D01*
X172559324Y-86785583D01*
X172532714Y-86849827D01*
X172525974Y-86858609D01*
X172520627Y-86870320D01*
X172488841Y-86907002D01*
X172453309Y-86953309D01*
X172439604Y-86963824D01*
X172427430Y-86977875D01*
X172389663Y-87002145D01*
X172349827Y-87032714D01*
X172328087Y-87041718D01*
X172307708Y-87054816D01*
X172269097Y-87066152D01*
X172229321Y-87082629D01*
X172199708Y-87086527D01*
X172171157Y-87094911D01*
X172136028Y-87094911D01*
X172100000Y-87099654D01*
X172063972Y-87094911D01*
X172028843Y-87094911D01*
X172000291Y-87086527D01*
X171970678Y-87082629D01*
X171930898Y-87066151D01*
X171892292Y-87054816D01*
X171871913Y-87041719D01*
X171850172Y-87032714D01*
X171810330Y-87002142D01*
X171772570Y-86977875D01*
X171760397Y-86963827D01*
X171746690Y-86953309D01*
X171711149Y-86906992D01*
X171679373Y-86870320D01*
X171674026Y-86858612D01*
X171667285Y-86849827D01*
X171640665Y-86785560D01*
X171620254Y-86740866D01*
X171619244Y-86733847D01*
X171617370Y-86729321D01*
X171604088Y-86628435D01*
X171600000Y-86600000D01*
X171604088Y-86571567D01*
X171617370Y-86470678D01*
X171619245Y-86466151D01*
X171620254Y-86459134D01*
X171640662Y-86414444D01*
X171667285Y-86350173D01*
X171674026Y-86341387D01*
X171679373Y-86329680D01*
X171711145Y-86293012D01*
X171746690Y-86246690D01*
X171760399Y-86236170D01*
X171772570Y-86222125D01*
X171810325Y-86197860D01*
X171850173Y-86167285D01*
X171871916Y-86158278D01*
X171892292Y-86145184D01*
X171930891Y-86133850D01*
X171970678Y-86117370D01*
X172000297Y-86113470D01*
X172028843Y-86105089D01*
X172063965Y-86105089D01*
X172100000Y-86100345D01*
X172136035Y-86105089D01*
G37*
G36*
X175236035Y-85605089D02*
G01*
X175271157Y-85605089D01*
X175299702Y-85613470D01*
X175329321Y-85617370D01*
X175369106Y-85633849D01*
X175407708Y-85645184D01*
X175428083Y-85658278D01*
X175449827Y-85667285D01*
X175489671Y-85697859D01*
X175527430Y-85722125D01*
X175539601Y-85736172D01*
X175553309Y-85746690D01*
X175588845Y-85793002D01*
X175620627Y-85829680D01*
X175625974Y-85841390D01*
X175632714Y-85850173D01*
X175659326Y-85914421D01*
X175679746Y-85959134D01*
X175680755Y-85966154D01*
X175682629Y-85970678D01*
X175695900Y-86071484D01*
X175700000Y-86100000D01*
X175695899Y-86128517D01*
X175682629Y-86229321D01*
X175680755Y-86233843D01*
X175679746Y-86240866D01*
X175659324Y-86285583D01*
X175632714Y-86349827D01*
X175625974Y-86358609D01*
X175620627Y-86370320D01*
X175588841Y-86407002D01*
X175553309Y-86453309D01*
X175539604Y-86463824D01*
X175527430Y-86477875D01*
X175489663Y-86502145D01*
X175449827Y-86532714D01*
X175428087Y-86541718D01*
X175407708Y-86554816D01*
X175369097Y-86566152D01*
X175329321Y-86582629D01*
X175299708Y-86586527D01*
X175271157Y-86594911D01*
X175236028Y-86594911D01*
X175200000Y-86599654D01*
X175163972Y-86594911D01*
X175128843Y-86594911D01*
X175100291Y-86586527D01*
X175070678Y-86582629D01*
X175030898Y-86566151D01*
X174992292Y-86554816D01*
X174971913Y-86541719D01*
X174950172Y-86532714D01*
X174910330Y-86502142D01*
X174872570Y-86477875D01*
X174860397Y-86463827D01*
X174846690Y-86453309D01*
X174811149Y-86406992D01*
X174779373Y-86370320D01*
X174774026Y-86358612D01*
X174767285Y-86349827D01*
X174740665Y-86285560D01*
X174720254Y-86240866D01*
X174719244Y-86233847D01*
X174717370Y-86229321D01*
X174704088Y-86128435D01*
X174700000Y-86100000D01*
X174704088Y-86071567D01*
X174717370Y-85970678D01*
X174719245Y-85966151D01*
X174720254Y-85959134D01*
X174740662Y-85914444D01*
X174767285Y-85850173D01*
X174774026Y-85841387D01*
X174779373Y-85829680D01*
X174811145Y-85793012D01*
X174846690Y-85746690D01*
X174860399Y-85736170D01*
X174872570Y-85722125D01*
X174910325Y-85697860D01*
X174950173Y-85667285D01*
X174971916Y-85658278D01*
X174992292Y-85645184D01*
X175030891Y-85633850D01*
X175070678Y-85617370D01*
X175100297Y-85613470D01*
X175128843Y-85605089D01*
X175163965Y-85605089D01*
X175200000Y-85600345D01*
X175236035Y-85605089D01*
G37*
G36*
X139153613Y-85164667D02*
G01*
X139188432Y-85164667D01*
X139216731Y-85172976D01*
X139246048Y-85176836D01*
X139285430Y-85193148D01*
X139323698Y-85204385D01*
X139343896Y-85217365D01*
X139365420Y-85226281D01*
X139404860Y-85256544D01*
X139442296Y-85280603D01*
X139454363Y-85294529D01*
X139467929Y-85304939D01*
X139503100Y-85350776D01*
X139534616Y-85387147D01*
X139539919Y-85398759D01*
X139546587Y-85407449D01*
X139572912Y-85471004D01*
X139593180Y-85515384D01*
X139594182Y-85522354D01*
X139596032Y-85526820D01*
X139609141Y-85626398D01*
X139613243Y-85654926D01*
X139609141Y-85683455D01*
X139596032Y-85783031D01*
X139594182Y-85787496D01*
X139593180Y-85794468D01*
X139572909Y-85838853D01*
X139546587Y-85902403D01*
X139539919Y-85911092D01*
X139534616Y-85922705D01*
X139503096Y-85959080D01*
X139467929Y-86004912D01*
X139454366Y-86015319D01*
X139442296Y-86029249D01*
X139404852Y-86053312D01*
X139365420Y-86083570D01*
X139343901Y-86092483D01*
X139323698Y-86105467D01*
X139285421Y-86116705D01*
X139246048Y-86133015D01*
X139216737Y-86136873D01*
X139188432Y-86145185D01*
X139153606Y-86145185D01*
X139117943Y-86149880D01*
X139082280Y-86145185D01*
X139047454Y-86145185D01*
X139019149Y-86136873D01*
X138989837Y-86133015D01*
X138950460Y-86116704D01*
X138912188Y-86105467D01*
X138891986Y-86092484D01*
X138870465Y-86083570D01*
X138831027Y-86053308D01*
X138793590Y-86029249D01*
X138781521Y-86015321D01*
X138767956Y-86004912D01*
X138732780Y-85959070D01*
X138701270Y-85922705D01*
X138695968Y-85911095D01*
X138689298Y-85902403D01*
X138662965Y-85838829D01*
X138642706Y-85794468D01*
X138641704Y-85787500D01*
X138639853Y-85783031D01*
X138626733Y-85683373D01*
X138622643Y-85654926D01*
X138626732Y-85626481D01*
X138639853Y-85526820D01*
X138641704Y-85522350D01*
X138642706Y-85515384D01*
X138662962Y-85471027D01*
X138689298Y-85407449D01*
X138695968Y-85398755D01*
X138701270Y-85387147D01*
X138732776Y-85350786D01*
X138767956Y-85304939D01*
X138781524Y-85294527D01*
X138793590Y-85280603D01*
X138831023Y-85256546D01*
X138870466Y-85226281D01*
X138891989Y-85217365D01*
X138912188Y-85204385D01*
X138950453Y-85193149D01*
X138989837Y-85176836D01*
X139019155Y-85172976D01*
X139047454Y-85164667D01*
X139082272Y-85164667D01*
X139117943Y-85159971D01*
X139153613Y-85164667D01*
G37*
G36*
X171036035Y-84405089D02*
G01*
X171071157Y-84405089D01*
X171099702Y-84413470D01*
X171129321Y-84417370D01*
X171169106Y-84433849D01*
X171207708Y-84445184D01*
X171228083Y-84458278D01*
X171249827Y-84467285D01*
X171289671Y-84497859D01*
X171327430Y-84522125D01*
X171339601Y-84536172D01*
X171353309Y-84546690D01*
X171388845Y-84593002D01*
X171420627Y-84629680D01*
X171425974Y-84641390D01*
X171432714Y-84650173D01*
X171459326Y-84714421D01*
X171479746Y-84759134D01*
X171480755Y-84766154D01*
X171482629Y-84770678D01*
X171495900Y-84871484D01*
X171500000Y-84900000D01*
X171495899Y-84928517D01*
X171482629Y-85029321D01*
X171480755Y-85033843D01*
X171479746Y-85040866D01*
X171459324Y-85085583D01*
X171432714Y-85149827D01*
X171425974Y-85158609D01*
X171420627Y-85170320D01*
X171388841Y-85207002D01*
X171353309Y-85253309D01*
X171339604Y-85263824D01*
X171327430Y-85277875D01*
X171289663Y-85302145D01*
X171249827Y-85332714D01*
X171228087Y-85341718D01*
X171207708Y-85354816D01*
X171169097Y-85366152D01*
X171129321Y-85382629D01*
X171099708Y-85386527D01*
X171071157Y-85394911D01*
X171036028Y-85394911D01*
X171000000Y-85399654D01*
X170963972Y-85394911D01*
X170928843Y-85394911D01*
X170900291Y-85386527D01*
X170870678Y-85382629D01*
X170830898Y-85366151D01*
X170792292Y-85354816D01*
X170771913Y-85341719D01*
X170750172Y-85332714D01*
X170710330Y-85302142D01*
X170672570Y-85277875D01*
X170660397Y-85263827D01*
X170646690Y-85253309D01*
X170611149Y-85206992D01*
X170579373Y-85170320D01*
X170574026Y-85158612D01*
X170567285Y-85149827D01*
X170540665Y-85085560D01*
X170520254Y-85040866D01*
X170519244Y-85033847D01*
X170517370Y-85029321D01*
X170504088Y-84928435D01*
X170500000Y-84900000D01*
X170504088Y-84871567D01*
X170517370Y-84770678D01*
X170519245Y-84766151D01*
X170520254Y-84759134D01*
X170540662Y-84714444D01*
X170567285Y-84650173D01*
X170574026Y-84641387D01*
X170579373Y-84629680D01*
X170611145Y-84593012D01*
X170646690Y-84546690D01*
X170660399Y-84536170D01*
X170672570Y-84522125D01*
X170710325Y-84497860D01*
X170750173Y-84467285D01*
X170771916Y-84458278D01*
X170792292Y-84445184D01*
X170830891Y-84433850D01*
X170870678Y-84417370D01*
X170900297Y-84413470D01*
X170928843Y-84405089D01*
X170963965Y-84405089D01*
X171000000Y-84400345D01*
X171036035Y-84405089D01*
G37*
G36*
X174136035Y-83905089D02*
G01*
X174171157Y-83905089D01*
X174199702Y-83913470D01*
X174229321Y-83917370D01*
X174269106Y-83933849D01*
X174307708Y-83945184D01*
X174328083Y-83958278D01*
X174349827Y-83967285D01*
X174389671Y-83997859D01*
X174427430Y-84022125D01*
X174439601Y-84036172D01*
X174453309Y-84046690D01*
X174488845Y-84093002D01*
X174520627Y-84129680D01*
X174525974Y-84141390D01*
X174532714Y-84150173D01*
X174559326Y-84214421D01*
X174579746Y-84259134D01*
X174580755Y-84266154D01*
X174582629Y-84270678D01*
X174595900Y-84371484D01*
X174600000Y-84400000D01*
X174595899Y-84428517D01*
X174582629Y-84529321D01*
X174580755Y-84533843D01*
X174579746Y-84540866D01*
X174559324Y-84585583D01*
X174532714Y-84649827D01*
X174525974Y-84658609D01*
X174520627Y-84670320D01*
X174488841Y-84707002D01*
X174453309Y-84753309D01*
X174439604Y-84763824D01*
X174427430Y-84777875D01*
X174389663Y-84802145D01*
X174349827Y-84832714D01*
X174328087Y-84841718D01*
X174307708Y-84854816D01*
X174269097Y-84866152D01*
X174229321Y-84882629D01*
X174199708Y-84886527D01*
X174171157Y-84894911D01*
X174136028Y-84894911D01*
X174100000Y-84899654D01*
X174063972Y-84894911D01*
X174028843Y-84894911D01*
X174000291Y-84886527D01*
X173970678Y-84882629D01*
X173930898Y-84866151D01*
X173892292Y-84854816D01*
X173871913Y-84841719D01*
X173850172Y-84832714D01*
X173810330Y-84802142D01*
X173772570Y-84777875D01*
X173760397Y-84763827D01*
X173746690Y-84753309D01*
X173711149Y-84706992D01*
X173679373Y-84670320D01*
X173674026Y-84658612D01*
X173667285Y-84649827D01*
X173640665Y-84585560D01*
X173620254Y-84540866D01*
X173619244Y-84533847D01*
X173617370Y-84529321D01*
X173604088Y-84428435D01*
X173600000Y-84400000D01*
X173604088Y-84371567D01*
X173617370Y-84270678D01*
X173619245Y-84266151D01*
X173620254Y-84259134D01*
X173640662Y-84214444D01*
X173667285Y-84150173D01*
X173674026Y-84141387D01*
X173679373Y-84129680D01*
X173711145Y-84093012D01*
X173746690Y-84046690D01*
X173760399Y-84036170D01*
X173772570Y-84022125D01*
X173810325Y-83997860D01*
X173850173Y-83967285D01*
X173871916Y-83958278D01*
X173892292Y-83945184D01*
X173930891Y-83933850D01*
X173970678Y-83917370D01*
X174000297Y-83913470D01*
X174028843Y-83905089D01*
X174063965Y-83905089D01*
X174100000Y-83900345D01*
X174136035Y-83905089D01*
G37*
G36*
X144061023Y-83504548D02*
G01*
X144095842Y-83504548D01*
X144124141Y-83512857D01*
X144153458Y-83516717D01*
X144192840Y-83533029D01*
X144231108Y-83544266D01*
X144251306Y-83557246D01*
X144272830Y-83566162D01*
X144312270Y-83596425D01*
X144349706Y-83620484D01*
X144361773Y-83634410D01*
X144375339Y-83644820D01*
X144410510Y-83690657D01*
X144442026Y-83727028D01*
X144447329Y-83738640D01*
X144453997Y-83747330D01*
X144480322Y-83810885D01*
X144500590Y-83855265D01*
X144501592Y-83862235D01*
X144503442Y-83866701D01*
X144516551Y-83966279D01*
X144520653Y-83994807D01*
X144516551Y-84023336D01*
X144503442Y-84122912D01*
X144501592Y-84127377D01*
X144500590Y-84134349D01*
X144480319Y-84178734D01*
X144453997Y-84242284D01*
X144447329Y-84250973D01*
X144442026Y-84262586D01*
X144410506Y-84298961D01*
X144375339Y-84344793D01*
X144361776Y-84355200D01*
X144349706Y-84369130D01*
X144312262Y-84393193D01*
X144272830Y-84423451D01*
X144251311Y-84432364D01*
X144231108Y-84445348D01*
X144192831Y-84456586D01*
X144153458Y-84472896D01*
X144124147Y-84476754D01*
X144095842Y-84485066D01*
X144061016Y-84485066D01*
X144025353Y-84489761D01*
X143989690Y-84485066D01*
X143954864Y-84485066D01*
X143926559Y-84476754D01*
X143897247Y-84472896D01*
X143857870Y-84456585D01*
X143819598Y-84445348D01*
X143799396Y-84432365D01*
X143777875Y-84423451D01*
X143738437Y-84393189D01*
X143701000Y-84369130D01*
X143688931Y-84355202D01*
X143675366Y-84344793D01*
X143640190Y-84298951D01*
X143608680Y-84262586D01*
X143603378Y-84250976D01*
X143596708Y-84242284D01*
X143570375Y-84178710D01*
X143550116Y-84134349D01*
X143549114Y-84127381D01*
X143547263Y-84122912D01*
X143534143Y-84023254D01*
X143530053Y-83994807D01*
X143534142Y-83966362D01*
X143547263Y-83866701D01*
X143549114Y-83862231D01*
X143550116Y-83855265D01*
X143570372Y-83810908D01*
X143596708Y-83747330D01*
X143603378Y-83738636D01*
X143608680Y-83727028D01*
X143640186Y-83690667D01*
X143675366Y-83644820D01*
X143688934Y-83634408D01*
X143701000Y-83620484D01*
X143738433Y-83596427D01*
X143777876Y-83566162D01*
X143799399Y-83557246D01*
X143819598Y-83544266D01*
X143857863Y-83533030D01*
X143897247Y-83516717D01*
X143926565Y-83512857D01*
X143954864Y-83504548D01*
X143989682Y-83504548D01*
X144025353Y-83499852D01*
X144061023Y-83504548D01*
G37*
G36*
X172936035Y-82205089D02*
G01*
X172971157Y-82205089D01*
X172999702Y-82213470D01*
X173029321Y-82217370D01*
X173069106Y-82233849D01*
X173107708Y-82245184D01*
X173128083Y-82258278D01*
X173149827Y-82267285D01*
X173189671Y-82297859D01*
X173227430Y-82322125D01*
X173239601Y-82336172D01*
X173253309Y-82346690D01*
X173288845Y-82393002D01*
X173320627Y-82429680D01*
X173325974Y-82441390D01*
X173332714Y-82450173D01*
X173359326Y-82514421D01*
X173379746Y-82559134D01*
X173380755Y-82566154D01*
X173382629Y-82570678D01*
X173395900Y-82671484D01*
X173400000Y-82700000D01*
X173395899Y-82728517D01*
X173382629Y-82829321D01*
X173380755Y-82833843D01*
X173379746Y-82840866D01*
X173359324Y-82885583D01*
X173332714Y-82949827D01*
X173325974Y-82958609D01*
X173320627Y-82970320D01*
X173288841Y-83007002D01*
X173253309Y-83053309D01*
X173239604Y-83063824D01*
X173227430Y-83077875D01*
X173189663Y-83102145D01*
X173149827Y-83132714D01*
X173128087Y-83141718D01*
X173107708Y-83154816D01*
X173069097Y-83166152D01*
X173029321Y-83182629D01*
X172999708Y-83186527D01*
X172971157Y-83194911D01*
X172936028Y-83194911D01*
X172900000Y-83199654D01*
X172863972Y-83194911D01*
X172828843Y-83194911D01*
X172800291Y-83186527D01*
X172770678Y-83182629D01*
X172730898Y-83166151D01*
X172692292Y-83154816D01*
X172671913Y-83141719D01*
X172650172Y-83132714D01*
X172610330Y-83102142D01*
X172572570Y-83077875D01*
X172560397Y-83063827D01*
X172546690Y-83053309D01*
X172511149Y-83006992D01*
X172479373Y-82970320D01*
X172474026Y-82958612D01*
X172467285Y-82949827D01*
X172440665Y-82885560D01*
X172420254Y-82840866D01*
X172419244Y-82833847D01*
X172417370Y-82829321D01*
X172404088Y-82728435D01*
X172400000Y-82700000D01*
X172404088Y-82671567D01*
X172417370Y-82570678D01*
X172419245Y-82566151D01*
X172420254Y-82559134D01*
X172440662Y-82514444D01*
X172467285Y-82450173D01*
X172474026Y-82441387D01*
X172479373Y-82429680D01*
X172511145Y-82393012D01*
X172546690Y-82346690D01*
X172560399Y-82336170D01*
X172572570Y-82322125D01*
X172610325Y-82297860D01*
X172650173Y-82267285D01*
X172671916Y-82258278D01*
X172692292Y-82245184D01*
X172730891Y-82233850D01*
X172770678Y-82217370D01*
X172800297Y-82213470D01*
X172828843Y-82205089D01*
X172863965Y-82205089D01*
X172900000Y-82200345D01*
X172936035Y-82205089D01*
G37*
G36*
X143045023Y-81744785D02*
G01*
X143079842Y-81744785D01*
X143108141Y-81753094D01*
X143137458Y-81756954D01*
X143176840Y-81773266D01*
X143215108Y-81784503D01*
X143235306Y-81797483D01*
X143256830Y-81806399D01*
X143296270Y-81836662D01*
X143333706Y-81860721D01*
X143345773Y-81874647D01*
X143359339Y-81885057D01*
X143394510Y-81930894D01*
X143426026Y-81967265D01*
X143431329Y-81978877D01*
X143437997Y-81987567D01*
X143464322Y-82051122D01*
X143484590Y-82095502D01*
X143485592Y-82102472D01*
X143487442Y-82106938D01*
X143500551Y-82206516D01*
X143504653Y-82235044D01*
X143500551Y-82263573D01*
X143487442Y-82363149D01*
X143485592Y-82367614D01*
X143484590Y-82374586D01*
X143464319Y-82418971D01*
X143437997Y-82482521D01*
X143431329Y-82491210D01*
X143426026Y-82502823D01*
X143394506Y-82539198D01*
X143359339Y-82585030D01*
X143345776Y-82595437D01*
X143333706Y-82609367D01*
X143296262Y-82633430D01*
X143256830Y-82663688D01*
X143235311Y-82672601D01*
X143215108Y-82685585D01*
X143176831Y-82696823D01*
X143137458Y-82713133D01*
X143108147Y-82716991D01*
X143079842Y-82725303D01*
X143045016Y-82725303D01*
X143009353Y-82729998D01*
X142973690Y-82725303D01*
X142938864Y-82725303D01*
X142910559Y-82716991D01*
X142881247Y-82713133D01*
X142841870Y-82696822D01*
X142803598Y-82685585D01*
X142783396Y-82672602D01*
X142761875Y-82663688D01*
X142722437Y-82633426D01*
X142685000Y-82609367D01*
X142672931Y-82595439D01*
X142659366Y-82585030D01*
X142624190Y-82539188D01*
X142592680Y-82502823D01*
X142587378Y-82491213D01*
X142580708Y-82482521D01*
X142554375Y-82418947D01*
X142534116Y-82374586D01*
X142533114Y-82367618D01*
X142531263Y-82363149D01*
X142518143Y-82263491D01*
X142514053Y-82235044D01*
X142518142Y-82206599D01*
X142531263Y-82106938D01*
X142533114Y-82102468D01*
X142534116Y-82095502D01*
X142554372Y-82051145D01*
X142580708Y-81987567D01*
X142587378Y-81978873D01*
X142592680Y-81967265D01*
X142624186Y-81930904D01*
X142659366Y-81885057D01*
X142672934Y-81874645D01*
X142685000Y-81860721D01*
X142722433Y-81836664D01*
X142761876Y-81806399D01*
X142783399Y-81797483D01*
X142803598Y-81784503D01*
X142841863Y-81773267D01*
X142881247Y-81756954D01*
X142910565Y-81753094D01*
X142938864Y-81744785D01*
X142973682Y-81744785D01*
X143009353Y-81740089D01*
X143045023Y-81744785D01*
G37*
G36*
X165936035Y-78905089D02*
G01*
X165971157Y-78905089D01*
X165999702Y-78913470D01*
X166029321Y-78917370D01*
X166069106Y-78933849D01*
X166107708Y-78945184D01*
X166128083Y-78958278D01*
X166149827Y-78967285D01*
X166189671Y-78997859D01*
X166227430Y-79022125D01*
X166239601Y-79036172D01*
X166253309Y-79046690D01*
X166288845Y-79093002D01*
X166320627Y-79129680D01*
X166325974Y-79141390D01*
X166332714Y-79150173D01*
X166359326Y-79214421D01*
X166379746Y-79259134D01*
X166380755Y-79266154D01*
X166382629Y-79270678D01*
X166395900Y-79371484D01*
X166400000Y-79400000D01*
X166395899Y-79428517D01*
X166382629Y-79529321D01*
X166380755Y-79533843D01*
X166379746Y-79540866D01*
X166359324Y-79585583D01*
X166332714Y-79649827D01*
X166325974Y-79658609D01*
X166320627Y-79670320D01*
X166288841Y-79707002D01*
X166253309Y-79753309D01*
X166239604Y-79763824D01*
X166227430Y-79777875D01*
X166189663Y-79802145D01*
X166149827Y-79832714D01*
X166128087Y-79841718D01*
X166107708Y-79854816D01*
X166069097Y-79866152D01*
X166029321Y-79882629D01*
X165999708Y-79886527D01*
X165971157Y-79894911D01*
X165936028Y-79894911D01*
X165900000Y-79899654D01*
X165863972Y-79894911D01*
X165828843Y-79894911D01*
X165800291Y-79886527D01*
X165770678Y-79882629D01*
X165730898Y-79866151D01*
X165692292Y-79854816D01*
X165671913Y-79841719D01*
X165650172Y-79832714D01*
X165610330Y-79802142D01*
X165572570Y-79777875D01*
X165560397Y-79763827D01*
X165546690Y-79753309D01*
X165511149Y-79706992D01*
X165479373Y-79670320D01*
X165474026Y-79658612D01*
X165467285Y-79649827D01*
X165440665Y-79585560D01*
X165420254Y-79540866D01*
X165419244Y-79533847D01*
X165417370Y-79529321D01*
X165404088Y-79428435D01*
X165400000Y-79400000D01*
X165404088Y-79371567D01*
X165417370Y-79270678D01*
X165419245Y-79266151D01*
X165420254Y-79259134D01*
X165440662Y-79214444D01*
X165467285Y-79150173D01*
X165474026Y-79141387D01*
X165479373Y-79129680D01*
X165511145Y-79093012D01*
X165546690Y-79046690D01*
X165560399Y-79036170D01*
X165572570Y-79022125D01*
X165610325Y-78997860D01*
X165650173Y-78967285D01*
X165671916Y-78958278D01*
X165692292Y-78945184D01*
X165730891Y-78933850D01*
X165770678Y-78917370D01*
X165800297Y-78913470D01*
X165828843Y-78905089D01*
X165863965Y-78905089D01*
X165900000Y-78900345D01*
X165936035Y-78905089D01*
G37*
G36*
X164136035Y-78005089D02*
G01*
X164171157Y-78005089D01*
X164199702Y-78013470D01*
X164229321Y-78017370D01*
X164269106Y-78033849D01*
X164307708Y-78045184D01*
X164328083Y-78058278D01*
X164349827Y-78067285D01*
X164389671Y-78097859D01*
X164427430Y-78122125D01*
X164439601Y-78136172D01*
X164453309Y-78146690D01*
X164488845Y-78193002D01*
X164520627Y-78229680D01*
X164525974Y-78241390D01*
X164532714Y-78250173D01*
X164559326Y-78314421D01*
X164579746Y-78359134D01*
X164580755Y-78366154D01*
X164582629Y-78370678D01*
X164595900Y-78471484D01*
X164600000Y-78500000D01*
X164595899Y-78528517D01*
X164582629Y-78629321D01*
X164580755Y-78633843D01*
X164579746Y-78640866D01*
X164559324Y-78685583D01*
X164532714Y-78749827D01*
X164525974Y-78758609D01*
X164520627Y-78770320D01*
X164488841Y-78807002D01*
X164453309Y-78853309D01*
X164439604Y-78863824D01*
X164427430Y-78877875D01*
X164389663Y-78902145D01*
X164349827Y-78932714D01*
X164328087Y-78941718D01*
X164307708Y-78954816D01*
X164269097Y-78966152D01*
X164229321Y-78982629D01*
X164199708Y-78986527D01*
X164171157Y-78994911D01*
X164136028Y-78994911D01*
X164100000Y-78999654D01*
X164063972Y-78994911D01*
X164028843Y-78994911D01*
X164000291Y-78986527D01*
X163970678Y-78982629D01*
X163930898Y-78966151D01*
X163892292Y-78954816D01*
X163871913Y-78941719D01*
X163850172Y-78932714D01*
X163810330Y-78902142D01*
X163772570Y-78877875D01*
X163760397Y-78863827D01*
X163746690Y-78853309D01*
X163711149Y-78806992D01*
X163679373Y-78770320D01*
X163674026Y-78758612D01*
X163667285Y-78749827D01*
X163640665Y-78685560D01*
X163620254Y-78640866D01*
X163619244Y-78633847D01*
X163617370Y-78629321D01*
X163604088Y-78528435D01*
X163600000Y-78500000D01*
X163604088Y-78471567D01*
X163617370Y-78370678D01*
X163619245Y-78366151D01*
X163620254Y-78359134D01*
X163640662Y-78314444D01*
X163667285Y-78250173D01*
X163674026Y-78241387D01*
X163679373Y-78229680D01*
X163711145Y-78193012D01*
X163746690Y-78146690D01*
X163760399Y-78136170D01*
X163772570Y-78122125D01*
X163810325Y-78097860D01*
X163850173Y-78067285D01*
X163871916Y-78058278D01*
X163892292Y-78045184D01*
X163930891Y-78033850D01*
X163970678Y-78017370D01*
X164000297Y-78013470D01*
X164028843Y-78005089D01*
X164063965Y-78005089D01*
X164100000Y-78000345D01*
X164136035Y-78005089D01*
G37*
G36*
X162436035Y-76905089D02*
G01*
X162471157Y-76905089D01*
X162499702Y-76913470D01*
X162529321Y-76917370D01*
X162569106Y-76933849D01*
X162607708Y-76945184D01*
X162628083Y-76958278D01*
X162649827Y-76967285D01*
X162689671Y-76997859D01*
X162727430Y-77022125D01*
X162739601Y-77036172D01*
X162753309Y-77046690D01*
X162788845Y-77093002D01*
X162820627Y-77129680D01*
X162825974Y-77141390D01*
X162832714Y-77150173D01*
X162859326Y-77214421D01*
X162879746Y-77259134D01*
X162880755Y-77266154D01*
X162882629Y-77270678D01*
X162895900Y-77371484D01*
X162900000Y-77400000D01*
X162895899Y-77428517D01*
X162882629Y-77529321D01*
X162880755Y-77533843D01*
X162879746Y-77540866D01*
X162859324Y-77585583D01*
X162832714Y-77649827D01*
X162825974Y-77658609D01*
X162820627Y-77670320D01*
X162788841Y-77707002D01*
X162753309Y-77753309D01*
X162739604Y-77763824D01*
X162727430Y-77777875D01*
X162689663Y-77802145D01*
X162649827Y-77832714D01*
X162628087Y-77841718D01*
X162607708Y-77854816D01*
X162569097Y-77866152D01*
X162529321Y-77882629D01*
X162499708Y-77886527D01*
X162471157Y-77894911D01*
X162436028Y-77894911D01*
X162400000Y-77899654D01*
X162363972Y-77894911D01*
X162328843Y-77894911D01*
X162300291Y-77886527D01*
X162270678Y-77882629D01*
X162230898Y-77866151D01*
X162192292Y-77854816D01*
X162171913Y-77841719D01*
X162150172Y-77832714D01*
X162110330Y-77802142D01*
X162072570Y-77777875D01*
X162060397Y-77763827D01*
X162046690Y-77753309D01*
X162011149Y-77706992D01*
X161979373Y-77670320D01*
X161974026Y-77658612D01*
X161967285Y-77649827D01*
X161940665Y-77585560D01*
X161920254Y-77540866D01*
X161919244Y-77533847D01*
X161917370Y-77529321D01*
X161904088Y-77428435D01*
X161900000Y-77400000D01*
X161904088Y-77371567D01*
X161917370Y-77270678D01*
X161919245Y-77266151D01*
X161920254Y-77259134D01*
X161940662Y-77214444D01*
X161967285Y-77150173D01*
X161974026Y-77141387D01*
X161979373Y-77129680D01*
X162011145Y-77093012D01*
X162046690Y-77046690D01*
X162060399Y-77036170D01*
X162072570Y-77022125D01*
X162110325Y-76997860D01*
X162150173Y-76967285D01*
X162171916Y-76958278D01*
X162192292Y-76945184D01*
X162230891Y-76933850D01*
X162270678Y-76917370D01*
X162300297Y-76913470D01*
X162328843Y-76905089D01*
X162363965Y-76905089D01*
X162400000Y-76900345D01*
X162436035Y-76905089D01*
G37*
G36*
X166536035Y-76105089D02*
G01*
X166571157Y-76105089D01*
X166599702Y-76113470D01*
X166629321Y-76117370D01*
X166669106Y-76133849D01*
X166707708Y-76145184D01*
X166728083Y-76158278D01*
X166749827Y-76167285D01*
X166789671Y-76197859D01*
X166827430Y-76222125D01*
X166839601Y-76236172D01*
X166853309Y-76246690D01*
X166888845Y-76293002D01*
X166920627Y-76329680D01*
X166925974Y-76341390D01*
X166932714Y-76350173D01*
X166959326Y-76414421D01*
X166979746Y-76459134D01*
X166980755Y-76466154D01*
X166982629Y-76470678D01*
X166995900Y-76571484D01*
X167000000Y-76600000D01*
X166995899Y-76628517D01*
X166982629Y-76729321D01*
X166980755Y-76733843D01*
X166979746Y-76740866D01*
X166959324Y-76785583D01*
X166932714Y-76849827D01*
X166925974Y-76858609D01*
X166920627Y-76870320D01*
X166888841Y-76907002D01*
X166853309Y-76953309D01*
X166839604Y-76963824D01*
X166827430Y-76977875D01*
X166789663Y-77002145D01*
X166749827Y-77032714D01*
X166728087Y-77041718D01*
X166707708Y-77054816D01*
X166669097Y-77066152D01*
X166629321Y-77082629D01*
X166599708Y-77086527D01*
X166571157Y-77094911D01*
X166536028Y-77094911D01*
X166500000Y-77099654D01*
X166463972Y-77094911D01*
X166428843Y-77094911D01*
X166400291Y-77086527D01*
X166370678Y-77082629D01*
X166330898Y-77066151D01*
X166292292Y-77054816D01*
X166271913Y-77041719D01*
X166250172Y-77032714D01*
X166210330Y-77002142D01*
X166172570Y-76977875D01*
X166160397Y-76963827D01*
X166146690Y-76953309D01*
X166111149Y-76906992D01*
X166079373Y-76870320D01*
X166074026Y-76858612D01*
X166067285Y-76849827D01*
X166040665Y-76785560D01*
X166020254Y-76740866D01*
X166019244Y-76733847D01*
X166017370Y-76729321D01*
X166004088Y-76628435D01*
X166000000Y-76600000D01*
X166004088Y-76571567D01*
X166017370Y-76470678D01*
X166019245Y-76466151D01*
X166020254Y-76459134D01*
X166040662Y-76414444D01*
X166067285Y-76350173D01*
X166074026Y-76341387D01*
X166079373Y-76329680D01*
X166111145Y-76293012D01*
X166146690Y-76246690D01*
X166160399Y-76236170D01*
X166172570Y-76222125D01*
X166210325Y-76197860D01*
X166250173Y-76167285D01*
X166271916Y-76158278D01*
X166292292Y-76145184D01*
X166330891Y-76133850D01*
X166370678Y-76117370D01*
X166400297Y-76113470D01*
X166428843Y-76105089D01*
X166463965Y-76105089D01*
X166500000Y-76100345D01*
X166536035Y-76105089D01*
G37*
G36*
X160736035Y-75805089D02*
G01*
X160771157Y-75805089D01*
X160799702Y-75813470D01*
X160829321Y-75817370D01*
X160869106Y-75833849D01*
X160907708Y-75845184D01*
X160928083Y-75858278D01*
X160949827Y-75867285D01*
X160989671Y-75897859D01*
X161027430Y-75922125D01*
X161039601Y-75936172D01*
X161053309Y-75946690D01*
X161088845Y-75993002D01*
X161120627Y-76029680D01*
X161125974Y-76041390D01*
X161132714Y-76050173D01*
X161159326Y-76114421D01*
X161179746Y-76159134D01*
X161180755Y-76166154D01*
X161182629Y-76170678D01*
X161195900Y-76271484D01*
X161200000Y-76300000D01*
X161195899Y-76328517D01*
X161182629Y-76429321D01*
X161180755Y-76433843D01*
X161179746Y-76440866D01*
X161159324Y-76485583D01*
X161132714Y-76549827D01*
X161125974Y-76558609D01*
X161120627Y-76570320D01*
X161088841Y-76607002D01*
X161053309Y-76653309D01*
X161039604Y-76663824D01*
X161027430Y-76677875D01*
X160989663Y-76702145D01*
X160949827Y-76732714D01*
X160928087Y-76741718D01*
X160907708Y-76754816D01*
X160869097Y-76766152D01*
X160829321Y-76782629D01*
X160799708Y-76786527D01*
X160771157Y-76794911D01*
X160736028Y-76794911D01*
X160700000Y-76799654D01*
X160663972Y-76794911D01*
X160628843Y-76794911D01*
X160600291Y-76786527D01*
X160570678Y-76782629D01*
X160530898Y-76766151D01*
X160492292Y-76754816D01*
X160471913Y-76741719D01*
X160450172Y-76732714D01*
X160410330Y-76702142D01*
X160372570Y-76677875D01*
X160360397Y-76663827D01*
X160346690Y-76653309D01*
X160311149Y-76606992D01*
X160279373Y-76570320D01*
X160274026Y-76558612D01*
X160267285Y-76549827D01*
X160240665Y-76485560D01*
X160220254Y-76440866D01*
X160219244Y-76433847D01*
X160217370Y-76429321D01*
X160204088Y-76328435D01*
X160200000Y-76300000D01*
X160204088Y-76271567D01*
X160217370Y-76170678D01*
X160219245Y-76166151D01*
X160220254Y-76159134D01*
X160240662Y-76114444D01*
X160267285Y-76050173D01*
X160274026Y-76041387D01*
X160279373Y-76029680D01*
X160311145Y-75993012D01*
X160346690Y-75946690D01*
X160360399Y-75936170D01*
X160372570Y-75922125D01*
X160410325Y-75897860D01*
X160450173Y-75867285D01*
X160471916Y-75858278D01*
X160492292Y-75845184D01*
X160530891Y-75833850D01*
X160570678Y-75817370D01*
X160600297Y-75813470D01*
X160628843Y-75805089D01*
X160663965Y-75805089D01*
X160700000Y-75800345D01*
X160736035Y-75805089D01*
G37*
G36*
X156086035Y-75605089D02*
G01*
X156121157Y-75605089D01*
X156149702Y-75613470D01*
X156179321Y-75617370D01*
X156219106Y-75633849D01*
X156257708Y-75645184D01*
X156278083Y-75658278D01*
X156299827Y-75667285D01*
X156339671Y-75697859D01*
X156377430Y-75722125D01*
X156389601Y-75736172D01*
X156403309Y-75746690D01*
X156438845Y-75793002D01*
X156470627Y-75829680D01*
X156475974Y-75841390D01*
X156482714Y-75850173D01*
X156509326Y-75914421D01*
X156529746Y-75959134D01*
X156530755Y-75966154D01*
X156532629Y-75970678D01*
X156545900Y-76071484D01*
X156550000Y-76100000D01*
X156545899Y-76128517D01*
X156532629Y-76229321D01*
X156530755Y-76233843D01*
X156529746Y-76240866D01*
X156509324Y-76285583D01*
X156482714Y-76349827D01*
X156475974Y-76358609D01*
X156470627Y-76370320D01*
X156438841Y-76407002D01*
X156403309Y-76453309D01*
X156389604Y-76463824D01*
X156377430Y-76477875D01*
X156339663Y-76502145D01*
X156299827Y-76532714D01*
X156278087Y-76541718D01*
X156257708Y-76554816D01*
X156219097Y-76566152D01*
X156179321Y-76582629D01*
X156149708Y-76586527D01*
X156121157Y-76594911D01*
X156086028Y-76594911D01*
X156050000Y-76599654D01*
X156013972Y-76594911D01*
X155978843Y-76594911D01*
X155950291Y-76586527D01*
X155920678Y-76582629D01*
X155880898Y-76566151D01*
X155842292Y-76554816D01*
X155821913Y-76541719D01*
X155800172Y-76532714D01*
X155760330Y-76502142D01*
X155722570Y-76477875D01*
X155710397Y-76463827D01*
X155696690Y-76453309D01*
X155661149Y-76406992D01*
X155629373Y-76370320D01*
X155624026Y-76358612D01*
X155617285Y-76349827D01*
X155590665Y-76285560D01*
X155570254Y-76240866D01*
X155569244Y-76233847D01*
X155567370Y-76229321D01*
X155554088Y-76128435D01*
X155550000Y-76100000D01*
X155554088Y-76071567D01*
X155567370Y-75970678D01*
X155569245Y-75966151D01*
X155570254Y-75959134D01*
X155590662Y-75914444D01*
X155617285Y-75850173D01*
X155624026Y-75841387D01*
X155629373Y-75829680D01*
X155661145Y-75793012D01*
X155696690Y-75746690D01*
X155710399Y-75736170D01*
X155722570Y-75722125D01*
X155760325Y-75697860D01*
X155800173Y-75667285D01*
X155821916Y-75658278D01*
X155842292Y-75645184D01*
X155880891Y-75633850D01*
X155920678Y-75617370D01*
X155950297Y-75613470D01*
X155978843Y-75605089D01*
X156013965Y-75605089D01*
X156050000Y-75600345D01*
X156086035Y-75605089D01*
G37*
G36*
X164736035Y-75205089D02*
G01*
X164771157Y-75205089D01*
X164799702Y-75213470D01*
X164829321Y-75217370D01*
X164869106Y-75233849D01*
X164907708Y-75245184D01*
X164928083Y-75258278D01*
X164949827Y-75267285D01*
X164989671Y-75297859D01*
X165027430Y-75322125D01*
X165039601Y-75336172D01*
X165053309Y-75346690D01*
X165088845Y-75393002D01*
X165120627Y-75429680D01*
X165125974Y-75441390D01*
X165132714Y-75450173D01*
X165159326Y-75514421D01*
X165179746Y-75559134D01*
X165180755Y-75566154D01*
X165182629Y-75570678D01*
X165195900Y-75671484D01*
X165200000Y-75700000D01*
X165195899Y-75728517D01*
X165182629Y-75829321D01*
X165180755Y-75833843D01*
X165179746Y-75840866D01*
X165159324Y-75885583D01*
X165132714Y-75949827D01*
X165125974Y-75958609D01*
X165120627Y-75970320D01*
X165088841Y-76007002D01*
X165053309Y-76053309D01*
X165039604Y-76063824D01*
X165027430Y-76077875D01*
X164989663Y-76102145D01*
X164949827Y-76132714D01*
X164928087Y-76141718D01*
X164907708Y-76154816D01*
X164869097Y-76166152D01*
X164829321Y-76182629D01*
X164799708Y-76186527D01*
X164771157Y-76194911D01*
X164736028Y-76194911D01*
X164700000Y-76199654D01*
X164663972Y-76194911D01*
X164628843Y-76194911D01*
X164600291Y-76186527D01*
X164570678Y-76182629D01*
X164530898Y-76166151D01*
X164492292Y-76154816D01*
X164471913Y-76141719D01*
X164450172Y-76132714D01*
X164410330Y-76102142D01*
X164372570Y-76077875D01*
X164360397Y-76063827D01*
X164346690Y-76053309D01*
X164311149Y-76006992D01*
X164279373Y-75970320D01*
X164274026Y-75958612D01*
X164267285Y-75949827D01*
X164240665Y-75885560D01*
X164220254Y-75840866D01*
X164219244Y-75833847D01*
X164217370Y-75829321D01*
X164204088Y-75728435D01*
X164200000Y-75700000D01*
X164204088Y-75671567D01*
X164217370Y-75570678D01*
X164219245Y-75566151D01*
X164220254Y-75559134D01*
X164240662Y-75514444D01*
X164267285Y-75450173D01*
X164274026Y-75441387D01*
X164279373Y-75429680D01*
X164311145Y-75393012D01*
X164346690Y-75346690D01*
X164360399Y-75336170D01*
X164372570Y-75322125D01*
X164410325Y-75297860D01*
X164450173Y-75267285D01*
X164471916Y-75258278D01*
X164492292Y-75245184D01*
X164530891Y-75233850D01*
X164570678Y-75217370D01*
X164600297Y-75213470D01*
X164628843Y-75205089D01*
X164663965Y-75205089D01*
X164700000Y-75200345D01*
X164736035Y-75205089D01*
G37*
G36*
X163036035Y-74105089D02*
G01*
X163071157Y-74105089D01*
X163099702Y-74113470D01*
X163129321Y-74117370D01*
X163169106Y-74133849D01*
X163207708Y-74145184D01*
X163228083Y-74158278D01*
X163249827Y-74167285D01*
X163289671Y-74197859D01*
X163327430Y-74222125D01*
X163339601Y-74236172D01*
X163353309Y-74246690D01*
X163388845Y-74293002D01*
X163420627Y-74329680D01*
X163425974Y-74341390D01*
X163432714Y-74350173D01*
X163459326Y-74414421D01*
X163479746Y-74459134D01*
X163480755Y-74466154D01*
X163482629Y-74470678D01*
X163495900Y-74571484D01*
X163500000Y-74600000D01*
X163495899Y-74628517D01*
X163482629Y-74729321D01*
X163480755Y-74733843D01*
X163479746Y-74740866D01*
X163459324Y-74785583D01*
X163432714Y-74849827D01*
X163425974Y-74858609D01*
X163420627Y-74870320D01*
X163388841Y-74907002D01*
X163353309Y-74953309D01*
X163339604Y-74963824D01*
X163327430Y-74977875D01*
X163289663Y-75002145D01*
X163249827Y-75032714D01*
X163228087Y-75041718D01*
X163207708Y-75054816D01*
X163169097Y-75066152D01*
X163129321Y-75082629D01*
X163099708Y-75086527D01*
X163071157Y-75094911D01*
X163036028Y-75094911D01*
X163000000Y-75099654D01*
X162963972Y-75094911D01*
X162928843Y-75094911D01*
X162900291Y-75086527D01*
X162870678Y-75082629D01*
X162830898Y-75066151D01*
X162792292Y-75054816D01*
X162771913Y-75041719D01*
X162750172Y-75032714D01*
X162710330Y-75002142D01*
X162672570Y-74977875D01*
X162660397Y-74963827D01*
X162646690Y-74953309D01*
X162611149Y-74906992D01*
X162579373Y-74870320D01*
X162574026Y-74858612D01*
X162567285Y-74849827D01*
X162540665Y-74785560D01*
X162520254Y-74740866D01*
X162519244Y-74733847D01*
X162517370Y-74729321D01*
X162504088Y-74628435D01*
X162500000Y-74600000D01*
X162504088Y-74571567D01*
X162517370Y-74470678D01*
X162519245Y-74466151D01*
X162520254Y-74459134D01*
X162540662Y-74414444D01*
X162567285Y-74350173D01*
X162574026Y-74341387D01*
X162579373Y-74329680D01*
X162611145Y-74293012D01*
X162646690Y-74246690D01*
X162660399Y-74236170D01*
X162672570Y-74222125D01*
X162710325Y-74197860D01*
X162750173Y-74167285D01*
X162771916Y-74158278D01*
X162792292Y-74145184D01*
X162830891Y-74133850D01*
X162870678Y-74117370D01*
X162900297Y-74113470D01*
X162928843Y-74105089D01*
X162963965Y-74105089D01*
X163000000Y-74100345D01*
X163036035Y-74105089D01*
G37*
G36*
X161236035Y-73105089D02*
G01*
X161271157Y-73105089D01*
X161299702Y-73113470D01*
X161329321Y-73117370D01*
X161369106Y-73133849D01*
X161407708Y-73145184D01*
X161428083Y-73158278D01*
X161449827Y-73167285D01*
X161489671Y-73197859D01*
X161527430Y-73222125D01*
X161539601Y-73236172D01*
X161553309Y-73246690D01*
X161588845Y-73293002D01*
X161620627Y-73329680D01*
X161625974Y-73341390D01*
X161632714Y-73350173D01*
X161659326Y-73414421D01*
X161679746Y-73459134D01*
X161680755Y-73466154D01*
X161682629Y-73470678D01*
X161695900Y-73571484D01*
X161700000Y-73600000D01*
X161695899Y-73628517D01*
X161682629Y-73729321D01*
X161680755Y-73733843D01*
X161679746Y-73740866D01*
X161659324Y-73785583D01*
X161632714Y-73849827D01*
X161625974Y-73858609D01*
X161620627Y-73870320D01*
X161588841Y-73907002D01*
X161553309Y-73953309D01*
X161539604Y-73963824D01*
X161527430Y-73977875D01*
X161489663Y-74002145D01*
X161449827Y-74032714D01*
X161428087Y-74041718D01*
X161407708Y-74054816D01*
X161369097Y-74066152D01*
X161329321Y-74082629D01*
X161299708Y-74086527D01*
X161271157Y-74094911D01*
X161236028Y-74094911D01*
X161200000Y-74099654D01*
X161163972Y-74094911D01*
X161128843Y-74094911D01*
X161100291Y-74086527D01*
X161070678Y-74082629D01*
X161030898Y-74066151D01*
X160992292Y-74054816D01*
X160971913Y-74041719D01*
X160950172Y-74032714D01*
X160910330Y-74002142D01*
X160872570Y-73977875D01*
X160860397Y-73963827D01*
X160846690Y-73953309D01*
X160811149Y-73906992D01*
X160779373Y-73870320D01*
X160774026Y-73858612D01*
X160767285Y-73849827D01*
X160740665Y-73785560D01*
X160720254Y-73740866D01*
X160719244Y-73733847D01*
X160717370Y-73729321D01*
X160704088Y-73628435D01*
X160700000Y-73600000D01*
X160704088Y-73571567D01*
X160717370Y-73470678D01*
X160719245Y-73466151D01*
X160720254Y-73459134D01*
X160740662Y-73414444D01*
X160767285Y-73350173D01*
X160774026Y-73341387D01*
X160779373Y-73329680D01*
X160811145Y-73293012D01*
X160846690Y-73246690D01*
X160860399Y-73236170D01*
X160872570Y-73222125D01*
X160910325Y-73197860D01*
X160950173Y-73167285D01*
X160971916Y-73158278D01*
X160992292Y-73145184D01*
X161030891Y-73133850D01*
X161070678Y-73117370D01*
X161100297Y-73113470D01*
X161128843Y-73105089D01*
X161163965Y-73105089D01*
X161200000Y-73100345D01*
X161236035Y-73105089D01*
G37*
M02*
