M48
; DRILL file {KiCad 8.0.3} date 2024-11-06T16:38:13-0500
; FORMAT={-:-/ absolute / inch / decimal}
; #@! TF.CreationDate,2024-11-06T16:38:13-05:00
; #@! TF.GenerationSoftware,Kicad,Pcbnew,8.0.3
; #@! TF.FileFunction,Plated,1,4,PTH
FMAT,2
INCH
; #@! TA.AperFunction,Plated,PTH,ViaDrill
T1C0.0098
; #@! TA.AperFunction,Plated,PTH,ViaDrill
T2C0.0118
; #@! TA.AperFunction,Plated,PTH,ViaDrill
T3C0.0157
; #@! TA.AperFunction,Plated,PTH,ComponentDrill
T4C0.0236
; #@! TA.AperFunction,Plated,PTH,ComponentDrill
T5C0.0394
; #@! TA.AperFunction,Plated,PTH,ComponentDrill
T6C0.0630
%
G90
G05
T1
X4.5807Y-4.0433
X4.5827Y-3.9114
X4.6585Y-3.6434
X4.7323Y-3.3071
X4.7331Y-3.8417
X4.7638Y-4.6299
X4.7657Y-3.5807
X4.7667Y-3.6823
X4.7874Y-4.4606
X4.812Y-3.5423
X4.8256Y-4.0335
X4.8504Y-3.4646
X4.8504Y-3.8496
X4.8543Y-4.2677
X4.8563Y-3.6575
X4.8571Y-3.965
X4.8701Y-3.3071
X4.8878Y-3.5413
X4.8996Y-4.2618
X4.9228Y-3.8358
X4.9304Y-3.3052
X4.9354Y-4.0232
X4.9395Y-4.2846
X4.9552Y-3.4055
X4.9656Y-3.6823
X4.9695Y-4.5866
X4.9744Y-3.3445
X4.9762Y-3.5194
X4.997Y-3.4477
X5.0035Y-3.1555
X5.0118Y-3.2835
X5.0232Y-3.8343
X5.0354Y-4.4222
X5.0398Y-4.3025
X5.0472Y-3.5058
X5.0488Y-4.0547
X5.061Y-3.7835
X5.0699Y-4.4843
X5.0787Y-3.3425
X5.0807Y-4.5476
X5.0807Y-4.689
X5.0984Y-3.6654
X5.0984Y-4.0669
X5.1024Y-3.2087
X5.1024Y-3.9094
X5.1039Y-3.4291
X5.1063Y-4.0079
X5.1142Y-3.0453
X5.122Y-5.0236
X5.1314Y-3.4691
X5.1319Y-3.876
X5.1594Y-4.4803
X5.1614Y-3.5177
X5.1689Y-3.1398
X5.1716Y-3.3507
X5.1811Y-3.9114
X5.185Y-4.0039
X5.189Y-3.8701
X5.1898Y-4.2811
X5.1919Y-4.4557
X5.1949Y-4.5236
X5.2008Y-4.6161
X5.2055Y-4.8728
X5.2091Y-4.3894
X5.2146Y-4.3248
X5.2245Y-2.8355
X5.2431Y-2.9783
X5.2457Y-3.1004
X5.252Y-5.0969
X5.2598Y-3.3209
X5.2638Y-3.6437
X5.2697Y-3.7047
X5.2713Y-3.5087
X5.2717Y-4.9134
X5.2785Y-4.4163
X5.292Y-3.4351
X5.3171Y-4.7138
X5.3224Y-3.1437
X5.3474Y-3.3142
X5.3563Y-4.8602
X5.3663Y-3.7736
X5.3685Y-4.276
X5.3693Y-4.1374
X5.3705Y-3.0634
X5.3711Y-2.9114
X5.3759Y-4.9712
X5.3787Y-4.2303
X5.3937Y-4.8573
X5.3996Y-4.3228
X5.3996Y-4.4291
X5.4Y-3.3776
X5.4Y-3.6506
X5.4026Y-3.7205
X5.4026Y-4.0659
X5.4104Y-4.9931
X5.413Y-3.2173
X5.413Y-3.2839
X5.4252Y-4.5276
X5.4272Y-4.9281
X5.4311Y-4.6152
X5.4319Y-3.5524
X5.4327Y-3.835
X5.4362Y-3.002
X5.4364Y-3.7201
X5.4429Y-3.9705
X5.4488Y-5.2185
X5.4546Y-2.7882
X5.4695Y-3.7197
X5.4813Y-3.2303
X5.4886Y-4.8008
X5.4892Y-3.7726
X5.4892Y-4.3002
X5.4941Y-2.8386
X5.502Y-4.3937
X5.5039Y-4.4921
X5.5049Y-4.6142
X5.5128Y-3.9577
X5.5189Y-4.9697
X5.5235Y-4.2406
X5.5339Y-3.4717
X5.5343Y-2.9823
X5.5421Y-3.8213
X5.5679Y-4.3268
X5.5764Y-2.9197
X5.5768Y-3.3878
X5.5768Y-3.6142
X5.5804Y-3.2423
X5.5835Y-3.0941
X5.5868Y-4.8683
X5.6024Y-4.9646
X5.626Y-4.7244
X5.6299Y-3.3504
X5.6425Y-3.4646
X5.6486Y-4.4154
X5.6516Y-4.1506
X5.6535Y-5.2756
X5.6551Y-3.076
X5.6565Y-3.8894
X5.6654Y-3.163
X5.6654Y-4.937
X5.6772Y-3.2165
X5.6787Y-2.8028
X5.6831Y-3.7224
X5.6969Y-3.7638
X5.7047Y-4.3189
X5.7067Y-4.0945
X5.7114Y-3.9795
X5.7185Y-3.189
X5.7244Y-2.9094
X5.7244Y-3.0965
X5.7244Y-4.7667
X5.7256Y-5.0858
X5.7303Y-3.8323
X5.7555Y-2.7984
X5.7618Y-4.624
X5.7726Y-3.4419
X5.7764Y-3.8417
X5.7776Y-4.0925
X5.7913Y-4.3189
X5.7913Y-4.7559
X5.7933Y-3.9094
X5.7947Y-3.4966
X5.7972Y-3.7618
X5.8039Y-3.9559
X5.8189Y-3.5249
X5.8268Y-4.122
X5.8268Y-4.4567
X5.8272Y-4.9094
X5.8287Y-4.5138
X5.8376Y-5.0128
X5.8386Y-3.7106
X5.8445Y-4.752
X5.8465Y-4.3346
X5.8618Y-3.3378
X5.876Y-3.8406
X5.878Y-4.3937
X5.8819Y-4.1752
X5.8858Y-4.5236
X5.8858Y-5.0984
X5.8886Y-5.2697
X5.8917Y-4.4705
X5.8937Y-4.1024
X5.8957Y-4.628
X5.8976Y-4.752
X5.9252Y-5.0984
X5.9272Y-3.4961
X5.9272Y-3.5413
X5.935Y-3.3268
X5.935Y-5.0138
X5.939Y-4.3189
X5.9406Y-4.4859
X5.9449Y-4.3622
X5.9488Y-3.8025
X5.9508Y-4.6299
X5.9528Y-4.748
X5.9724Y-4.1063
X5.9843Y-3.6949
X5.9941Y-4.3051
X5.999Y-4.1398
X6.002Y-4.872
X6.0039Y-4.5732
X6.0039Y-4.7677
X6.0148Y-5.0108
X6.0197Y-2.7795
X6.0197Y-2.8819
X6.0226Y-2.9882
X6.0433Y-5.0984
X6.0532Y-4.7966
X6.0551Y-3.9449
X6.0551Y-4.3898
X6.0571Y-4.7421
X6.0591Y-4.1752
X6.061Y-4.0984
X6.063Y-4.5728
X6.0709Y-3.7677
X6.0787Y-3.4498
X6.0984Y-3.3563
X6.1004Y-5.002
X6.1039Y-3.2949
X6.1102Y-3.8543
X6.1112Y-2.997
X6.1112Y-3.5108
X6.1122Y-4.3878
X6.1152Y-2.7756
X6.1152Y-2.8907
X6.1152Y-3.0797
X6.1181Y-4.8701
X6.1358Y-4.8327
X6.1388Y-4.5512
X6.1398Y-3.9469
X6.1425Y-5.1122
X6.1437Y-4.0965
X6.1476Y-3.6988
X6.1535Y-5.2756
X6.1614Y-4.9823
X6.1791Y-3.6267
X6.1799Y-2.95
X6.191Y-4.2076
X6.2047Y-4.4724
X6.2047Y-4.7244
X6.2087Y-4.5974
X6.2175Y-3.5413
X6.2185Y-3.6654
X6.2713Y-3.9836
X6.2737Y-4.0803
X6.2741Y-3.4118
X6.2756Y-3.5945
X6.2864Y-3.0984
X6.2933Y-3.2638
X6.2943Y-4.7008
X6.3041Y-3.1998
X6.3091Y-4.1811
X6.3114Y-3.0453
X6.3159Y-3.3829
X6.3169Y-3.4591
X6.3189Y-4.4291
X6.3307Y-4.2992
X6.3396Y-3.6348
X6.3429Y-3.2788
X6.3465Y-4.1575
X6.3465Y-5.063
X6.3524Y-3.4183
X6.3563Y-3.5039
X6.3622Y-4.374
X6.3661Y-4.4843
X6.3661Y-4.6063
X6.3701Y-4.0157
X6.377Y-3.3248
X6.378Y-3.9252
X6.3937Y-4.1142
X6.3976Y-3.626
X6.4134Y-3.4331
X6.4157Y-4.0583
X6.4193Y-3.4815
X6.4301Y-4.3228
X6.4346Y-4.8728
X6.436Y-4.9724
X6.4409Y-4.2126
X6.4409Y-4.5276
X6.4409Y-4.6102
X6.4429Y-3.2077
X6.4449Y-3.8386
X6.4476Y-3.1201
X6.4606Y-5.1614
X6.4705Y-4.0787
X6.4882Y-2.7283
X6.4882Y-3.9724
X6.5Y-3.6319
X6.5059Y-4.1142
X6.5089Y-4.0423
X6.5089Y-4.8159
X6.5108Y-4.4085
X6.511Y-3.8752
X6.5157Y-4.5276
X6.5177Y-4.1535
X6.5236Y-4.9803
X6.5285Y-4.8533
X6.5374Y-4.9121
X6.5626Y-3.3189
X6.5626Y-3.3583
X6.5626Y-3.3976
X6.5689Y-4.8907
X6.5709Y-3.2096
X6.5748Y-4.4921
X6.5748Y-4.6083
X6.581Y-3.5293
X6.5817Y-4.5787
X6.5866Y-4.2953
X6.5866Y-4.4331
X6.5876Y-4.7638
X6.5984Y-3.4528
X6.5984Y-3.6201
X6.602Y-3.3189
X6.602Y-3.3583
X6.602Y-3.3976
X6.6024Y-4.0443
X6.6142Y-3.7106
X6.6142Y-3.7894
X6.615Y-2.8016
X6.6171Y-4.8002
X6.6272Y-3.6575
X6.6378Y-3.113
X6.6413Y-3.8465
X6.6437Y-3.75
X6.6467Y-4.44
X6.6535Y-4.8228
X6.6575Y-4.8701
X6.6585Y-3.2815
X6.6634Y-3.8888
X6.6654Y-4.2992
X6.6722Y-4.0443
X6.6722Y-4.2087
X6.6732Y-3.7106
X6.6732Y-3.7894
X6.6781Y-3.4665
X6.6831Y-4.5689
X6.6909Y-3.613
X6.6949Y-4.4606
X6.6969Y-5.0276
X6.7008Y-4.6427
X6.7028Y-3.2815
X6.7063Y-3.6787
X6.7126Y-3.2339
X6.7185Y-4.3317
X6.7402Y-4.0433
X6.7628Y-4.378
X6.7756Y-4.6801
X6.7776Y-4.6378
X6.7825Y-3.8951
X6.8012Y-3.247
X6.8067Y-3.8579
X6.811Y-4.4213
X6.8189Y-4.5472
X6.8228Y-4.7323
X6.8268Y-4.2874
X6.8287Y-3.5669
X6.8445Y-3.4803
X6.8504Y-4.6496
X6.8514Y-4.1762
X6.863Y-3.5902
X6.8642Y-3.3829
X6.8737Y-4.8263
X6.875Y-3.73
X6.8898Y-3.9449
X6.8898Y-4.2165
X6.8937Y-4.0354
X6.9035Y-4.6752
X6.9055Y-3.4961
X6.9065Y-3.3465
X6.9213Y-4.3937
X6.9281Y-4.2667
X6.9301Y-4.6033
X6.937Y-3.4006
X6.9488Y-3.5827
X6.9567Y-4.7717
X6.9626Y-4.7037
X6.9646Y-4.5236
X6.9646Y-3.7904
X6.9724Y-3.4457
X6.9764Y-3.9528
X6.9921Y-4.1732
X6.9921Y-4.2953
X6.9921Y-4.4016
X6.9921Y-4.7205
X6.9941Y-3.1535
X7.0118Y-3.5433
X7.0154Y-3.8508
X7.0472Y-3.9528
X7.0551Y-4.0354
X7.06Y-4.3287
X7.061Y-4.6004
X7.0669Y-4.4222
X7.0709Y-4.1693
X7.1053Y-4.4478
X7.1193Y-3.7193
X7.1236Y-3.8642
X7.1358Y-4.4724
X7.2374Y-3.763
T2
X4.7109Y-4.2579
X4.8525Y-4.7845
X4.9341Y-3.0663
X5.0894Y-4.3315
X5.1142Y-4.3858
X5.138Y-2.8782
X5.1476Y-3.7264
X5.1524Y-4.6807
X5.1608Y-4.3615
X5.2106Y-3.2382
X5.2874Y-3.2382
X5.2972Y-4.5453
X5.3622Y-3.2382
X5.3668Y-4.0538
X5.3742Y-3.828
X5.3912Y-5.1164
X5.4071Y-3.8902
X5.4157Y-3.5214
X5.4408Y-3.4959
X5.4649Y-3.6138
X5.4674Y-3.5485
X5.5492Y-3.9134
X5.6297Y-2.7333
X5.6545Y-4.1073
X5.6656Y-3.9781
X5.6878Y-3.914
X5.6913Y-4.0547
X5.7039Y-3.9459
X5.8189Y-3.5696
X5.9075Y-3.7283
X5.9331Y-4.1339
X5.9547Y-3.565
X6.0984Y-4.0039
X6.0992Y-4.3031
X6.1122Y-3.4114
X6.1378Y-3.5315
X6.1746Y-4.2983
X6.1787Y-2.6866
X6.2165Y-5.1102
X6.2323Y-3.4094
X6.263Y-3.7035
X6.265Y-3.7575
X6.2713Y-4.0197
X6.2717Y-3.8314
X6.2849Y-4.8327
X6.3189Y-4.0797
X6.3819Y-3.7057
X6.3824Y-3.5787
X6.3862Y-3.7667
X6.4344Y-3.2513
X6.4409Y-4.7067
X6.497Y-3.4897
X6.5069Y-4.6327
X6.5463Y-3.825
X6.5957Y-3.878
X6.6161Y-3.4961
X6.7362Y-4.874
X6.8839Y-3.2972
X6.9379Y-3.1166
X6.9567Y-3.7159
X7.0787Y-4.2126
X7.0945Y-3.563
T3
X4.5787Y-3.7717
X4.5945Y-3.5846
X4.5945Y-4.2882
X4.7165Y-4.3445
X4.8307Y-3.126
X4.9055Y-3.252
X4.9449Y-2.9764
X5.082Y-4.8361
X5.0842Y-4.2861
X5.1437Y-3.7677
X5.185Y-4.0492
X5.2343Y-4.4429
X5.2655Y-4.8474
X5.2672Y-3.5704
X5.2756Y-3.8681
X5.2756Y-4.1387
X5.3622Y-3.7195
X5.3675Y-4.369
X5.4327Y-3.1122
X5.4498Y-2.6585
X5.4689Y-3.0925
X5.5075Y-3.0701
X5.5252Y-4.0042
X5.5541Y-2.624
X5.5755Y-4.255
X5.576Y-3.5366
X5.5764Y-3.4264
X5.5817Y-4.4754
X5.655Y-2.9843
X5.6651Y-5.1732
X5.6831Y-3.5512
X5.7559Y-5.0157
X5.7575Y-4.7343
X6.0669Y-2.6024
X6.1256Y-3.1559
X6.1256Y-3.2075
X6.1329Y-4.1768
X6.1432Y-4.6811
X6.1614Y-3.2756
X6.1654Y-4.7441
X6.1791Y-3.582
X6.2567Y-2.626
X6.2992Y-5.115
X6.313Y-4.9626
X6.3555Y-4.921
X6.7895Y-2.9115
X6.8646Y-2.9772
X7.0965Y-4.0079
X7.1614Y-3.4409
X7.2165Y-3.5846
X7.2165Y-4.2882
X7.2323Y-4.1339
T5
X5.8533Y-2.7559
X5.8533Y-2.8559
X5.8533Y-2.9559
X5.8533Y-3.0559
X5.8533Y-3.1559
X5.8533Y-3.2559
X5.9533Y-2.7559
X5.9533Y-2.8559
X5.9533Y-2.9559
X5.9533Y-3.0559
X5.9533Y-3.1559
X5.9533Y-3.2559
T6
X6.6915Y-4.3912
X6.8963Y-4.5098
T4
G00X4.7561Y-4.4034
M15
G01X4.7288Y-4.4191
M16
G05
G00X4.9038Y-4.3182
M15
G01X4.8662Y-4.3398
M16
G05
G00X4.9262Y-4.698
M15
G01X4.8989Y-4.7137
M16
G05
G00X5.0738Y-4.6127
M15
G01X5.0363Y-4.6344
M16
G05
M30
