%TF.GenerationSoftware,KiCad,Pcbnew,8.0.3*%
%TF.CreationDate,2024-11-06T16:38:13-05:00*%
%TF.ProjectId,vibecheck_mainboard,76696265-6368-4656-936b-5f6d61696e62,rev?*%
%TF.SameCoordinates,Original*%
%TF.FileFunction,Other,Comment*%
%FSLAX46Y46*%
G04 Gerber Fmt 4.6, Leading zero omitted, Abs format (unit mm)*
G04 Created by KiCad (PCBNEW 8.0.3) date 2024-11-06 16:38:13*
%MOMM*%
%LPD*%
G01*
G04 APERTURE LIST*
%ADD10C,0.070000*%
%ADD11C,0.600000*%
G04 APERTURE END LIST*
D10*
X140336129Y-85161077D02*
X140136129Y-84814667D01*
X140534077Y-85046791D02*
X140271330Y-84934557D01*
X140334077Y-84700381D02*
X140250415Y-85012616D01*
X140577777Y-84779624D02*
X140693247Y-84712957D01*
X140847496Y-84865839D02*
X140682539Y-84961077D01*
X140682539Y-84961077D02*
X140482539Y-84614667D01*
X140482539Y-84614667D02*
X140647496Y-84519429D01*
X140891196Y-84598672D02*
X141006666Y-84532005D01*
X141160915Y-84684886D02*
X140995958Y-84780125D01*
X140995958Y-84780125D02*
X140795958Y-84433714D01*
X140795958Y-84433714D02*
X140960915Y-84338476D01*
X141309377Y-84599172D02*
X141109377Y-84252762D01*
X141109377Y-84252762D02*
X141241343Y-84176571D01*
X141241343Y-84176571D02*
X141283858Y-84174020D01*
X141283858Y-84174020D02*
X141309877Y-84180991D01*
X141309877Y-84180991D02*
X141345421Y-84204459D01*
X141345421Y-84204459D02*
X141373992Y-84253946D01*
X141373992Y-84253946D02*
X141376544Y-84296461D01*
X141376544Y-84296461D02*
X141369572Y-84322481D01*
X141369572Y-84322481D02*
X141346104Y-84358024D01*
X141346104Y-84358024D02*
X141214139Y-84434215D01*
X141521770Y-84014667D02*
X141587753Y-83976571D01*
X141587753Y-83976571D02*
X141630268Y-83974020D01*
X141630268Y-83974020D02*
X141682307Y-83987963D01*
X141682307Y-83987963D02*
X141736898Y-84044422D01*
X141736898Y-84044422D02*
X141803565Y-84159892D01*
X141803565Y-84159892D02*
X141825164Y-84235399D01*
X141825164Y-84235399D02*
X141811220Y-84287438D01*
X141811220Y-84287438D02*
X141787753Y-84322982D01*
X141787753Y-84322982D02*
X141721770Y-84361077D01*
X141721770Y-84361077D02*
X141679255Y-84363629D01*
X141679255Y-84363629D02*
X141627216Y-84349685D01*
X141627216Y-84349685D02*
X141572625Y-84293226D01*
X141572625Y-84293226D02*
X141505958Y-84177756D01*
X141505958Y-84177756D02*
X141484358Y-84102249D01*
X141484358Y-84102249D02*
X141498302Y-84050210D01*
X141498302Y-84050210D02*
X141521770Y-84014667D01*
X141818693Y-83843238D02*
X141980598Y-84123665D01*
X141980598Y-84123665D02*
X142016141Y-84147133D01*
X142016141Y-84147133D02*
X142042161Y-84154105D01*
X142042161Y-84154105D02*
X142084676Y-84151553D01*
X142084676Y-84151553D02*
X142150659Y-84113458D01*
X142150659Y-84113458D02*
X142174127Y-84077914D01*
X142174127Y-84077914D02*
X142181099Y-84051895D01*
X142181099Y-84051895D02*
X142178547Y-84009379D01*
X142178547Y-84009379D02*
X142016642Y-83728952D01*
X142132112Y-83662285D02*
X142330061Y-83548000D01*
X142431087Y-83951553D02*
X142231087Y-83605142D01*
D11*
%TO.C,J901*%
X174221281Y-118104294D02*
G75*
G02*
X173621281Y-118104294I-300000J0D01*
G01*
X173621281Y-118104294D02*
G75*
G02*
X174221281Y-118104294I300000J0D01*
G01*
%TD*%
M02*
