%TF.GenerationSoftware,KiCad,Pcbnew,8.0.3*%
%TF.CreationDate,2024-11-06T16:38:13-05:00*%
%TF.ProjectId,vibecheck_mainboard,76696265-6368-4656-936b-5f6d61696e62,rev?*%
%TF.SameCoordinates,Original*%
%TF.FileFunction,Paste,Top*%
%TF.FilePolarity,Positive*%
%FSLAX46Y46*%
G04 Gerber Fmt 4.6, Leading zero omitted, Abs format (unit mm)*
G04 Created by KiCad (PCBNEW 8.0.3) date 2024-11-06 16:38:13*
%MOMM*%
%LPD*%
G01*
G04 APERTURE LIST*
G04 Aperture macros list*
%AMRoundRect*
0 Rectangle with rounded corners*
0 $1 Rounding radius*
0 $2 $3 $4 $5 $6 $7 $8 $9 X,Y pos of 4 corners*
0 Add a 4 corners polygon primitive as box body*
4,1,4,$2,$3,$4,$5,$6,$7,$8,$9,$2,$3,0*
0 Add four circle primitives for the rounded corners*
1,1,$1+$1,$2,$3*
1,1,$1+$1,$4,$5*
1,1,$1+$1,$6,$7*
1,1,$1+$1,$8,$9*
0 Add four rect primitives between the rounded corners*
20,1,$1+$1,$2,$3,$4,$5,0*
20,1,$1+$1,$4,$5,$6,$7,0*
20,1,$1+$1,$6,$7,$8,$9,0*
20,1,$1+$1,$8,$9,$2,$3,0*%
%AMHorizOval*
0 Thick line with rounded ends*
0 $1 width*
0 $2 $3 position (X,Y) of the first rounded end (center of the circle)*
0 $4 $5 position (X,Y) of the second rounded end (center of the circle)*
0 Add line between two ends*
20,1,$1,$2,$3,$4,$5,0*
0 Add two circle primitives to create the rounded ends*
1,1,$1,$2,$3*
1,1,$1,$4,$5*%
%AMRotRect*
0 Rectangle, with rotation*
0 The origin of the aperture is its center*
0 $1 length*
0 $2 width*
0 $3 Rotation angle, in degrees counterclockwise*
0 Add horizontal line*
21,1,$1,$2,0,0,$3*%
G04 Aperture macros list end*
%ADD10RoundRect,0.140000X0.170000X-0.140000X0.170000X0.140000X-0.170000X0.140000X-0.170000X-0.140000X0*%
%ADD11RoundRect,0.140000X0.140000X0.170000X-0.140000X0.170000X-0.140000X-0.170000X0.140000X-0.170000X0*%
%ADD12RoundRect,0.200000X-0.275000X0.200000X-0.275000X-0.200000X0.275000X-0.200000X0.275000X0.200000X0*%
%ADD13RoundRect,0.200000X-0.200000X-0.275000X0.200000X-0.275000X0.200000X0.275000X-0.200000X0.275000X0*%
%ADD14RoundRect,0.250000X0.512652X0.159099X0.159099X0.512652X-0.512652X-0.159099X-0.159099X-0.512652X0*%
%ADD15RoundRect,0.250000X0.536362X0.020994X0.286362X0.454006X-0.536362X-0.020994X-0.286362X-0.454006X0*%
%ADD16R,1.200000X1.400000*%
%ADD17RoundRect,0.218750X-0.256250X0.218750X-0.256250X-0.218750X0.256250X-0.218750X0.256250X0.218750X0*%
%ADD18R,0.700000X0.700000*%
%ADD19RoundRect,0.200000X0.200000X0.275000X-0.200000X0.275000X-0.200000X-0.275000X0.200000X-0.275000X0*%
%ADD20RoundRect,0.135000X0.135000X0.185000X-0.135000X0.185000X-0.135000X-0.185000X0.135000X-0.185000X0*%
%ADD21RoundRect,0.250000X-0.503814X-0.132583X-0.132583X-0.503814X0.503814X0.132583X0.132583X0.503814X0*%
%ADD22RoundRect,0.225000X-0.225000X-0.250000X0.225000X-0.250000X0.225000X0.250000X-0.225000X0.250000X0*%
%ADD23RoundRect,0.250000X-0.536362X-0.020994X-0.286362X-0.454006X0.536362X0.020994X0.286362X0.454006X0*%
%ADD24RoundRect,0.150000X-0.442404X-0.466266X-0.182596X-0.616266X0.442404X0.466266X0.182596X0.616266X0*%
%ADD25RoundRect,0.250000X-0.628109X-0.387917X-0.021891X-0.737917X0.628109X0.387917X0.021891X0.737917X0*%
%ADD26RoundRect,0.250000X0.132583X-0.503814X0.503814X-0.132583X-0.132583X0.503814X-0.503814X0.132583X0*%
%ADD27RoundRect,0.140000X-0.036244X-0.217224X0.206244X-0.077224X0.036244X0.217224X-0.206244X0.077224X0*%
%ADD28RoundRect,0.250000X-0.250000X-0.475000X0.250000X-0.475000X0.250000X0.475000X-0.250000X0.475000X0*%
%ADD29RoundRect,0.250000X0.262500X0.450000X-0.262500X0.450000X-0.262500X-0.450000X0.262500X-0.450000X0*%
%ADD30RoundRect,0.135000X0.185000X-0.135000X0.185000X0.135000X-0.185000X0.135000X-0.185000X-0.135000X0*%
%ADD31RoundRect,0.250000X0.454006X0.286362X0.020994X0.536362X-0.454006X-0.286362X-0.020994X-0.536362X0*%
%ADD32RoundRect,0.150000X0.423654X-0.433790X-0.163846X0.583790X-0.423654X0.433790X0.163846X-0.583790X0*%
%ADD33RoundRect,0.140000X-0.170000X0.140000X-0.170000X-0.140000X0.170000X-0.140000X0.170000X0.140000X0*%
%ADD34RoundRect,0.250000X0.250000X0.475000X-0.250000X0.475000X-0.250000X-0.475000X0.250000X-0.475000X0*%
%ADD35RoundRect,0.135000X-0.024413X-0.227715X0.209413X-0.092715X0.024413X0.227715X-0.209413X0.092715X0*%
%ADD36RotRect,2.920000X1.040000X285.000000*%
%ADD37RotRect,1.100000X1.040000X285.000000*%
%ADD38RotRect,0.700000X0.700000X150.000000*%
%ADD39R,1.300000X1.550000*%
%ADD40RoundRect,0.250000X-0.475000X0.250000X-0.475000X-0.250000X0.475000X-0.250000X0.475000X0.250000X0*%
%ADD41RoundRect,0.135000X-0.135000X-0.185000X0.135000X-0.185000X0.135000X0.185000X-0.135000X0.185000X0*%
%ADD42RoundRect,0.150000X-0.368838X-0.386154X0.518838X0.126346X0.368838X0.386154X-0.518838X-0.126346X0*%
%ADD43RotRect,2.920000X1.040000X15.000000*%
%ADD44RotRect,1.100000X1.040000X15.000000*%
%ADD45RotRect,2.920000X1.040000X315.000000*%
%ADD46RotRect,1.100000X1.040000X315.000000*%
%ADD47RoundRect,0.140000X-0.140000X-0.170000X0.140000X-0.170000X0.140000X0.170000X-0.140000X0.170000X0*%
%ADD48RoundRect,0.218750X-0.061318X-0.331294X0.317568X-0.112544X0.061318X0.331294X-0.317568X0.112544X0*%
%ADD49RoundRect,0.075000X0.725000X0.075000X-0.725000X0.075000X-0.725000X-0.075000X0.725000X-0.075000X0*%
%ADD50RoundRect,0.075000X0.075000X0.725000X-0.075000X0.725000X-0.075000X-0.725000X0.075000X-0.725000X0*%
%ADD51RoundRect,0.250000X-0.020994X0.536362X-0.454006X0.286362X0.020994X-0.536362X0.454006X-0.286362X0*%
%ADD52RoundRect,0.250000X0.520961X-0.002332X0.258461X0.452332X-0.520961X0.002332X-0.258461X-0.452332X0*%
%ADD53RoundRect,0.250000X-0.286362X0.454006X-0.536362X0.020994X0.286362X-0.454006X0.536362X-0.020994X0*%
%ADD54R,1.550000X1.300000*%
%ADD55RotRect,2.920000X1.040000X45.000000*%
%ADD56RotRect,1.100000X1.040000X45.000000*%
%ADD57RoundRect,0.135000X0.024413X0.227715X-0.209413X0.092715X-0.024413X-0.227715X0.209413X-0.092715X0*%
%ADD58RoundRect,0.112500X-0.218630X-0.003678X0.106130X-0.191178X0.218630X0.003678X-0.106130X0.191178X0*%
%ADD59RoundRect,0.250000X-0.258461X0.452332X-0.520961X-0.002332X0.258461X-0.452332X0.520961X0.002332X0*%
%ADD60RoundRect,0.150000X0.182596X-0.616266X0.442404X-0.466266X-0.182596X0.616266X-0.442404X0.466266X0*%
%ADD61RoundRect,0.250000X0.021891X-0.737917X0.628109X-0.387917X-0.021891X0.737917X-0.628109X0.387917X0*%
%ADD62RoundRect,0.250000X0.450000X-0.262500X0.450000X0.262500X-0.450000X0.262500X-0.450000X-0.262500X0*%
%ADD63RoundRect,0.140000X-0.206244X-0.077224X0.036244X-0.217224X0.206244X0.077224X-0.036244X0.217224X0*%
%ADD64RoundRect,0.200000X-0.035705X-0.338157X0.310705X-0.138157X0.035705X0.338157X-0.310705X0.138157X0*%
%ADD65RoundRect,0.250000X0.475000X-0.250000X0.475000X0.250000X-0.475000X0.250000X-0.475000X-0.250000X0*%
%ADD66RoundRect,0.135000X-0.185000X0.135000X-0.185000X-0.135000X0.185000X-0.135000X0.185000X0.135000X0*%
%ADD67RotRect,0.700000X0.700000X210.000000*%
%ADD68RotRect,2.920000X1.040000X75.000000*%
%ADD69RotRect,1.100000X1.040000X75.000000*%
%ADD70RoundRect,0.150000X-0.466266X0.442404X-0.616266X0.182596X0.466266X-0.442404X0.616266X-0.182596X0*%
%ADD71RoundRect,0.250000X-0.387917X0.628109X-0.737917X0.021891X0.387917X-0.628109X0.737917X-0.021891X0*%
%ADD72RotRect,2.920000X1.040000X255.000000*%
%ADD73RotRect,1.100000X1.040000X255.000000*%
%ADD74RoundRect,0.150000X0.163846X0.583790X-0.423654X-0.433790X-0.163846X-0.583790X0.423654X0.433790X0*%
%ADD75RotRect,2.920000X1.040000X165.000000*%
%ADD76RotRect,1.100000X1.040000X165.000000*%
%ADD77RoundRect,0.150000X0.368838X0.386154X-0.518838X-0.126346X-0.368838X-0.386154X0.518838X0.126346X0*%
%ADD78RoundRect,0.150000X0.433790X0.423654X-0.583790X-0.163846X-0.433790X-0.423654X0.583790X0.163846X0*%
%ADD79RoundRect,0.135000X0.227715X-0.024413X0.092715X0.209413X-0.227715X0.024413X-0.092715X-0.209413X0*%
%ADD80RotRect,2.920000X1.040000X345.000000*%
%ADD81RotRect,1.100000X1.040000X345.000000*%
%ADD82RoundRect,0.225000X0.250000X-0.225000X0.250000X0.225000X-0.250000X0.225000X-0.250000X-0.225000X0*%
%ADD83RotRect,2.920000X1.040000X195.000000*%
%ADD84RotRect,1.100000X1.040000X195.000000*%
%ADD85RoundRect,0.250000X-0.137087X-0.502607X0.370024X-0.366727X0.137087X0.502607X-0.370024X0.366727X0*%
%ADD86RoundRect,0.250000X0.258461X-0.452332X0.520961X0.002332X-0.258461X0.452332X-0.520961X-0.002332X0*%
%ADD87RoundRect,0.250000X-0.450000X0.262500X-0.450000X-0.262500X0.450000X-0.262500X0.450000X0.262500X0*%
%ADD88RoundRect,0.250000X0.002332X0.520961X-0.452332X0.258461X-0.002332X-0.520961X0.452332X-0.258461X0*%
%ADD89RoundRect,0.135000X0.092715X-0.209413X0.227715X0.024413X-0.092715X0.209413X-0.227715X-0.024413X0*%
%ADD90RoundRect,0.230000X0.230000X0.375000X-0.230000X0.375000X-0.230000X-0.375000X0.230000X-0.375000X0*%
%ADD91RoundRect,0.150000X0.825000X0.150000X-0.825000X0.150000X-0.825000X-0.150000X0.825000X-0.150000X0*%
%ADD92RoundRect,0.135000X-0.092715X0.209413X-0.227715X-0.024413X0.092715X-0.209413X0.227715X0.024413X0*%
%ADD93RoundRect,0.150000X-0.150000X-0.625000X0.150000X-0.625000X0.150000X0.625000X-0.150000X0.625000X0*%
%ADD94RoundRect,0.250000X-0.350000X-0.650000X0.350000X-0.650000X0.350000X0.650000X-0.350000X0.650000X0*%
%ADD95RotRect,2.500000X1.250000X240.000000*%
%ADD96RoundRect,0.250000X0.452332X0.258461X-0.002332X0.520961X-0.452332X-0.258461X0.002332X-0.520961X0*%
%ADD97RoundRect,0.150000X-0.163846X-0.583790X0.423654X0.433790X0.163846X0.583790X-0.423654X-0.433790X0*%
%ADD98RotRect,2.920000X1.040000X225.000000*%
%ADD99RotRect,1.100000X1.040000X225.000000*%
%ADD100RoundRect,0.250000X1.024038X1.226314X-1.574038X-0.273686X-1.024038X-1.226314X1.574038X0.273686X0*%
%ADD101RotRect,2.920000X1.040000X135.000000*%
%ADD102RotRect,1.100000X1.040000X135.000000*%
%ADD103RoundRect,0.242500X0.242500X0.527500X-0.242500X0.527500X-0.242500X-0.527500X0.242500X-0.527500X0*%
%ADD104RoundRect,0.250000X-0.370024X-0.366727X0.137087X-0.502607X0.370024X0.366727X-0.137087X0.502607X0*%
%ADD105RoundRect,0.150000X-0.443061X-0.082596X-0.293061X-0.342404X0.443061X0.082596X0.293061X0.342404X0*%
%ADD106RoundRect,0.075000X-0.470513X-0.185048X-0.395513X-0.314952X0.470513X0.185048X0.395513X0.314952X0*%
%ADD107HorizOval,1.000000X-0.476314X-0.275000X0.476314X0.275000X0*%
%ADD108HorizOval,1.000000X-0.346410X-0.200000X0.346410X0.200000X0*%
%ADD109RoundRect,0.250000X-0.375000X-0.850000X0.375000X-0.850000X0.375000X0.850000X-0.375000X0.850000X0*%
%ADD110RotRect,2.920000X1.040000X105.000000*%
%ADD111RotRect,1.100000X1.040000X105.000000*%
%ADD112RoundRect,0.375000X0.625000X0.375000X-0.625000X0.375000X-0.625000X-0.375000X0.625000X-0.375000X0*%
%ADD113RoundRect,0.500000X0.500000X1.400000X-0.500000X1.400000X-0.500000X-1.400000X0.500000X-1.400000X0*%
G04 APERTURE END LIST*
D10*
%TO.C,C916*%
X160325000Y-84905000D03*
X160325000Y-83945000D03*
%TD*%
%TO.C,C912*%
X161100000Y-82230000D03*
X161100000Y-81270000D03*
%TD*%
D11*
%TO.C,C905*%
X174230000Y-85050000D03*
X173270000Y-85050000D03*
%TD*%
D12*
%TO.C,R910*%
X163700000Y-95725000D03*
X163700000Y-94075000D03*
%TD*%
%TO.C,R907*%
X163900000Y-91075000D03*
X163900000Y-92725000D03*
%TD*%
D13*
%TO.C,R906*%
X169775000Y-90000000D03*
X171425000Y-90000000D03*
%TD*%
D12*
%TO.C,R903*%
X173400000Y-94775000D03*
X173400000Y-96425000D03*
%TD*%
%TO.C,R911*%
X162675000Y-85475000D03*
X162675000Y-87125000D03*
%TD*%
D14*
%TO.C,C1006*%
X169571751Y-119071751D03*
X168228249Y-117728249D03*
%TD*%
D15*
%TO.C,C302*%
X126750000Y-109022724D03*
X125800000Y-107377276D03*
%TD*%
D10*
%TO.C,C205*%
X143050000Y-92080000D03*
X143050000Y-91120000D03*
%TD*%
D15*
%TO.C,C305*%
X132925000Y-106922724D03*
X131975000Y-105277276D03*
%TD*%
D16*
%TO.C,Y201*%
X163650000Y-99700000D03*
X163650000Y-97500000D03*
X161950000Y-97500000D03*
X161950000Y-99700000D03*
%TD*%
D17*
%TO.C,D502*%
X175325000Y-92412500D03*
X175325000Y-93987500D03*
%TD*%
D18*
%TO.C,D405*%
X150932500Y-125800000D03*
X150932500Y-124700000D03*
X149102500Y-124700000D03*
X149102500Y-125800000D03*
%TD*%
D19*
%TO.C,R908*%
X164225000Y-80425000D03*
X162575000Y-80425000D03*
%TD*%
D12*
%TO.C,R904*%
X171750000Y-86675000D03*
X171750000Y-88325000D03*
%TD*%
D20*
%TO.C,R506*%
X176585000Y-105750000D03*
X175565000Y-105750000D03*
%TD*%
D21*
%TO.C,R1008*%
X125129766Y-123579765D03*
X126420234Y-124870235D03*
%TD*%
D22*
%TO.C,C915*%
X169925000Y-91750000D03*
X171475000Y-91750000D03*
%TD*%
D23*
%TO.C,C1010*%
X117225000Y-109627276D03*
X118175000Y-111272724D03*
%TD*%
D24*
%TO.C,J601*%
X132218911Y-123767949D03*
X133084936Y-124267949D03*
X133950962Y-124767949D03*
X134816987Y-125267949D03*
X135683013Y-125767949D03*
X136549038Y-126267949D03*
X137415064Y-126767949D03*
X138281089Y-127267949D03*
D25*
X129155578Y-126473798D03*
X137469422Y-131273798D03*
%TD*%
D26*
%TO.C,R1005*%
X173614765Y-124905235D03*
X174905235Y-123614765D03*
%TD*%
D27*
%TO.C,C301*%
X130159308Y-115590000D03*
X130990692Y-115110000D03*
%TD*%
D28*
%TO.C,C907*%
X170250000Y-105750000D03*
X172150000Y-105750000D03*
%TD*%
D29*
%TO.C,R1012*%
X144037500Y-66675000D03*
X142212500Y-66675000D03*
%TD*%
D30*
%TO.C,R912*%
X161325000Y-86085000D03*
X161325000Y-85065000D03*
%TD*%
D31*
%TO.C,C1003*%
X173422724Y-75075000D03*
X171777276Y-74125000D03*
%TD*%
D32*
%TO.C,Q1001*%
X131554552Y-76600000D03*
X133200000Y-75650000D03*
X131439776Y-74501202D03*
%TD*%
D28*
%TO.C,C911*%
X166800000Y-101700000D03*
X168700000Y-101700000D03*
%TD*%
D33*
%TO.C,C208*%
X129050000Y-95070000D03*
X129050000Y-96030000D03*
%TD*%
D34*
%TO.C,C309*%
X158412724Y-78438347D03*
X156512724Y-78438347D03*
%TD*%
%TO.C,C310*%
X158400000Y-85200000D03*
X156500000Y-85200000D03*
%TD*%
D35*
%TO.C,R303*%
X127058327Y-110255000D03*
X127941673Y-109745000D03*
%TD*%
D36*
%TO.C,D1006*%
X157764571Y-128977775D03*
D37*
X158416795Y-131411909D03*
%TD*%
D38*
%TO.C,D403*%
X141431515Y-124683814D03*
X141981515Y-123731186D03*
X140396689Y-122816186D03*
X139846689Y-123768814D03*
%TD*%
D39*
%TO.C,SW201*%
X119750000Y-103980000D03*
X119750000Y-96020000D03*
X124250000Y-103980000D03*
X124250000Y-96020000D03*
%TD*%
D40*
%TO.C,C204*%
X139450000Y-105700000D03*
X139450000Y-107600000D03*
%TD*%
D32*
%TO.C,Q1003*%
X137896026Y-73011899D03*
X139541474Y-72061899D03*
X137781250Y-70913101D03*
%TD*%
D41*
%TO.C,R1013*%
X131290000Y-83300000D03*
X132310000Y-83300000D03*
%TD*%
D42*
%TO.C,U301*%
X128639896Y-111096026D03*
X129114896Y-111918750D03*
X129589896Y-112741474D03*
X131560104Y-111603974D03*
X131085104Y-110781250D03*
X130610104Y-109958526D03*
%TD*%
D43*
%TO.C,D1003*%
X178977775Y-92235429D03*
D44*
X181411909Y-91583205D03*
%TD*%
D45*
%TO.C,D1005*%
X171213203Y-121213203D03*
D46*
X172995113Y-122995113D03*
%TD*%
D33*
%TO.C,C211*%
X147800000Y-89620000D03*
X147800000Y-90580000D03*
%TD*%
D47*
%TO.C,C901*%
X163020000Y-88500000D03*
X163980000Y-88500000D03*
%TD*%
D18*
%TO.C,D404*%
X146932500Y-125800000D03*
X146932500Y-124700000D03*
X145102500Y-124700000D03*
X145102500Y-125800000D03*
%TD*%
D33*
%TO.C,C202*%
X159290000Y-101270000D03*
X159290000Y-102230000D03*
%TD*%
D48*
%TO.C,D301*%
X133593005Y-115193750D03*
X134956995Y-114406250D03*
%TD*%
D49*
%TO.C,U201*%
X157675000Y-106000000D03*
X157675000Y-105500000D03*
X157675000Y-105000000D03*
X157675000Y-104500000D03*
X157675000Y-104000000D03*
X157675000Y-103500000D03*
X157675000Y-103000000D03*
X157675000Y-102500000D03*
X157675000Y-102000000D03*
X157675000Y-101500000D03*
X157675000Y-101000000D03*
X157675000Y-100500000D03*
X157675000Y-100000000D03*
X157675000Y-99500000D03*
X157675000Y-99000000D03*
X157675000Y-98500000D03*
X157675000Y-98000000D03*
X157675000Y-97500000D03*
X157675000Y-97000000D03*
X157675000Y-96500000D03*
X157675000Y-96000000D03*
X157675000Y-95500000D03*
X157675000Y-95000000D03*
X157675000Y-94500000D03*
X157675000Y-94000000D03*
D50*
X156000000Y-92325000D03*
X155500000Y-92325000D03*
X155000000Y-92325000D03*
X154500000Y-92325000D03*
X154000000Y-92325000D03*
X153500000Y-92325000D03*
X153000000Y-92325000D03*
X152500000Y-92325000D03*
X152000000Y-92325000D03*
X151500000Y-92325000D03*
X151000000Y-92325000D03*
X150500000Y-92325000D03*
X150000000Y-92325000D03*
X149500000Y-92325000D03*
X149000000Y-92325000D03*
X148500000Y-92325000D03*
X148000000Y-92325000D03*
X147500000Y-92325000D03*
X147000000Y-92325000D03*
X146500000Y-92325000D03*
X146000000Y-92325000D03*
X145500000Y-92325000D03*
X145000000Y-92325000D03*
X144500000Y-92325000D03*
X144000000Y-92325000D03*
D49*
X142325000Y-94000000D03*
X142325000Y-94500000D03*
X142325000Y-95000000D03*
X142325000Y-95500000D03*
X142325000Y-96000000D03*
X142325000Y-96500000D03*
X142325000Y-97000000D03*
X142325000Y-97500000D03*
X142325000Y-98000000D03*
X142325000Y-98500000D03*
X142325000Y-99000000D03*
X142325000Y-99500000D03*
X142325000Y-100000000D03*
X142325000Y-100500000D03*
X142325000Y-101000000D03*
X142325000Y-101500000D03*
X142325000Y-102000000D03*
X142325000Y-102500000D03*
X142325000Y-103000000D03*
X142325000Y-103500000D03*
X142325000Y-104000000D03*
X142325000Y-104500000D03*
X142325000Y-105000000D03*
X142325000Y-105500000D03*
X142325000Y-106000000D03*
D50*
X144000000Y-107675000D03*
X144500000Y-107675000D03*
X145000000Y-107675000D03*
X145500000Y-107675000D03*
X146000000Y-107675000D03*
X146500000Y-107675000D03*
X147000000Y-107675000D03*
X147500000Y-107675000D03*
X148000000Y-107675000D03*
X148500000Y-107675000D03*
X149000000Y-107675000D03*
X149500000Y-107675000D03*
X150000000Y-107675000D03*
X150500000Y-107675000D03*
X151000000Y-107675000D03*
X151500000Y-107675000D03*
X152000000Y-107675000D03*
X152500000Y-107675000D03*
X153000000Y-107675000D03*
X153500000Y-107675000D03*
X154000000Y-107675000D03*
X154500000Y-107675000D03*
X155000000Y-107675000D03*
X155500000Y-107675000D03*
X156000000Y-107675000D03*
%TD*%
D51*
%TO.C,C1013*%
X140122724Y-67275000D03*
X138477276Y-68225000D03*
%TD*%
D52*
%TO.C,R1002*%
X175881250Y-78190248D03*
X174968750Y-76609752D03*
%TD*%
D33*
%TO.C,C502*%
X173775000Y-100495000D03*
X173775000Y-101455000D03*
%TD*%
D10*
%TO.C,C501*%
X142725000Y-114630000D03*
X142725000Y-113670000D03*
%TD*%
D47*
%TO.C,C404*%
X145537500Y-123450000D03*
X146497500Y-123450000D03*
%TD*%
D53*
%TO.C,C1012*%
X125050000Y-76627276D03*
X124100000Y-78272724D03*
%TD*%
D54*
%TO.C,SW501*%
X153980000Y-118750000D03*
X146020000Y-118750000D03*
X153980000Y-114250000D03*
X146020000Y-114250000D03*
%TD*%
D20*
%TO.C,R1018*%
X136210000Y-82300000D03*
X135190000Y-82300000D03*
%TD*%
D55*
%TO.C,D1002*%
X171213203Y-78786797D03*
D56*
X172995113Y-77004887D03*
%TD*%
D27*
%TO.C,C408*%
X161266895Y-120364968D03*
X162098279Y-119884968D03*
%TD*%
D57*
%TO.C,R302*%
X133291673Y-113495000D03*
X132408327Y-114005000D03*
%TD*%
D30*
%TO.C,R503*%
X173800000Y-103710000D03*
X173800000Y-102690000D03*
%TD*%
D47*
%TO.C,C406*%
X153537500Y-123450000D03*
X154497500Y-123450000D03*
%TD*%
D30*
%TO.C,R403*%
X159300000Y-111160000D03*
X159300000Y-110140000D03*
%TD*%
D11*
%TO.C,C203*%
X155880000Y-109300000D03*
X154920000Y-109300000D03*
%TD*%
D58*
%TO.C,D201*%
X126490673Y-85875000D03*
X128309327Y-86925000D03*
%TD*%
D59*
%TO.C,R1010*%
X118206250Y-88559752D03*
X117293750Y-90140248D03*
%TD*%
D60*
%TO.C,J801*%
X161718911Y-127267949D03*
X162584936Y-126767949D03*
X163450962Y-126267949D03*
X164316987Y-125767949D03*
X165183013Y-125267949D03*
X166049038Y-124767949D03*
X166915064Y-124267949D03*
X167781089Y-123767949D03*
D61*
X162530578Y-131273798D03*
X170844422Y-126473798D03*
%TD*%
D11*
%TO.C,C210*%
X142080000Y-106975000D03*
X141120000Y-106975000D03*
%TD*%
D62*
%TO.C,R1003*%
X183275000Y-94037500D03*
X183275000Y-92212500D03*
%TD*%
D63*
%TO.C,C401*%
X134470206Y-117951154D03*
X135301590Y-118431154D03*
%TD*%
D64*
%TO.C,R301*%
X130885529Y-116812500D03*
X132314471Y-115987500D03*
%TD*%
D65*
%TO.C,C1008*%
X143850000Y-118025000D03*
X143850000Y-116125000D03*
%TD*%
D17*
%TO.C,D501*%
X159600000Y-114612500D03*
X159600000Y-116187500D03*
%TD*%
D66*
%TO.C,R209*%
X159400000Y-98190000D03*
X159400000Y-99210000D03*
%TD*%
D28*
%TO.C,C913*%
X166800000Y-103750000D03*
X168700000Y-103750000D03*
%TD*%
D30*
%TO.C,R206*%
X139670000Y-98640000D03*
X139670000Y-97620000D03*
%TD*%
D67*
%TO.C,D407*%
X160185899Y-123702628D03*
X159635899Y-122750000D03*
X158051073Y-123665000D03*
X158601073Y-124617628D03*
%TD*%
D68*
%TO.C,D1001*%
X157764571Y-71022225D03*
D69*
X158416795Y-68588091D03*
%TD*%
D11*
%TO.C,C902*%
X172730000Y-82475000D03*
X171770000Y-82475000D03*
%TD*%
D70*
%TO.C,J201*%
X125232051Y-83950962D03*
X124732051Y-84816987D03*
X124232051Y-85683013D03*
X123732051Y-86549038D03*
D71*
X122526202Y-80887629D03*
X119726202Y-85737371D03*
%TD*%
D34*
%TO.C,C311*%
X158400000Y-83200000D03*
X156500000Y-83200000D03*
%TD*%
D72*
%TO.C,D1007*%
X142235429Y-128977775D03*
D73*
X141583205Y-131411909D03*
%TD*%
D74*
%TO.C,Q203*%
X132097724Y-86965673D03*
X130452276Y-86015673D03*
X130337500Y-88114471D03*
%TD*%
D75*
%TO.C,D1010*%
X121022225Y-92235429D03*
D76*
X118588091Y-91583205D03*
%TD*%
D30*
%TO.C,R402*%
X143175000Y-110910000D03*
X143175000Y-109890000D03*
%TD*%
D47*
%TO.C,C405*%
X149537500Y-123450000D03*
X150497500Y-123450000D03*
%TD*%
D41*
%TO.C,R205*%
X125940000Y-94600000D03*
X126960000Y-94600000D03*
%TD*%
D34*
%TO.C,C1002*%
X157800000Y-66675000D03*
X155900000Y-66675000D03*
%TD*%
D67*
%TO.C,D408*%
X163650000Y-121702628D03*
X163100000Y-120750000D03*
X161515174Y-121665000D03*
X162065174Y-122617628D03*
%TD*%
D27*
%TO.C,C407*%
X157802794Y-122364968D03*
X158634178Y-121884968D03*
%TD*%
D28*
%TO.C,C914*%
X166800000Y-105800000D03*
X168700000Y-105800000D03*
%TD*%
D66*
%TO.C,R501*%
X144400000Y-113540000D03*
X144400000Y-114560000D03*
%TD*%
D32*
%TO.C,Q1002*%
X134746026Y-74836899D03*
X136391474Y-73886899D03*
X134631250Y-72738101D03*
%TD*%
D77*
%TO.C,U302*%
X131110104Y-107728974D03*
X130635104Y-106906250D03*
X130160104Y-106083526D03*
X128189896Y-107221026D03*
X129139896Y-108866474D03*
%TD*%
D40*
%TO.C,C1007*%
X156150000Y-117000000D03*
X156150000Y-118900000D03*
%TD*%
D41*
%TO.C,R401*%
X139340000Y-94500000D03*
X140360000Y-94500000D03*
%TD*%
D11*
%TO.C,C904*%
X166410000Y-98480000D03*
X165450000Y-98480000D03*
%TD*%
D34*
%TO.C,C312*%
X158412724Y-76438346D03*
X156512724Y-76438346D03*
%TD*%
D78*
%TO.C,Q202*%
X135423798Y-110335224D03*
X134473798Y-108689776D03*
X133325000Y-110450000D03*
%TD*%
D79*
%TO.C,R203*%
X134705000Y-106241673D03*
X134195000Y-105358327D03*
%TD*%
D80*
%TO.C,D1004*%
X178977775Y-107764571D03*
D81*
X181411909Y-108416795D03*
%TD*%
D82*
%TO.C,C306*%
X162100000Y-95675000D03*
X162100000Y-94125000D03*
%TD*%
D10*
%TO.C,C213*%
X160500000Y-98180000D03*
X160500000Y-97220000D03*
%TD*%
D40*
%TO.C,C910*%
X165950000Y-88800000D03*
X165950000Y-90700000D03*
%TD*%
D39*
%TO.C,SW502*%
X180225000Y-96020000D03*
X180225000Y-103980000D03*
X175725000Y-96020000D03*
X175725000Y-103980000D03*
%TD*%
D67*
%TO.C,D409*%
X167114102Y-119702628D03*
X166564102Y-118750000D03*
X164979276Y-119665000D03*
X165529276Y-120617628D03*
%TD*%
D83*
%TO.C,D1009*%
X121022226Y-107764571D03*
D84*
X118588092Y-108416795D03*
%TD*%
D85*
%TO.C,R1006*%
X157993593Y-133336172D03*
X159756407Y-132863828D03*
%TD*%
D40*
%TO.C,C1011*%
X116700000Y-92225000D03*
X116700000Y-94125000D03*
%TD*%
D12*
%TO.C,R909*%
X162625000Y-81925000D03*
X162625000Y-83575000D03*
%TD*%
D17*
%TO.C,L301*%
X160560000Y-94102500D03*
X160560000Y-95677500D03*
%TD*%
D65*
%TO.C,C1005*%
X183310000Y-107790000D03*
X183310000Y-105890000D03*
%TD*%
D40*
%TO.C,C909*%
X168050000Y-88800000D03*
X168050000Y-90700000D03*
%TD*%
D28*
%TO.C,C908*%
X170250000Y-103730000D03*
X172150000Y-103730000D03*
%TD*%
D27*
%TO.C,C409*%
X164730997Y-118364968D03*
X165562381Y-117884968D03*
%TD*%
D86*
%TO.C,R1004*%
X181818750Y-111490248D03*
X182731250Y-109909752D03*
%TD*%
D63*
%TO.C,C402*%
X137934308Y-119951154D03*
X138765692Y-120431154D03*
%TD*%
D38*
%TO.C,D402*%
X137967413Y-122683814D03*
X138517413Y-121731186D03*
X136932587Y-120816186D03*
X136382587Y-121768814D03*
%TD*%
D87*
%TO.C,R1009*%
X116750000Y-105812500D03*
X116750000Y-107637500D03*
%TD*%
D15*
%TO.C,C1004*%
X182750000Y-90097724D03*
X181800000Y-88452276D03*
%TD*%
D88*
%TO.C,R1011*%
X128190248Y-74168750D03*
X126609752Y-75081250D03*
%TD*%
D10*
%TO.C,C212*%
X160500000Y-100180000D03*
X160500000Y-99220000D03*
%TD*%
D40*
%TO.C,C304*%
X135950000Y-99950000D03*
X135950000Y-101850000D03*
%TD*%
D89*
%TO.C,R207*%
X130582500Y-92756144D03*
X131092500Y-91872798D03*
%TD*%
D41*
%TO.C,R1015*%
X133240000Y-83300000D03*
X134260000Y-83300000D03*
%TD*%
D20*
%TO.C,R204*%
X127510000Y-95900000D03*
X126490000Y-95900000D03*
%TD*%
D90*
%TO.C,U902*%
X169320000Y-96000000D03*
X169320000Y-94500000D03*
X168180000Y-96000000D03*
X168180000Y-94500000D03*
D91*
X171225000Y-97155000D03*
X171225000Y-95885000D03*
X171225000Y-94615000D03*
X171225000Y-93345000D03*
X166275000Y-93345000D03*
X166275000Y-94615000D03*
X166275000Y-95885000D03*
X166275000Y-97155000D03*
%TD*%
D35*
%TO.C,R304*%
X129483327Y-114705000D03*
X130366673Y-114195000D03*
%TD*%
D41*
%TO.C,R1017*%
X135190000Y-83350000D03*
X136210000Y-83350000D03*
%TD*%
D92*
%TO.C,R208*%
X133442500Y-87772798D03*
X132932500Y-88656144D03*
%TD*%
D93*
%TO.C,J701*%
X146500001Y-129500000D03*
X147500000Y-129500000D03*
X148500000Y-129500000D03*
X149500000Y-129500000D03*
X150500000Y-129500000D03*
X151500001Y-129500000D03*
X152499999Y-129500000D03*
X153500000Y-129500001D03*
D94*
X145200000Y-133374999D03*
X154800000Y-133375000D03*
%TD*%
D28*
%TO.C,C906*%
X170250000Y-101700000D03*
X172150000Y-101700000D03*
%TD*%
D40*
%TO.C,C201*%
X157500000Y-108150000D03*
X157500000Y-110050000D03*
%TD*%
D95*
%TO.C,J901*%
X177579941Y-111787309D03*
X173979942Y-118022692D03*
X174791339Y-110177309D03*
X171191340Y-116412691D03*
X171768911Y-108432309D03*
X168168912Y-114667691D03*
%TD*%
D96*
%TO.C,R1001*%
X161465248Y-68181250D03*
X159884752Y-67268750D03*
%TD*%
D97*
%TO.C,Q201*%
X127577276Y-91013269D03*
X129222724Y-91963269D03*
X129337500Y-89864471D03*
%TD*%
D20*
%TO.C,R1014*%
X132310000Y-82300000D03*
X131290000Y-82300000D03*
%TD*%
D98*
%TO.C,D1008*%
X128750000Y-121250000D03*
D99*
X126968090Y-123031910D03*
%TD*%
D89*
%TO.C,R201*%
X125045000Y-88591673D03*
X125555000Y-87708327D03*
%TD*%
D30*
%TO.C,R905*%
X173000000Y-87610000D03*
X173000000Y-86590000D03*
%TD*%
D33*
%TO.C,C308*%
X159300000Y-96270000D03*
X159300000Y-97230000D03*
%TD*%
D100*
%TO.C,C1001*%
X143638269Y-75800000D03*
X138961731Y-78500000D03*
%TD*%
D47*
%TO.C,C209*%
X159440000Y-103640000D03*
X160400000Y-103640000D03*
%TD*%
D101*
%TO.C,D1011*%
X128786797Y-78786797D03*
D102*
X127004887Y-77004887D03*
%TD*%
D103*
%TO.C,U901*%
X167775000Y-86200000D03*
X167775000Y-84300000D03*
X166575000Y-86200000D03*
X166575000Y-84300000D03*
D91*
X169650000Y-87155000D03*
X169650000Y-85885000D03*
X169650000Y-84615000D03*
X169650000Y-83345000D03*
X164700000Y-83345000D03*
X164700000Y-84615000D03*
X164700000Y-85885000D03*
X164700000Y-87155000D03*
%TD*%
D104*
%TO.C,R1007*%
X140268593Y-132788828D03*
X142031407Y-133261172D03*
%TD*%
D33*
%TO.C,C207*%
X156950000Y-91070000D03*
X156950000Y-92030000D03*
%TD*%
D30*
%TO.C,R505*%
X176700001Y-94385000D03*
X176699999Y-93365000D03*
%TD*%
D19*
%TO.C,R901*%
X174975000Y-83725000D03*
X173325000Y-83725000D03*
%TD*%
D64*
%TO.C,R305*%
X127160529Y-105987500D03*
X128589471Y-105162500D03*
%TD*%
D30*
%TO.C,R503*%
X155900000Y-115110000D03*
X155900000Y-114090000D03*
%TD*%
D38*
%TO.C,D401*%
X134503311Y-120683814D03*
X135053311Y-119731186D03*
X133468485Y-118816186D03*
X132918485Y-119768814D03*
%TD*%
D105*
%TO.C,J301*%
X125136973Y-110638719D03*
X125536973Y-111331539D03*
D106*
X126111973Y-112327468D03*
X126611973Y-113193494D03*
X126861973Y-113626505D03*
X127361973Y-114492532D03*
D105*
X127936973Y-115488461D03*
X128336973Y-116181281D03*
X128336973Y-116181281D03*
X127936973Y-115488461D03*
D106*
X127611973Y-114925544D03*
X127111973Y-114059519D03*
X126361973Y-112760481D03*
X125861973Y-111894456D03*
D105*
X125536973Y-111331539D03*
X125136973Y-110638719D03*
D107*
X124079009Y-109956270D03*
D108*
X120459023Y-112046270D03*
D107*
X128399009Y-117438730D03*
D108*
X124779023Y-119528730D03*
%TD*%
D12*
%TO.C,R902*%
X171875000Y-83700000D03*
X171875000Y-85350000D03*
%TD*%
D34*
%TO.C,C303*%
X134100000Y-95700000D03*
X132200000Y-95700000D03*
%TD*%
D66*
%TO.C,R502*%
X158000000Y-114890000D03*
X158000000Y-115910000D03*
%TD*%
D63*
%TO.C,C403*%
X141398410Y-121951154D03*
X142229794Y-122431154D03*
%TD*%
D65*
%TO.C,C1009*%
X141775000Y-118025000D03*
X141775000Y-116125000D03*
%TD*%
D109*
%TO.C,L302*%
X156845000Y-80850000D03*
X158995000Y-80850000D03*
%TD*%
D20*
%TO.C,R1016*%
X134260000Y-82300000D03*
X133240000Y-82300000D03*
%TD*%
D66*
%TO.C,R504*%
X173800000Y-98140000D03*
X173800000Y-99160000D03*
%TD*%
D18*
%TO.C,D406*%
X154932500Y-125800000D03*
X154932500Y-124700000D03*
X153102500Y-124700000D03*
X153102500Y-125800000D03*
%TD*%
D110*
%TO.C,D1012*%
X142235429Y-71022225D03*
D111*
X141583205Y-68588091D03*
%TD*%
D112*
%TO.C,U303*%
X133650000Y-102800000D03*
X133650000Y-100500000D03*
D113*
X127350000Y-100500000D03*
D112*
X133650000Y-98200000D03*
%TD*%
D28*
%TO.C,C903*%
X167670000Y-99020000D03*
X169570000Y-99020000D03*
%TD*%
D34*
%TO.C,C206*%
X146250000Y-90200000D03*
X144350000Y-90200000D03*
%TD*%
D89*
%TO.C,R202*%
X126395000Y-89391673D03*
X126905000Y-88508327D03*
%TD*%
M02*
